<?xml version="1.0" encoding="utf-8"?>
<!-- Generator: Adobe Illustrator 26.1.0, SVG Export Plug-In . SVG Version: 6.00 Build 0)  -->
<svg version="1.1" id="Layer_1" xmlns="http://www.w3.org/2000/svg" xmlns:xlink="http://www.w3.org/1999/xlink" x="0px" y="0px"
	 viewBox="0 0 200 170" style="enable-background:new 0 0 200 170;" xml:space="preserve">
<style type="text/css">
	.st0{fill:#EC1065;}
	.st1{fill:#F16922;}
	.st2{opacity:0.2;fill:url(#SVGID_1_);enable-background:new    ;}
	.st3{fill:url(#SVGID_00000154427624702387423930000012842062281479735690_);}
</style>
<g>
	<g>
		<path class="st1" d="M75.1,146.3c0-0.5,0.4-1.3,1.6-1.3c0.6,0,1.2,0.3,1.5,0.7l0.9-0.8c-0.6-0.8-1.5-1-2.4-1c-2,0-2.8,1.4-2.8,2.3
			c0,3.3,4.1,2.1,4.1,4c0,0.9-0.9,1.4-1.7,1.4c-0.7,0-1.4-0.3-1.8-0.9l-0.9,0.8c0.6,0.8,1.6,1.2,2.7,1.2c1.6,0,2.9-1,2.9-2.6
			C79.3,147.1,75.1,148.4,75.1,146.3z"/>
		<path class="st1" d="M85.6,151.7c-1.9,0-3.1-1.5-3.1-3.3c0-1.9,1.2-3.4,3.1-3.4c0.8,0,1.5,0.3,2,1l0.9-0.7
			c-0.7-0.9-1.8-1.3-2.9-1.3c-2.6,0-4.4,1.9-4.4,4.5c0,2.1,1.6,4.3,4.3,4.3c1.9,0,2.9-1.1,3.2-1.5l-1-0.7
			C87.3,151.2,86.6,151.7,85.6,151.7z"/>
		<polygon class="st1" points="96.5,147.6 92.2,147.6 92.2,144.2 91,144.2 91,152.5 92.2,152.5 92.2,148.7 96.5,148.7 96.5,152.5 
			97.6,152.5 97.6,144.2 96.5,144.2 		"/>
		<path class="st1" d="M104.5,143.9c-2.6,0-4.4,1.9-4.4,4.4c0,2.5,1.8,4.4,4.4,4.4s4.4-1.9,4.4-4.4
			C108.9,145.9,107.1,143.9,104.5,143.9z M104.5,151.7c-1.9,0-3.2-1.5-3.2-3.3c0-1.8,1.2-3.3,3.2-3.3s3.2,1.5,3.2,3.3
			C107.7,150.2,106.4,151.7,104.5,151.7z"/>
		<path class="st1" d="M115.2,143.9c-2.6,0-4.4,1.9-4.4,4.4c0,2.5,1.8,4.4,4.4,4.4s4.4-1.9,4.4-4.4
			C119.6,145.9,117.8,143.9,115.2,143.9z M115.2,151.7c-1.9,0-3.2-1.5-3.2-3.3c0-1.8,1.2-3.3,3.2-3.3s3.2,1.5,3.2,3.3
			C118.4,150.2,117.1,151.7,115.2,151.7z"/>
		<polygon class="st1" points="123.2,144.2 122.1,144.2 122.1,152.5 127.1,152.5 127.1,151.5 123.2,151.5 		"/>
		<path class="st1" d="M61.4,133.3L61.4,133.3c1.1-0.4,1.9-1.2,1.9-2.4c0-2.4-2.1-2.8-4-2.8h-4V139h4.4c1.9,0,4.1-0.8,4.1-3
			C63.8,134.6,62.9,133.5,61.4,133.3z M57.7,130.2h1.6c0.8,0,1.6,0.2,1.6,1.1c0,0.9-0.8,1.2-1.5,1.2h-1.7V130.2z M59.8,137h-2.1
			v-2.5h1.8c0.8,0,1.9,0.2,1.9,1.2C61.4,136.6,60.6,137,59.8,137z"/>
		<polygon class="st1" points="67.7,134.6 72.4,134.6 72.4,132.4 67.7,132.4 67.7,130.3 72.7,130.3 72.7,128.1 65.3,128.1 65.3,139 
			73,139 73,136.8 67.7,136.8 		"/>
		<path class="st1" d="M76.9,131.2c0-0.8,0.9-1.1,1.6-1.1c0.6,0,1.3,0.2,1.7,0.7l1.6-1.8c-0.9-0.8-2.1-1.1-3.3-1.1
			c-2.1,0-4.1,1.2-4.1,3.5c0,3.6,5.1,2.5,5.1,4.5c0,0.8-0.9,1.1-1.7,1.1c-0.8,0-1.6-0.4-2.1-1l-1.7,1.9c1,1,2.3,1.4,3.6,1.4
			c2.2,0,4.2-1.1,4.2-3.6C81.9,131.9,76.9,133.2,76.9,131.2z"/>
		<polygon class="st1" points="85.7,139 88.1,139 88.1,130.3 91.2,130.3 91.2,128.1 82.7,128.1 82.7,130.3 85.7,130.3 		"/>
		<polygon class="st1" points="102.2,139 106.6,128.1 104.1,128.1 101.3,135.2 101.3,135.2 98.6,128.1 95.9,128.1 100.2,139 		"/>
		<path class="st1" d="M114.4,139h2.7l-4.7-10.8h-2l-4.7,10.8h2.6l0.9-2.3h4.2L114.4,139z M110,134.7l1.3-3.4l1.3,3.4H110z"/>
		<polygon class="st1" points="125.1,136.8 120.6,136.8 120.6,128.1 118.2,128.1 118.2,139 125.1,139 		"/>
		<path class="st1" d="M133.1,134.7c0,1.3-0.9,2.3-2.2,2.3c-1.3,0-2.2-1-2.2-2.3v-6.6h-2.4v6.7c0,2.6,1.6,4.5,4.6,4.5
			c3,0,4.6-1.9,4.6-4.5v-6.7h-2.4V134.7z"/>
		<polygon class="st1" points="140.2,136.8 140.2,134.6 144.9,134.6 144.9,132.4 140.2,132.4 140.2,130.3 145.2,130.3 145.2,128.1 
			137.8,128.1 137.8,139 145.5,139 145.5,136.8 		"/>
	</g>
	
		<linearGradient id="SVGID_1_" gradientUnits="userSpaceOnUse" x1="46.0017" y1="-130.3241" x2="129.8723" y2="-200.6509" gradientTransform="matrix(1 0 0 -1 0 -102.0266)">
		<stop  offset="0" style="stop-color:#FBB116"/>
		<stop  offset="1" style="stop-color:#F16922"/>
	</linearGradient>
	<path class="st2" d="M100.8,95.7L100.8,95.7c0,0-19.7,0.3-19.7,19.7c0-19.4-19.7-19.7-19.7-19.7h0c0,0,19.7-0.3,19.7-19.7
		C81.1,95.4,100.8,95.7,100.8,95.7z M84.5,36L84.5,36C84.6,36,65,35.7,65,16.3C65,35.7,45.3,36,45.3,36h-0.1c0,0,19.7,0.3,19.7,19.7
		C64.9,36.3,84.5,36,84.5,36z M154.1,61.8c0.2,0,0.4,0,0.6,0C154.6,61.7,154.4,61.7,154.1,61.8z M139.5,58.9
		c-24.1,5.8-30.3,25.5-30.3,25.5c2.4,4.8,3.6,19.7,3.6,19.7c0-38.1,36.2-42,41.3-42.3C148.2,62,139.5,58.9,139.5,58.9z"/>
	
		<linearGradient id="SVGID_00000071545689524600136480000013218509615367747254_" gradientUnits="userSpaceOnUse" x1="47.4131" y1="-132.7606" x2="137.0978" y2="-200.0943" gradientTransform="matrix(1 0 0 -1 0 -102.0266)">
		<stop  offset="0" style="stop-color:#FBB116"/>
		<stop  offset="1" style="stop-color:#F16922"/>
	</linearGradient>
	<path style="fill:url(#SVGID_00000071545689524600136480000013218509615367747254_);" d="M112.4,104.9c-0.7,0-1.2-0.5-1.2-1.2
		c0-16.6-6.8-28.5-20.3-35.3C80.8,63.2,70.6,63,70.5,63c-0.7,0-1.2-0.5-1.2-1.2c0-0.7,0.5-1.2,1.2-1.2h0.1c0.1,0,10.3-0.2,20.5-5.4
		c13.4-6.8,20.2-18.7,20.2-35.3c0-0.7,0.5-1.2,1.2-1.2c0.7,0,1.2,0.5,1.2,1.2c0,16.6,6.8,28.4,20.2,35.3c10.1,5.1,20.4,5.4,20.5,5.4
		c0.7,0,1.2,0.5,1.2,1.2c0,0.7-0.5,1.2-1.2,1.2h-0.1c-0.1,0-10.3,0.2-20.5,5.4c-13.4,6.8-20.2,18.7-20.2,35.3
		C113.6,104.3,113.1,104.9,112.4,104.9z M79.5,61.7c3.7,0.8,8,2.2,12.5,4.4c8,4,17.2,11.7,20.4,26.1c3.2-14.3,12.5-22,20.4-26.1
		c4.5-2.3,8.9-3.6,12.6-4.4c-3.7-0.8-8-2.2-12.5-4.4c-8-4-17.2-11.7-20.4-26.1c-3.2,14.3-12.5,22-20.4,26.1
		C87.7,59.6,83.2,61,79.5,61.7z M64.4,56.9c-0.7,0-1.2-0.5-1.2-1.2c0-17.9-17.8-18.5-18.5-18.5c-0.7,0-1.2-0.6-1.2-1.2
		c0-0.7,0.5-1.2,1.2-1.2h0c0.7,0,18.5-0.5,18.5-18.5c0-0.7,0.5-1.2,1.2-1.2s1.2,0.5,1.2,1.2c0,17.9,17.8,18.5,18.5,18.5
		c0.7,0,1.2,0.6,1.2,1.2c0,0.7-0.5,1.2-1.2,1.2h0c-0.7,0-18.5,0.5-18.5,18.5C65.6,56.4,65,56.9,64.4,56.9z M51.3,36
		c4.7,1.5,10.6,4.8,13.1,12c2.5-7.3,8.5-10.5,13.2-12c-4.7-1.5-10.6-4.8-13.1-12C61.9,31.3,56,34.6,51.3,36z M80.5,116.5
		c-0.7,0-1.2-0.5-1.2-1.2c0-17.9-17.8-18.5-18.5-18.5c-0.7,0-1.2-0.6-1.2-1.2c0-0.7,0.5-1.2,1.2-1.2h0c0.7,0,18.5-0.5,18.5-18.5
		c0-0.7,0.5-1.2,1.2-1.2c0.7,0,1.2,0.5,1.2,1.2c0,17.9,17.8,18.5,18.5,18.5c0.7,0,1.2,0.6,1.2,1.2c0,0.7-0.5,1.2-1.2,1.2h0
		c-0.7,0-18.5,0.5-18.5,18.5C81.7,116,81.2,116.5,80.5,116.5z M67.5,95.7c4.7,1.5,10.6,4.8,13.1,12c2.5-7.3,8.5-10.5,13.2-12
		c-4.7-1.5-10.6-4.8-13.1-12C78.1,90.9,72.2,94.2,67.5,95.7z"/>
</g>
</svg>
