<?xml version="1.0" encoding="utf-8"?>
<!-- Generator: Adobe Illustrator 26.1.0, SVG Export Plug-In . SVG Version: 6.00 Build 0)  -->
<svg version="1.1" id="Layer_1" xmlns="http://www.w3.org/2000/svg" xmlns:xlink="http://www.w3.org/1999/xlink" x="0px" y="0px"
	 viewBox="0 0 200 170" style="enable-background:new 0 0 200 170;" xml:space="preserve">
<style type="text/css">
	.st0{fill:#EC1065;}
	.st1{opacity:0.2;fill:url(#SVGID_1_);enable-background:new    ;}
	.st2{fill:url(#SVGID_00000031204970212371357440000016847627837984778393_);}
</style>
<g>
	<g>
		
			<linearGradient id="SVGID_1_" gradientUnits="userSpaceOnUse" x1="49.5654" y1="-161.4974" x2="151.1304" y2="-161.4974" gradientTransform="matrix(1 0 0 -1 0 -102.0266)">
			<stop  offset="0" style="stop-color:#F16922"/>
			<stop  offset="1" style="stop-color:#EC1065"/>
		</linearGradient>
		<path class="st1" d="M100.6,83.4c3.6,0,6.5,2.9,6.5,6.5c0,3.6-2.9,6.5-6.5,6.5s-6.5-2.9-6.5-6.5C94.1,86.3,97,83.4,100.6,83.4z
			 M84.3,75.8h32.6v1.9H84.3V75.8z M77,99.6h46.7v2.9H77V99.6z M74.6,106.9h52.5v2.9H74.6V106.9z M108.6,71.4l-3.3-10.6l-9.9-0.1
			l-0.6,3.7c0,0,2.9,1.4,7.4,0.6c0.2,1.7,1.1,5,2.9,6.8L108.6,71.4z M125.3,9.1h-1.6c-0.8,12.8-3.4,34.9-13.1,43.3
			c-6.8,5.8-18.1,4.3-23.3,3.9c9.7,5.7,25.8,4.6,31.6-6.7c1.6-3,2.8-6.3,3.7-9.8c2.4-8.6,4-23.4,4.5-28.7
			C127.1,10.1,126.3,9.1,125.3,9.1z M55.8,49.9c0,0,2.4-2,1.1-5c-0.7-1.9-2.9-4.4-6.3-4.9c-1.6,3.5-0.7,6.3,0.5,8
			C52.8,50.7,55.8,49.9,55.8,49.9z M61.3,57.4c0,0,3.1,0.8,4.7-2c1.2-1.7,1.9-4.9,0.3-8c-3.7,0.8-5.5,3.1-6.2,5
			C58.9,55.5,61.3,57.4,61.3,57.4z M60.8,58.1c0,0-0.7-3.1-4-3.3c-2-0.2-5.2,0.6-7.2,3.4c2.4,3,5.3,3.5,7.3,3.2
			C60.1,61.1,60.8,58.1,60.8,58.1z M69.7,65.6c0,0,3.2,0.1,4.1-3c0.8-1.9,0.8-5.2-1.4-7.8c-3.5,1.6-4.8,4.2-5,6.2
			C66.9,64.2,69.7,65.6,69.7,65.6z M69.3,66.3c0,0-1.4-2.9-4.6-2.3c-2,0.2-5,1.7-6.3,4.9c3,2.4,5.9,2.3,7.8,1.6
			C69.3,69.4,69.3,66.3,69.3,66.3z M144.9,49.9c0,0-2.4-2-1.1-5c0.7-1.9,2.9-4.4,6.3-4.9c1.6,3.5,0.7,6.3-0.5,8
			C147.9,50.7,144.9,49.9,144.9,49.9z M139.4,57.4c0,0-3.1,0.8-4.7-2c-1.2-1.7-1.9-4.9-0.3-8c3.7,0.8,5.5,3.1,6.2,5
			C141.8,55.5,139.4,57.4,139.4,57.4z M139.9,58.1c0,0,0.7-3.1,4-3.3c2-0.2,5.2,0.6,7.2,3.4c-2.4,3-5.3,3.5-7.3,3.2
			C140.6,61.1,139.9,58.1,139.9,58.1z M131,65.6c0,0-3.2,0.1-4.1-3c-0.8-1.9-0.8-5.2,1.4-7.8c3.5,1.6,4.8,4.2,5,6.2
			C133.8,64.2,131,65.6,131,65.6z M131.4,66.3c0,0,1.4-2.9,4.6-2.3c2,0.2,5,1.7,6.3,4.9c-3,2.4-5.9,2.3-7.8,1.6
			C131.4,69.4,131.4,66.3,131.4,66.3z"/>
		
			<linearGradient id="SVGID_00000126292202716320708340000004559882421202832019_" gradientUnits="userSpaceOnUse" x1="57.3397" y1="-133.1916" x2="143.976" y2="-190.7691" gradientTransform="matrix(1 0 0 -1 0 -102.0266)">
			<stop  offset="0" style="stop-color:#F16922"/>
			<stop  offset="1" style="stop-color:#EC1065"/>
		</linearGradient>
		<path style="fill:url(#SVGID_00000126292202716320708340000004559882421202832019_);" d="M137.8,16c-1.3-1.4-3.2-2.2-5.2-2.2H128
			c0.1-0.9,0.2-1.8,0.2-2.5c0.1-0.8-0.2-1.7-0.8-2.3c-0.6-0.6-1.4-1-2.2-1H75.4c-0.9,0-1.7,0.3-2.2,1c-0.6,0.6-0.9,1.5-0.8,2.3
			c0,0.7,0.1,1.4,0.2,2.3h-4.6c-1.9,0-3.8,0.8-5.2,2.2s-2,3.4-1.8,5.3c0.9,10.3,4.7,23.1,18,25.4c0.5,1.3,1.1,2.5,1.7,3.7
			c2.8,5.4,7.4,9.2,13,10.9c0,2.2-0.5,6.7-2.5,8.7c-0.7,0.7-1.5,1.1-2.5,1.1h-3c-0.4,0-0.9,0.2-1.1,0.7l-2.6,5.3H77
			c-0.7,0-1.2,0.5-1.2,1.2v23h-2.3c-0.7,0-1.2,0.5-1.2,1.2v7.1c0,0.7,0.5,1.2,1.2,1.2h53.8c0.7,0,1.2-0.5,1.2-1.2v-7.1
			c0-0.7-0.5-1.2-1.2-1.2h-2.3V78c0-0.7-0.5-1.2-1.2-1.2h-5.2l-2.6-5.3c-0.2-0.4-0.6-0.7-1.1-0.7h-3.3c-1,0-1.8-0.3-2.5-1.1
			c-1.9-2-2.4-6.4-2.5-8.6c5.7-1.6,10.5-5.5,13.3-11c0.5-1.1,1.1-2.1,1.6-3.4c6.4-1.3,16.5-6.3,18.1-25.6
			C139.7,19.3,139.1,17.4,137.8,16z M63.6,20.8c-0.1-1.3,0.3-2.5,1.2-3.5c0.9-1,2-1.5,3.4-1.5H73c0.8,7,2.2,17.5,4.1,24.2
			c0.3,1.3,0.7,2.4,1.1,3.6C69.6,41.6,64.6,33.9,63.6,20.8z M126,108.1H74.7v-4.7H77h46.7h2.3V108.1z M122.5,101H78.2V79.2h4.7h34.9
			h4.7L122.5,101L122.5,101z M115.8,76.8H84.9l1.8-3.5h27.5L115.8,76.8z M106.8,70.9H93.6c2.1-2.7,2.5-7.1,2.6-9.2
			c1.4,0.2,2.7,0.4,4.1,0.4c1.3,0,2.6-0.1,3.8-0.3C104.3,63.9,104.7,68.2,106.8,70.9z M121.4,39.5c-1,3.6-2.2,6.8-3.6,9.5
			c-3.4,6.6-9.9,10.6-17.4,10.6c-7.5,0-14-3.9-17.4-10.6c-1.4-2.7-2.6-5.9-3.6-9.5c-1.9-6.9-3.4-17.9-4.1-24.7v0c0-0.1,0-0.2,0-0.3
			c-0.1-1.3-0.2-2.5-0.3-3.4c0-0.2,0.1-0.4,0.1-0.4c0-0.1,0.2-0.2,0.4-0.2h49.8c0.2,0,0.4,0.1,0.4,0.2c0,0.1,0.2,0.2,0.1,0.4
			C125.3,16.8,123.7,31.1,121.4,39.5z M137.1,21.1c-0.6,7.4-3.4,19.8-14.7,23.1c0.4-1.3,0.8-2.6,1.2-3.9c1.8-6.7,3.3-17.1,4-24h4.9
			c1.3,0,2.5,0.5,3.4,1.5C136.8,18.6,137.3,19.8,137.1,21.1z M100.6,97.7c-4.3,0-7.7-3.5-7.7-7.7c0-4.3,3.5-7.7,7.7-7.7
			c4.2,0,7.7,3.5,7.7,7.7C108.4,94.2,104.9,97.7,100.6,97.7z M100.6,84.6c-2.9,0-5.3,2.4-5.3,5.3c0,2.9,2.4,5.3,5.3,5.3
			c2.9,0,5.3-2.4,5.3-5.3C105.9,87,103.6,84.6,100.6,84.6z M76.1,66.8c-1.1-0.3-2-0.7-3-1.1c0.8-0.6,1.5-1.5,1.9-2.7
			c0.9-2.4,0.8-6.1-1.7-9c-0.3-0.4-0.9-0.6-1.4-0.3c-4.6,2-5.5,5.7-5.7,7.2c0,0.2,0,0.4,0,0.6c-1.1-0.9-2.1-1.8-3-2.8
			c1.3-0.2,2.8-0.9,3.8-2.6c1.5-2.1,2.1-5.7,0.3-9.2c-0.2-0.5-0.8-0.7-1.3-0.6c-5,1-6.6,4.4-7.1,5.8c-0.1,0.3-0.2,0.6-0.2,0.8
			c-0.7-1.2-1.2-2.1-1.5-2.7c1-1.2,1.9-3.3,0.8-5.7c-0.9-2.4-3.5-5.1-7.2-5.6c-0.5-0.1-1.1,0.2-1.3,0.7c-2.1,4.6-0.3,7.9,0.6,9.1
			c1.3,2,3.3,2.6,4.8,2.6c0,0,0.1,0,0.1,0c0.2,0.6,0.7,1.4,1.3,2.4c-2.5,0-5.6,1.1-7.7,3.9c-0.3,0.4-0.3,1.1,0,1.5
			c2.5,3.1,5.4,3.7,7.2,3.7c0.5,0,0.9,0,1.2-0.1c2-0.2,3.4-1.4,4.1-2.5c0.9,0.9,1.8,1.8,2.9,2.8c-2.4,0.4-5.4,2.2-6.8,5.5
			c-0.2,0.5,0,1.1,0.3,1.4c2.2,1.8,4.3,2.3,6,2.3c1.3,0,2.4-0.3,3-0.5c2.5-0.9,3.6-3,3.8-4.5c1.5,0.8,3.2,1.5,5,2c0.1,0,0.2,0,0.3,0
			c0.5,0,1-0.3,1.2-0.9C77.1,67.7,76.8,67,76.1,66.8z M61.2,52.9L61.2,52.9c0.3-1,1.3-3.1,4.3-4c0.8,2.3,0.3,4.6-0.6,5.8
			c0,0,0,0,0,0.1c-0.9,1.6-2.4,1.6-3.1,1.5C61.4,55.8,60.6,54.6,61.2,52.9z M52,47.3C52,47.3,52,47.2,52,47.3
			c-0.6-0.8-1.8-2.9-0.8-5.9c2.3,0.7,3.9,2.4,4.4,3.9c0,0,0,0,0,0.1c0.7,1.7-0.1,2.9-0.6,3.4C54.5,48.8,53.1,48.8,52,47.3z
			 M56.8,60.2L56.8,60.2c-1,0.1-3.4,0.2-5.6-2c1.7-1.8,3.9-2.4,5.4-2.2c0,0,0,0,0.1,0c0.6,0,1.1,0.2,1.4,0.4
			c0.4,0.5,0.8,1.1,1.3,1.7C59.2,58.8,58.5,60.1,56.8,60.2z M68.6,61.2L68.6,61.2c0.1-1,0.6-3.3,3.4-4.9c1.3,2,1.3,4.4,0.7,5.8
			c0,0,0,0,0,0.1c-0.5,1.5-1.7,1.9-2.4,2.1c-0.3-0.2-0.7-0.4-1-0.6C68.9,63.2,68.5,62.3,68.6,61.2z M65.9,69.3L65.9,69.3
			c-1,0.3-3.2,0.9-5.9-0.8c1.2-2.1,3.3-3.2,4.9-3.3c0,0,0,0,0.1,0c1.8-0.3,2.8,0.8,3.2,1.4C68,67.3,67.6,68.7,65.9,69.3z
			 M152.1,57.5c-2-2.9-5.2-4-7.6-4c0.6-1,1-1.8,1.3-2.3c0,0,0,0,0.1,0c1.5,0,3.5-0.5,4.8-2.5c0.9-1.2,2.7-4.5,0.6-9.1
			c-0.2-0.5-0.8-0.8-1.3-0.7c-3.8,0.6-6.4,3.3-7.2,5.6c-1.1,2.4-0.1,4.5,0.8,5.7c-0.3,0.6-0.8,1.6-1.5,2.7c0-0.3-0.1-0.6-0.2-0.9
			c-0.5-1.4-2.1-4.8-7.1-5.8c-0.5-0.1-1.1,0.1-1.3,0.6c-1.8,3.5-1.1,7.1,0.3,9.2c1,1.7,2.5,2.4,3.9,2.6c-0.9,0.9-1.9,1.9-3,2.8
			c0-0.2,0-0.4,0-0.6c-0.2-1.5-1.1-5.2-5.7-7.2c-0.5-0.2-1.1-0.1-1.4,0.3c-2.5,3-2.6,6.7-1.7,9c0.4,1.2,1.1,2.1,1.9,2.7
			c-1,0.4-1.9,0.8-3,1.1c-0.7,0.2-1,0.9-0.8,1.5c0.1,0.5,0.6,0.9,1.2,0.9c0.1,0,0.2,0,0.4,0c1.8-0.5,3.4-1.2,4.9-2
			c0.2,1.5,1.2,3.6,3.8,4.5c0.6,0.2,1.7,0.5,3,0.5c1.7,0,3.8-0.5,6.1-2.2c0.4-0.3,0.5-0.9,0.3-1.4c-1.4-3.4-4.4-5.2-6.9-5.6
			c1.1-0.9,2-1.8,2.9-2.8c0.8,1.1,2.1,2.2,4.1,2.5c0.3,0,0.7,0.1,1.2,0.1c1.8,0,4.7-0.6,7.2-3.7C152.4,58.6,152.4,58,152.1,57.5z
			 M128,62.2C128,62.2,128,62.2,128,62.2c-0.6-1.6-0.6-3.9,0.6-5.9c2.7,1.6,3.3,3.8,3.4,4.8v0c0.2,1.2-0.2,1.9-0.6,2.5
			c-0.3,0.2-0.7,0.4-1.1,0.7C129.6,64.2,128.5,63.7,128,62.2z M140.7,68.5c-2.7,1.7-4.9,1.1-5.8,0.8h0c-1.7-0.6-2.1-2-2.2-2.7
			c0.4-0.5,1.4-1.7,3.1-1.4c0,0,0,0,0.1,0C137.4,65.4,139.5,66.4,140.7,68.5z M145,45.4C145,45.3,145,45.3,145,45.4
			c0.6-1.6,2.1-3.3,4.5-4c1,3-0.1,5.1-0.7,5.8c0,0,0,0,0,0c-1,1.6-2.5,1.6-3.2,1.5C145.1,48.2,144.2,47,145,45.4z M135.8,54.8
			C135.8,54.8,135.7,54.8,135.8,54.8c-0.9-1.4-1.4-3.6-0.6-5.9c3,0.9,4,3.1,4.3,4v0c0.7,1.7-0.2,2.9-0.6,3.4
			C138.2,56.4,136.7,56.4,135.8,54.8z M144,60.2L144,60.2c-1.8-0.2-2.5-1.4-2.7-2c0.5-0.6,1-1.2,1.4-1.8c0.3-0.2,0.8-0.3,1.4-0.4
			c0,0,0,0,0.1,0c1.6-0.2,3.8,0.4,5.4,2.2C147.3,60.5,145,60.4,144,60.2z"/>
	</g>
	<g>
		<polygon class="st0" points="73.8,121.5 73.8,128.5 75,128.5 75,120.2 74,120.2 71.6,122.1 72.3,122.9 		"/>
		<path class="st0" d="M84.1,127.5h-4.2l2.8-2.7c0.7-0.7,1.5-1.5,1.5-2.6c0-1.5-1.2-2.3-2.6-2.3s-2.5,0.7-2.8,2.2l1.2,0.1
			c0.1-0.8,0.7-1.3,1.5-1.3c0.8,0,1.4,0.5,1.4,1.3c0,0.7-0.5,1.3-0.9,1.7l-3.4,3.3v1.2h5.5V127.5z"/>
		<polygon class="st0" points="92.8,128.5 93.9,128.5 93.9,124.9 97.1,120.2 95.7,120.2 93.3,123.8 91.1,120.2 89.6,120.2 
			92.8,124.9 		"/>
		<polygon class="st0" points="104.5,127.5 100,127.5 100,124.8 104,124.8 104,123.7 100,123.7 100,121.2 104.3,121.2 104.3,120.2 
			98.9,120.2 98.9,128.5 104.5,128.5 		"/>
		<path class="st0" d="M108.1,126.4h4l0.8,2.1h1.3l-3.6-8.4h-1l-3.7,8.4h1.3L108.1,126.4z M110.1,121.6L110.1,121.6l1.6,3.8h-3.2
			L110.1,121.6z"/>
		<path class="st0" d="M117.4,124.8h1.3l2.1,3.7h1.4l-2.4-3.8c1.3-0.1,2.1-1.1,2.1-2.2c0-1.1-0.5-2.3-2.7-2.3h-2.9v8.4h1.1V124.8z
			 M117.4,121.1h1.5c0.9,0,1.8,0.2,1.8,1.3s-0.9,1.3-1.8,1.3h-1.5V121.1z"/>
		<path class="st0" d="M126.3,127.7c-0.7,0-1.4-0.3-1.8-0.9l-0.9,0.8c0.6,0.8,1.6,1.2,2.7,1.2c1.6,0,2.9-1,2.9-2.6
			c0-3-4.1-1.7-4.1-3.9c0-0.5,0.4-1.3,1.6-1.3c0.6,0,1.2,0.3,1.5,0.7l0.9-0.8c-0.6-0.8-1.5-1-2.4-1c-2,0-2.8,1.4-2.8,2.3
			c0,3.3,4.1,2.1,4.1,4C128,127.2,127.1,127.7,126.3,127.7z"/>
		<path class="st0" d="M13.4,138.2c0-0.8,0.9-1.1,1.6-1.1c0.6,0,1.3,0.2,1.7,0.7l1.6-1.8c-0.9-0.8-2.1-1.1-3.3-1.1
			c-2.1,0-4.1,1.2-4.1,3.5c0,3.6,5.1,2.5,5.1,4.5c0,0.8-0.9,1.1-1.7,1.1c-0.8,0-1.6-0.4-2.1-1l-1.7,1.9c1,1,2.3,1.4,3.6,1.4
			c2.2,0,4.2-1.1,4.2-3.6C18.3,138.9,13.4,140.2,13.4,138.2z"/>
		<polygon class="st0" points="19.1,137.3 22.2,137.3 22.2,146 24.6,146 24.6,137.3 27.7,137.3 27.7,135.1 19.1,135.1 		"/>
		<path class="st0" d="M37.2,138.4c0-2.5-1.9-3.3-4.1-3.3h-4.2V146h2.4v-4.3h1.2l2.3,4.3h2.9l-2.8-4.6
			C36.4,141.1,37.2,139.9,37.2,138.4z M32.7,139.6h-1.4v-2.5h1.6c0.9,0,1.9,0.2,1.9,1.3C34.7,139.6,33.6,139.6,32.7,139.6z"/>
		<path class="st0" d="M50,140.6c0-3.5-2.5-5.7-5.9-5.7s-5.9,2.2-5.9,5.7s2.5,5.7,5.9,5.7S50,144,50,140.6z M44.1,144.1
			c-2,0-3.4-1.5-3.4-3.5c0-2,1.3-3.5,3.4-3.5s3.4,1.5,3.4,3.5C47.5,142.6,46.1,144.1,44.1,144.1z"/>
		<polygon class="st0" points="54,138.3 54,138.3 58.7,146 61.9,146 61.9,135.1 59.5,135.1 59.5,142.7 59.4,142.7 54.8,135.1 
			51.6,135.1 51.6,146 54,146 		"/>
		<path class="st0" d="M73.9,139.6h-4.2v2.2h1.9v1.8c-0.4,0.2-1.2,0.5-2.3,0.5c-2,0-3.4-1.5-3.4-3.5c0-2,1.3-3.5,3.4-3.5
			c1.2,0,2,0.4,2.6,1l1.7-1.8c-1.1-1-2.6-1.4-4.3-1.4c-3.4,0-5.9,2.2-5.9,5.7s2.5,5.7,5.9,5.7c1.6,0,3.1-0.3,4.5-1V139.6z"/>
		<path class="st0" d="M89.7,144.4l-2-1.5c-0.5,0.7-1.3,1.2-2.2,1.2c-1.7,0-3.1-1.5-3.1-3.5c0-2,1.3-3.5,3.1-3.5
			c0.9,0,1.6,0.3,2.1,0.9l1.8-1.5c-0.9-1.2-2.5-1.6-3.7-1.6c-3.4,0-5.9,2.2-5.9,5.7s2.5,5.7,5.9,5.7
			C87.3,146.3,88.8,145.7,89.7,144.4z"/>
		<path class="st0" d="M90.4,140.6c0,3.5,2.5,5.7,5.9,5.7s5.9-2.2,5.9-5.7s-2.5-5.7-5.9-5.7S90.4,137.1,90.4,140.6z M99.6,140.6
			c0,2-1.3,3.5-3.4,3.5s-3.4-1.5-3.4-3.5c0-2,1.3-3.5,3.4-3.5S99.6,138.5,99.6,140.6z"/>
		<polygon class="st0" points="116,146 116,135.1 112.4,135.1 109.9,142.2 109.8,142.2 107.3,135.1 103.7,135.1 103.7,146 
			106.1,146 106.1,137.7 106.1,137.7 108.9,146 110.7,146 113.6,137.7 113.6,137.7 113.6,146 		"/>
		<polygon class="st0" points="128,137.7 128,146 130.4,146 130.4,135.1 126.8,135.1 124.3,142.2 124.3,142.2 121.8,135.1 
			118.2,135.1 118.2,146 120.6,146 120.6,137.7 120.6,137.7 123.3,146 125.2,146 128,137.7 		"/>
		<rect x="132.6" y="135.1" class="st0" width="2.4" height="10.8"/>
		<polygon class="st0" points="144.8,135.1 136.2,135.1 136.2,137.3 139.3,137.3 139.3,146 141.7,146 141.7,137.3 144.8,137.3 		"/>
		<polygon class="st0" points="152.1,142.2 152.1,142.2 149.6,135.1 146,135.1 146,146 148.3,146 148.3,137.7 148.4,137.7 
			151.1,146 152.9,146 155.8,137.7 155.8,137.7 155.8,146 158.2,146 158.2,135.1 154.6,135.1 		"/>
		<polygon class="st0" points="162.9,141.6 167.6,141.6 167.6,139.4 162.9,139.4 162.9,137.3 167.9,137.3 167.9,135.1 160.5,135.1 
			160.5,146 168.1,146 168.1,143.8 162.9,143.8 		"/>
		<polygon class="st0" points="178,142.7 177.9,142.7 173.3,135.1 170.1,135.1 170.1,146 172.5,146 172.5,138.3 172.5,138.3 
			177.2,146 180.3,146 180.3,135.1 178,135.1 		"/>
		<polygon class="st0" points="181.5,135.1 181.5,137.3 184.6,137.3 184.6,146 187,146 187,137.3 190.1,137.3 190.1,135.1 		"/>
		<polygon class="st0" points="46.9,153.8 50,153.8 50,162.5 52.4,162.5 52.4,153.8 55.5,153.8 55.5,151.7 46.9,151.7 		"/>
		<path class="st0" d="M61.9,151.4c-3.4,0-5.9,2.2-5.9,5.7s2.5,5.7,5.9,5.7s5.9-2.2,5.9-5.7S65.3,151.4,61.9,151.4z M61.9,160.6
			c-2,0-3.4-1.5-3.4-3.5c0-2,1.3-3.5,3.4-3.5s3.4,1.5,3.4,3.5C65.3,159.1,64,160.6,61.9,160.6z"/>
		<polygon class="st0" points="73,153.8 76,153.8 76,162.5 78.4,162.5 78.4,153.8 81.5,153.8 81.5,151.7 73,151.7 		"/>
		<polygon class="st0" points="85.2,158.1 89.9,158.1 89.9,155.9 85.2,155.9 85.2,153.9 90.2,153.9 90.2,151.7 82.8,151.7 
			82.8,162.5 90.5,162.5 90.5,160.3 85.2,160.3 		"/>
		<path class="st0" d="M96,151.7l-4.7,10.8h2.6l0.9-2.3H99l0.9,2.3h2.7l-4.7-10.8H96z M95.6,158.2l1.3-3.4l1.3,3.4H95.6z"/>
		<path class="st0" d="M108.7,160.6c-1.7,0-3.1-1.5-3.1-3.5c0-2,1.3-3.5,3.1-3.5c0.9,0,1.6,0.3,2.1,0.9l1.8-1.5
			c-0.9-1.2-2.5-1.6-3.7-1.6c-3.4,0-5.9,2.2-5.9,5.7s2.5,5.7,5.9,5.7c1.5,0,3-0.6,3.9-1.9l-2-1.5
			C110.4,160.2,109.7,160.6,108.7,160.6z"/>
		<polygon class="st0" points="121.3,155.7 116.6,155.7 116.6,151.7 114.2,151.7 114.2,162.5 116.6,162.5 116.6,157.8 121.3,157.8 
			121.3,162.5 123.6,162.5 123.6,151.7 121.3,151.7 		"/>
		<rect x="125.8" y="151.7" class="st0" width="2.4" height="10.8"/>
		<polygon class="st0" points="138.3,159.2 138.2,159.2 133.6,151.7 130.4,151.7 130.4,162.5 132.8,162.5 132.8,154.8 132.8,154.8 
			137.5,162.5 140.7,162.5 140.7,151.7 138.3,151.7 		"/>
		<path class="st0" d="M148.4,158.3h1.9v1.8c-0.4,0.2-1.2,0.5-2.3,0.5c-2,0-3.4-1.5-3.4-3.5c0-2,1.3-3.5,3.4-3.5c1.2,0,2,0.4,2.6,1
			l1.7-1.8c-1.1-1-2.6-1.4-4.3-1.4c-3.4,0-5.9,2.2-5.9,5.7s2.5,5.7,5.9,5.7c1.6,0,3.1-0.3,4.5-1v-5.7h-4.2V158.3z"/>
	</g>
</g>
</svg>
