<?xml version="1.0" encoding="utf-8"?>
<!-- Generator: Adobe Illustrator 26.3.1, SVG Export Plug-In . SVG Version: 6.00 Build 0)  -->
<svg version="1.1" id="Layer_1" xmlns="http://www.w3.org/2000/svg" xmlns:xlink="http://www.w3.org/1999/xlink" x="0px" y="0px"
	 viewBox="0 0 200 170" style="enable-background:new 0 0 200 170;" xml:space="preserve">
<style type="text/css">
	.st0{opacity:0.2;fill:url(#SVGID_1_);}
	.st1{fill:url(#SVGID_00000054966847980872240980000004273273809281785496_);}
	.st2{fill:#921A8D;}
</style>
<linearGradient id="SVGID_1_" gradientUnits="userSpaceOnUse" x1="69.6464" y1="62.336" x2="134.3679" y2="62.336">
	<stop  offset="0" style="stop-color:#EC1065"/>
	<stop  offset="0.9994" style="stop-color:#BE1A8D"/>
</linearGradient>
<path class="st0" d="M104.2,95c0,0-1.3-0.8-4.6-1.9s-4.3-2.8-4.3-2.8s5.8-2.3,11.2-3.9c5.4-1.6,24.8-17.2,24.8-17.2s1,2.1,1.5,4
	c0.5,1.9,1.4,5.2,1.4,5.2l0.3,0.8c-6.5,5.2-13.9,10.4-22.5,13c-1.1,0.3-2.1,0.7-3,1c-1.4,0.6-2.8,1.3-4,2.1L104.2,95z M105.9,29.4
	l-3.4,2.3c0,1.3-3.2,5.9-3.2,5.9c0.7,1.4,1.9,4.9-0.1,7c-1.6,1.7-4.7,2.7-6.7,1.2L90.4,44l-0.9,0.9l1.6,1.5c2.2,1.9,2.2,5.3,0.6,7.3
	c-1.7,2.1-5.1,3-7.3,1.3l-2.1-1.6l0.4,1.5l1.7,1.5c2,1.8,1.8,4,0.3,6c-1.4,1.7-4.4,2.5-6.1,1.2l-1.8-1.6l-1.2,0.5l1.9,1.8
	c1.5,1.2,1,3.4,0,4.8c-1.1,1.5-3.8,2.4-5.3,1.3l-1.6-0.9l-1,2l2.3,1.7c1.1,0.8,2.4,1.2,3.8,1.2c0,0,0,0,0,0c2.1,0,4-1,5.3-2.6
	c0.9-1.2,1.3-2.6,1.3-4c0.1,0,0.2,0,0.3,0c2.2,0,4.3-1,5.7-2.8c1.4-1.9,1.9-3.8,1.4-5.7c2.1-0.1,4.1-1.2,5.5-2.9
	c1.5-1.9,2-4.2,1.5-6.4c0.1,0,0.1,0,0.2,0c2.2,0,4.2-0.9,5.7-2.7c2.1-2.6,2.4-5.9,0.7-8.4l0,0C103.4,38.9,106.8,36.1,105.9,29.4z"/>
<linearGradient id="SVGID_00000166659555203320975940000015194771759762715796_" gradientUnits="userSpaceOnUse" x1="55.4046" y1="64.8562" x2="144.594" y2="64.8562">
	<stop  offset="0" style="stop-color:#EC1065"/>
	<stop  offset="0.9994" style="stop-color:#921A8D"/>
</linearGradient>
<path style="fill:url(#SVGID_00000166659555203320975940000015194771759762715796_);" d="M144.3,90.4l-4.5-4.8c-1-1-1.7-2.1-2.4-3.2
	c-1.5-2.6-2.6-5.5-3.3-8.6c-0.3-1.5-0.8-3-1.3-4.5c0.8-0.6,1.5-1.3,2.2-1.8c2.3-1.9,3-5.1,1.6-7.7l-0.1-0.1
	c-0.8-1.5-2.1-2.6-3.8-3.1c2.3-1.8,3.1-4.9,1.9-7.6l-0.3-0.7c-0.7-1.6-2.1-2.8-3.7-3.4c-0.1,0-0.3-0.1-0.4-0.1c1.8-2.2,2.5-6,0.9-9
	c-1.4-2.5-4.1-3.6-6.7-3.5c0.3-0.5,0.5-1.1,0.6-1.7c0.4-2.1-0.1-4.2-1.3-5.9c-2.1-2.8-6.4-3.5-9.5-1.7c-1.1,0.6-2.3,1.3-3.5,2.1
	c-0.3-0.5-0.8-1-1.4-1.3c-1.9-1-5-2.1-6.5-2.5l-0.5-0.2c-2-0.7-5.5-0.6-6.9,1.3c-0.9,1.1-1.3,2.5-1.6,3.5c-0.1,0.4-0.2,0.8-0.3,1.1
	C93,27.6,92.5,28.3,92,29l-4.6-4.2c-1.4-1.3-3.3-1.9-5.2-1.7c-1.9,0.2-3.6,1.1-4.8,2.6l-0.6,0.7c-1.1,1.4-1.7,3.1-1.5,4.8
	c0,0.2,0.1,0.5,0.1,0.7c-0.3,0-0.7,0-1,0c-1.9,0.2-3.6,1.1-4.9,2.7L69,35.3c-1.2,1.5-1.7,3.3-1.5,5.2c0,0.4,0.1,0.7,0.2,1.1
	c-0.2,0-0.4,0-0.6,0c-1.6,0.1-3,0.9-4.1,2.2l-0.7,0.9c-1.1,1.4-1.6,3.1-1.4,4.9c0,0.3,0.1,0.7,0.2,1c-0.1,0-0.1,0-0.2,0
	c-1.5,0.2-2.8,1-3.7,2.2l-0.7,0.9c-1,1.3-1.4,2.9-1.1,4.4c0.2,1.6,1.1,3,2.4,3.9l11.2,7.9c-1,2.6-2.3,5-4,7.1l-9.3,11.9
	c-0.2,0.3-0.3,0.6-0.3,0.9c0,0.3,0.2,0.6,0.5,0.8L80,108.2c0.2,0.2,0.5,0.2,0.7,0.2c0.4,0,0.8-0.2,1-0.5l8-10.8
	c1.4-1.9,3.1-3.5,5-4.8c2.4,1.5,3.9,2,5.2,2.4l0.3,0.1c2.1,0.7,4.3,1.7,6.4,3.2c1.8,1.2,3.3,2.6,4.7,4.4l5.1,6.3
	c0.2,0.3,0.6,0.5,1,0.5c0.2,0,0.5-0.1,0.7-0.2L144,92.3c0.3-0.2,0.5-0.5,0.6-0.9C144.6,91,144.5,90.6,144.3,90.4z M95.6,27.7
	c0.2-0.4,0.3-0.8,0.4-1.3c0.3-1,0.6-2,1.1-2.7c0.4-0.5,1.4-0.7,2.5-0.7c0.6,0,1.2,0.1,1.7,0.3l0.5,0.2c1.4,0.5,4.3,1.4,6.1,2.4
	c0.2,0.1,0.3,0.2,0.4,0.4l-0.1,0c-6.9,4.5-7,5-7.1,5.4c-0.7,2.3-1.7,3.8-2.8,4.6c-0.1,0-0.1,0.1-0.2,0.1c0,0,0,0.1-0.1,0.1
	c-1.8,1.2-3.8,1.1-5.5,0.9c-1.3-0.2-2-1-2.3-1.7c-0.2-0.5-0.2-0.9,0-1.2c0.3-0.4,0.9-1,1.4-1.6C93.2,31.5,94.9,29.8,95.6,27.7z
	 M77.9,30.9c-0.1-1,0.2-2,0.9-2.9l0.6-0.7c0.8-0.9,1.9-1.5,3.1-1.6c1.2-0.1,2.4,0.3,3.3,1.1l4.6,4.2c-0.1,0.1-0.2,0.2-0.3,0.4
	c-0.7,0.7-1.2,1.3-1.7,1.9c-0.7,1-0.8,2.3-0.3,3.6c0.7,1.6,2.2,2.8,4.2,3.2c0.8,0.1,1.6,0.2,2.3,0.2c1.6,0,2.9-0.3,4.1-0.9
	c0.7,1.4,0.4,2.9-0.7,4.2c-1.4,1.8-4.1,2-6.1,0.5l-7.5-6.2l-4.3-3.8c-0.4-0.4-0.9-0.7-1.3-0.9C78.3,32.3,77.9,31.6,77.9,30.9z
	 M71,36.9l0.6-0.7c0.8-1,1.9-1.7,3.2-1.8c0.1,0,0.3,0,0.4,0c0.7,0,1.4,0.2,2.1,0.5c0.3,0.3,0.6,0.6,0.9,0.8l4.6,3.8l6.8,6.1
	c2.2,1.9,2.7,4.9,1,6.9c-1.7,2.1-4.3,2.3-6.5,0.6l-6.9-5.4l-4.9-4.3c-0.4-0.4-0.8-0.7-1.3-0.9c-0.5-0.7-0.8-1.5-0.9-2.3
	C69.9,38.9,70.2,37.8,71,36.9z M64.3,46.2l0.7-0.9c0.6-0.8,1.4-1.2,2.3-1.3c0.1,0,0.2,0,0.3,0c0.5,0,1.1,0.1,1.6,0.4
	c0.4,0.5,0.9,1,1.5,1.5l4.7,3.7l7.2,6.4c2,1.8,2.2,3.1,0.8,5.2c-1.4,1.7-3.8,2-5.6,0.6l-5.9-4.5l-6.7-5.5c-0.4-0.3-0.7-0.5-1.1-0.7
	c-0.4-0.5-0.7-1.2-0.7-1.9C63.3,48.1,63.6,47.1,64.3,46.2z M57.9,57.6c-0.1-0.9,0.1-1.8,0.6-2.5l0.7-0.9c0.5-0.7,1.2-1.1,2-1.2
	c0.1,0,0.2,0,0.3,0c0.3,0,0.7,0.1,1,0.2c0.3,0.3,0.5,0.6,0.9,0.8l7,5.3l5,4.1c1.5,1.2,1.8,3.1,0.7,4.5c-1.1,1.5-3.1,1.8-4.6,0.7
	l-12.3-8.7C58.6,59.3,58.1,58.5,57.9,57.6z M87.7,95.7l-7.3,9.8L58.6,89.4l8.5-10.9c1.7-2.2,3-4.6,4.1-7.3c0.8,0.3,1.5,0.5,2.3,0.5
	c1.8,0,3.5-0.8,4.7-2.3c1-1.3,1.3-2.9,1-4.4c0.4,0.1,0.8,0.1,1.2,0.1c1.9,0,3.8-0.8,5-2.4c0,0,0,0,0,0c1.8-2.5,1.7-4.5,1-6
	c0.2,0,0.4,0.1,0.6,0.1c2,0,4-0.9,5.4-2.7c1.6-2,1.9-4.5,1.1-6.8c0.4,0.1,0.8,0.1,1.2,0.1c1.9,0,3.8-0.8,5.1-2.4
	c1.8-2.3,2.1-5,0.8-7.3c1.4-1.4,2.3-3.2,2.9-5c0.7-0.6,3.6-2.7,6.2-4.3l1-0.6c0.1-0.1,0.2-0.2,0.3-0.2c0.1,0,0.2-0.1,0.3-0.1
	c1.5-0.9,2.9-1.8,4.1-2.5c2-1.2,5-0.7,6.3,1.1c0.8,1.1,1.2,2.6,0.9,3.9c-0.2,1.1-0.8,2-1.7,2.5l-4.7,3.1c-0.6,0.4-0.7,1.1-0.4,1.7
	c0.3,0.6,1.1,0.8,1.7,0.5l5-2.6c2.1-0.8,5.3-0.3,6.5,1.8c1.5,2.6,0.1,6-1.5,6.9l-5,3c-0.6,0.3-0.8,1.1-0.5,1.7
	c0.3,0.6,1.1,0.8,1.7,0.5l3.1-1.6c1-0.5,2-0.6,3-0.2c1,0.4,1.8,1.1,2.2,2.1l0.3,0.7c0.8,1.7,0.2,3.7-1.3,4.7l-5.1,3.5
	c-0.6,0.4-0.7,1.1-0.3,1.7c0.4,0.6,1.1,0.7,1.7,0.4l1.6-1c0.9-0.6,2-0.7,3-0.4c1,0.3,1.9,1,2.4,1.9l0.1,0.1c0.8,1.6,0.5,3.5-0.9,4.6
	c-0.8,0.7-1.7,1.4-2.6,2.1c-0.2,0.1-0.4,0.3-0.5,0.4c-0.4,0.4-0.9,0.8-1.4,1.1c-7.2,6.1-17,14.4-28.1,17.7c-1.1,0.3-2.1,0.7-3.1,1.1
	C93.8,89.5,90.3,92.2,87.7,95.7z M117.8,106.3l-4.4-5.5c-1.6-1.9-3.3-3.6-5.3-4.9c-2.3-1.6-4.7-2.7-7.1-3.5l-0.3-0.1
	c-1-0.3-2-0.6-3.5-1.4c0.5-0.2,0.9-0.4,1.4-0.6c0.9-0.4,1.9-0.7,3-1c11.6-3.5,21.6-12,29-18.2c0.1,0,0.1-0.1,0.2-0.1
	c0.4,1.1,0.7,2.2,0.9,3.3c0.8,3.3,1.9,6.4,3.6,9.3c0.7,1.3,1.6,2.5,2.7,3.7l3.5,3.7L117.8,106.3z"/>
<g>
	<path class="st2" d="M58.7,139.3h1.1v8.4h-1.1V139.3z"/>
	<path class="st2" d="M62.9,139.3h1.5l4.6,6.9h0v-6.9h1.1v8.4h-1.4l-4.7-6.9h0v6.9h-1.1V139.3z"/>
	<path class="st2" d="M73.5,146c0.4,0.6,1.1,0.9,1.8,0.9c0.7,0,1.7-0.5,1.7-1.4c0-1.9-4.1-0.7-4.1-4c0-1,0.8-2.3,2.8-2.3
		c0.9,0,1.8,0.2,2.4,1l-0.9,0.8c-0.3-0.4-0.8-0.7-1.5-0.7c-1.3,0-1.6,0.8-1.6,1.3c0,2.1,4.1,0.9,4.1,3.9c0,1.6-1.3,2.6-2.9,2.6
		c-1.1,0-2.1-0.4-2.7-1.2L73.5,146z"/>
	<path class="st2" d="M82.4,140.4h-2.7v-1.1h6.5v1.1h-2.7v7.3h-1.1V140.4z"/>
	<path class="st2" d="M88.3,139.3h1.1v8.4h-1.1V139.3z"/>
	<path class="st2" d="M94.2,140.4h-2.7v-1.1h6.5v1.1h-2.7v7.3h-1.1V140.4z"/>
	<path class="st2" d="M101.2,139.3v5.1c0,1,0.5,2.4,2.1,2.4c1.6,0,2.1-1.3,2.1-2.4v-5.1h1.1v5.3c0,1.9-1.4,3.3-3.2,3.3
		c-1.8,0-3.2-1.3-3.2-3.3v-5.3H101.2z"/>
	<path class="st2" d="M111.1,140.4h-2.7v-1.1h6.5v1.1h-2.7v7.3h-1.1V140.4z"/>
	<path class="st2" d="M117,139.3h1.1v8.4H117V139.3z"/>
	<path class="st2" d="M120.7,143.5c0-2.5,1.8-4.4,4.4-4.4c2.6,0,4.4,1.9,4.4,4.4c0,2.5-1.8,4.4-4.4,4.4
		C122.5,147.9,120.7,146,120.7,143.5z M128.2,143.5c0-1.8-1.2-3.3-3.2-3.3s-3.2,1.5-3.2,3.3c0,1.8,1.2,3.3,3.2,3.3
		S128.2,145.4,128.2,143.5z"/>
	<path class="st2" d="M131.9,139.3h1.5l4.6,6.9h0v-6.9h1.1v8.4h-1.4l-4.7-6.9h0v6.9h-1.1V139.3z"/>
</g>
<g>
	<path class="st2" d="M23.4,123.3h2l4.7,10.8h-2.7l-0.9-2.3h-4.2l-0.9,2.3h-2.6L23.4,123.3z M24.3,126.5l-1.3,3.4h2.7L24.3,126.5z"
		/>
	<path class="st2" d="M35.7,123.3h2.4v4h4.6v-4h2.4v10.8h-2.4v-4.7h-4.6v4.7h-2.4V123.3z"/>
	<path class="st2" d="M47.3,123.3h2.4v10.8h-2.4V123.3z"/>
	<path class="st2" d="M57.2,126c-0.4-0.5-1.1-0.7-1.7-0.7c-0.7,0-1.6,0.3-1.6,1.1c0,2,5,0.7,5,4.5c0,2.4-1.9,3.6-4.2,3.6
		c-1.4,0-2.6-0.4-3.6-1.4l1.7-1.9c0.5,0.6,1.3,1,2.1,1c0.8,0,1.7-0.4,1.7-1.1c0-2-5.1-0.9-5.1-4.5c0-2.3,2-3.5,4.1-3.5
		c1.2,0,2.4,0.3,3.3,1.1L57.2,126z"/>
	<path class="st2" d="M60.6,123.3h4c2.3,0,4.1,0.7,4.1,3.3c0,2.5-1.7,3.3-4,3.3H63v4.2h-2.4V123.3z M63,127.9h1.6
		c0.8,0,1.7-0.3,1.7-1.3c0-1.1-1.1-1.3-2.1-1.3H63V127.9z"/>
	<path class="st2" d="M72.4,123.3h2l4.7,10.8h-2.7l-0.9-2.3h-4.2l-0.9,2.3h-2.6L72.4,123.3z M73.4,126.5l-1.3,3.4h2.7L73.4,126.5z"
		/>
	<path class="st2" d="M80.2,123.3h3.2l4.6,7.5h0v-7.5h2.4v10.8h-3.1l-4.7-7.7h0v7.7h-2.4V123.3z"/>
	<path class="st2" d="M92.7,123.3h2.4v10.8h-2.4V123.3z"/>
	<path class="st2" d="M104.3,126.1c-0.5-0.6-1.2-0.9-2.1-0.9c-1.8,0-3.1,1.5-3.1,3.5c0,2,1.3,3.5,3.1,3.5c1,0,1.7-0.4,2.2-1.2l2,1.5
		c-0.9,1.3-2.4,1.9-3.9,1.9c-3.4,0-5.9-2.2-5.9-5.7s2.5-5.7,5.9-5.7c1.2,0,2.7,0.4,3.7,1.6L104.3,126.1z"/>
	<path class="st2" d="M110.8,131.3H107v-1.8h3.8V131.3z"/>
	<path class="st2" d="M117.6,126c-0.4-0.5-1.1-0.7-1.7-0.7c-0.7,0-1.6,0.3-1.6,1.1c0,2,5,0.7,5,4.5c0,2.4-1.9,3.6-4.2,3.6
		c-1.4,0-2.6-0.4-3.6-1.4l1.7-1.9c0.5,0.6,1.3,1,2.1,1c0.8,0,1.7-0.4,1.7-1.1c0-2-5.1-0.9-5.1-4.5c0-2.3,2-3.5,4.1-3.5
		c1.2,0,2.4,0.3,3.3,1.1L117.6,126z"/>
	<path class="st2" d="M121.1,123.3h7.4v2.2h-5v2h4.7v2.2h-4.7v2.2h5.3v2.2h-7.6V123.3z"/>
	<path class="st2" d="M130.7,123.3h4.2c2.2,0,4.1,0.8,4.1,3.3c0,1.5-0.8,2.7-2.3,3l2.8,4.6h-2.9l-2.3-4.3h-1.2v4.3h-2.4V123.3z
		 M133.1,127.8h1.4c0.9,0,2,0,2-1.2c0-1.1-1-1.3-1.9-1.3h-1.6V127.8z"/>
	<path class="st2" d="M139.5,123.3h2.7l2.7,7.1h0l2.7-7.1h2.6l-4.5,10.8h-1.9L139.5,123.3z"/>
	<path class="st2" d="M151.4,123.3h2.4v10.8h-2.4V123.3z"/>
	<path class="st2" d="M155.9,123.3h3.2l4.6,7.5h0v-7.5h2.4v10.8h-3.1l-4.7-7.7h0v7.7h-2.4V123.3z"/>
	<path class="st2" d="M178.2,133.4c-1.4,0.7-3,1-4.5,1c-3.4,0-5.9-2.2-5.9-5.7s2.5-5.7,5.9-5.7c1.7,0,3.2,0.4,4.3,1.4l-1.7,1.8
		c-0.6-0.7-1.4-1-2.6-1c-2,0-3.4,1.5-3.4,3.5c0,2,1.3,3.5,3.4,3.5c1,0,1.8-0.3,2.3-0.5v-1.8H174v-2.2h4.2V133.4z"/>
</g>
</svg>
