<?xml version="1.0" encoding="utf-8"?>
<!-- Generator: Adobe Illustrator 26.0.2, SVG Export Plug-In . SVG Version: 6.00 Build 0)  -->
<svg version="1.1" id="Layer_1" xmlns="http://www.w3.org/2000/svg" xmlns:xlink="http://www.w3.org/1999/xlink" x="0px" y="0px"
	 viewBox="0 0 106 78" style="enable-background:new 0 0 106 78;" xml:space="preserve">
<style type="text/css">
	.st0{opacity:0.2;}
	.st1{fill:url(#SVGID_1_);}
	.st2{fill:url(#SVGID_00000142140281453245243350000010296810597707200415_);}
	.st3{opacity:0.4;fill:url(#SVGID_00000140011788755883572320000011969286121000882817_);}
	.st4{opacity:0.2;fill:url(#SVGID_00000144312818048336973760000007531130879863887519_);}
	.st5{opacity:0.2;fill:url(#SVGID_00000155143746736304804150000002636426682641138313_);}
	.st6{fill:#91D8F2;}
	.st7{fill:#C3E8F4;}
	.st8{fill:#B4008D;}
	.st9{fill:none;stroke:#00AEEF;stroke-width:2.2;stroke-miterlimit:10;}
	.st10{fill:none;stroke:#00AEEF;stroke-width:2.2;stroke-linecap:round;stroke-miterlimit:10;}
	.st11{fill:none;stroke:#00AEEF;stroke-width:2.2;stroke-linecap:round;stroke-linejoin:round;stroke-miterlimit:10;}
	.st12{fill:#00AEEF;}
	.st13{fill:none;stroke:#CECAC8;stroke-linecap:round;}
	.st14{fill:none;stroke:#CECAC8;stroke-linecap:round;stroke-dasharray:3.0176,4.0234;}
	.st15{fill:#CECAC8;}
	.st16{fill:none;stroke:#CECAC8;stroke-linecap:round;stroke-dasharray:3,4;}
	
		.st17{fill-rule:evenodd;clip-rule:evenodd;fill:none;stroke:#00AEEF;stroke-width:2.2;stroke-linecap:round;stroke-linejoin:round;stroke-miterlimit:10;}
	.st18{fill-rule:evenodd;clip-rule:evenodd;fill:#00AEEF;}
	.st19{fill:#FFFFFF;}
	.st20{fill:none;stroke:#FFFFFF;stroke-width:2.2;stroke-linecap:round;stroke-linejoin:round;stroke-miterlimit:10;}
	
		.st21{fill-rule:evenodd;clip-rule:evenodd;fill:none;stroke:#FFFFFF;stroke-width:2.2;stroke-linecap:round;stroke-linejoin:round;stroke-miterlimit:10;}
	.st22{fill-rule:evenodd;clip-rule:evenodd;fill:#FFFFFF;}
	.st23{fill:none;stroke:#FFFFFF;stroke-width:2;stroke-linecap:round;stroke-linejoin:round;stroke-miterlimit:10;}
	.st24{fill:none;stroke:#FFFFFF;stroke-miterlimit:10;}
	.st25{fill:none;stroke:#FFFFFF;stroke-linecap:round;stroke-linejoin:round;stroke-miterlimit:10;}
	.st26{fill:none;stroke:#00AEEF;stroke-width:1.2;stroke-linecap:round;stroke-linejoin:round;stroke-miterlimit:10;}
	.st27{opacity:0.2;fill:url(#SVGID_00000121970510421007778260000013340278412234943152_);}
	.st28{opacity:0.2;fill:url(#SVGID_00000134228081220037526330000013779571896371543692_);}
	.st29{opacity:0.21;fill:url(#SVGID_00000073686812015561582730000010581888836133467289_);}
	.st30{opacity:0.2;fill:url(#SVGID_00000037664174909704294310000013405907782607403174_);}
	.st31{fill:url(#SVGID_00000183218037226925086290000011116633524539113108_);}
	.st32{fill:url(#SVGID_00000049219960487927013350000008260209621587600282_);}
	.st33{opacity:0.2;fill:url(#SVGID_00000090283587400898304710000003466635399713407381_);}
	.st34{fill:url(#SVGID_00000065042909753549350310000015029115091613703100_);}
	.st35{opacity:0.2;fill:url(#SVGID_00000109017566676360213610000013791137525270557607_);}
	.st36{fill:url(#SVGID_00000124151729522778144370000017212275241837173672_);}
	.st37{opacity:0.2;fill:url(#SVGID_00000163044171429957821260000011418547841365616544_);}
	.st38{fill:url(#SVGID_00000008838037238229937180000002523411157774126503_);}
	.st39{opacity:0.2;fill:url(#SVGID_00000064354697072878113630000008081729451730837889_);}
	.st40{fill:url(#SVGID_00000070113650232282015010000016819359114966224311_);}
	.st41{fill:url(#SVGID_00000052814325255775858120000001045623453291637377_);}
	.st42{opacity:0.2;fill:url(#SVGID_00000118394696929226715610000014898741197274897831_);}
	.st43{fill:url(#SVGID_00000165937026659141859880000005423533858093137063_);}
	.st44{fill:#36215B;}
	.st45{fill:#764199;}
	.st46{fill:none;stroke:#FFFFFF;stroke-width:1.5;stroke-linecap:round;stroke-linejoin:round;stroke-miterlimit:10;}
	.st47{opacity:0.2;fill:url(#SVGID_00000068663939960406378710000003848734673026501298_);}
	.st48{fill:url(#SVGID_00000119080787588853002570000007195195996981467583_);}
	.st49{fill:url(#SVGID_00000110470786091483141760000005309821089422007220_);}
	.st50{fill:url(#SVGID_00000025401499862323474980000003710173346549895079_);}
	.st51{fill:url(#SVGID_00000156565480505006348660000013659038420092520124_);}
	.st52{fill:url(#SVGID_00000131333677620094028760000007124242984845739455_);}
	.st53{fill:url(#SVGID_00000131338795283443151220000016644954067700527525_);}
	.st54{fill:url(#SVGID_00000047024776391585935120000001188728402839155622_);}
	.st55{fill:url(#SVGID_00000167398166834569231600000018159897188636081576_);}
	.st56{opacity:0.2;fill:url(#SVGID_00000054256575941652666920000002102608987689798566_);}
	.st57{fill:#852065;}
	.st58{fill:#037481;}
	.st59{fill:#7C9AC0;}
	.st60{fill:#FAA51D;}
	.st61{fill:#FBCD7B;}
	.st62{fill:#E07F28;}
	.st63{fill:#375D80;}
	.st64{fill:#B6CFE4;}
	.st65{fill:#3A5DAB;}
	.st66{fill:#B1C6E7;}
	.st67{fill:#1D4486;}
	.st68{fill:#2F1951;}
	.st69{fill:#53144D;}
	.st70{fill:#E0B9D7;}
	.st71{fill:#ACDADD;}
	.st72{fill:#044C4F;}
	.st73{fill:url(#SVGID_00000068653927605353128740000014257049775620564881_);}
	.st74{fill:url(#SVGID_00000163036822280521601140000000613932160192765364_);}
	.st75{fill:none;stroke:#00AEEF;stroke-width:2.5;stroke-linecap:round;stroke-linejoin:round;stroke-miterlimit:10;}
	.st76{fill:url(#SVGID_00000161630835714452794940000007438188351458574727_);}
	.st77{fill:url(#SVGID_00000154400642575117206940000004538524927292288687_);}
	.st78{fill:url(#SVGID_00000003067404728256806610000003614905458366672019_);}
	.st79{fill:url(#SVGID_00000107584892553298423620000005767450793036446885_);}
	.st80{fill:url(#SVGID_00000116198174167403072570000005674456376406656390_);}
	.st81{opacity:0.2;fill:url(#SVGID_00000093159275869194778120000003731973769135929767_);}
	.st82{opacity:0.3;fill:url(#SVGID_00000178180947578237996510000002935631644150930105_);}
	.st83{opacity:0.2;fill:url(#SVGID_00000055665415879974989760000012797268345012454577_);}
	.st84{opacity:0.3;}
	.st85{fill:url(#SVGID_00000157995854017509794490000010692057839963801492_);}
	.st86{fill:url(#SVGID_00000103245368562898919410000016839336801584742553_);}
	.st87{fill:url(#SVGID_00000155110257756250652730000014921436403671375765_);}
	.st88{fill:url(#SVGID_00000026868748383644749660000009827401528043805077_);}
	.st89{fill:url(#SVGID_00000110434151280392073530000014926322055232756121_);}
	.st90{fill:url(#SVGID_00000098939052174160361520000018221671201675447183_);}
	.st91{fill:url(#SVGID_00000111154800803230153310000004661834899493549953_);}
	.st92{fill:url(#SVGID_00000048470281510510277370000017252635900815687062_);}
	.st93{fill:url(#SVGID_00000110468211634229669320000016808932098528923819_);}
	.st94{fill:url(#SVGID_00000157300723494755659030000004373731810919818129_);}
	.st95{fill:url(#SVGID_00000158024537592261604330000017585747170330542752_);}
	.st96{fill:url(#SVGID_00000180346881009943591500000005174044759964716709_);}
	.st97{fill:url(#SVGID_00000096760678244913741020000013451612983496101046_);}
	.st98{fill:url(#SVGID_00000098202817028378329860000012719890177575247542_);}
	.st99{fill:url(#SVGID_00000131368725136095785200000015544907298651816321_);}
	.st100{fill:url(#SVGID_00000135686655776426155060000001738040559048100027_);}
	.st101{fill:url(#SVGID_00000000220355505927302800000009167282047822453422_);}
	.st102{fill:url(#SVGID_00000096781426610379699700000012685365589010444731_);}
	.st103{fill:url(#SVGID_00000036237647654990434320000015703028027967132044_);}
	.st104{fill:url(#SVGID_00000065052013762548809110000006987421718223846027_);}
	.st105{fill:url(#SVGID_00000029035602151867712600000003419717743751487630_);}
	.st106{fill:url(#SVGID_00000010275424283481815620000010567041640256242325_);}
	.st107{fill:url(#SVGID_00000124848980325945462110000017577900211388860577_);}
	.st108{opacity:0.2;fill:url(#SVGID_00000094597601718086999040000010232358076107442320_);}
	.st109{fill:url(#SVGID_00000138549059799510256340000007987186589165778602_);}
	.st110{fill:#A51D2F;}
	.st111{fill:#981A2E;}
	.st112{fill:url(#SVGID_00000021116524873422864840000013227541818946236585_);}
	.st113{fill:url(#SVGID_00000040544857605726084600000004158889432106156975_);}
	.st114{fill:url(#SVGID_00000116200880250886870270000016577424519267609225_);}
	.st115{fill:url(#SVGID_00000073689698654847336490000002685781891338816166_);}
	.st116{opacity:0.2;fill:url(#SVGID_00000136413943688933955000000001013188138382434694_);}
	.st117{opacity:0.4;fill:url(#SVGID_00000043423858615646493830000011137947537642948237_);}
	.st118{opacity:0.2;fill:url(#SVGID_00000097498779267374864780000000242516847499736459_);}
	.st119{fill:url(#SVGID_00000098215223320929007230000003723878101604258433_);}
	.st120{opacity:0.2;fill:url(#SVGID_00000137117979165444780080000014691651821405256616_);}
	.st121{fill:url(#SVGID_00000008129680341208173950000010001653020039698564_);}
</style>
<g>
	<g class="st0">
		<linearGradient id="SVGID_1_" gradientUnits="userSpaceOnUse" x1="64.4905" y1="66.7598" x2="66.4694" y2="68.6754">
			<stop  offset="0" style="stop-color:#FCB316"/>
			<stop  offset="1" style="stop-color:#F26921"/>
		</linearGradient>
		<path class="st1" d="M67.6,67.3c-1.5,0.3-3,0.5-4.4,0.7C64.7,67.8,66.1,67.6,67.6,67.3z"/>
		
			<linearGradient id="SVGID_00000003069932635377837640000014314853720773505963_" gradientUnits="userSpaceOnUse" x1="28.411" y1="14.7221" x2="93.5723" y2="77.7992">
			<stop  offset="0" style="stop-color:#FCB316"/>
			<stop  offset="1" style="stop-color:#F26921"/>
		</linearGradient>
		<path style="fill:url(#SVGID_00000003069932635377837640000014314853720773505963_);" d="M96.7,49.8L96.7,49.8
			c0.9-0.5,1.6-1.5,1.6-2.6c0-1.1-0.7-2.1-1.6-2.6c-0.1-0.1-0.2-0.2-0.2-0.4l-0.2-11.1c0,0,0-0.1,0-0.1h0c1.8-0.7,1.8-3.2,0-3.9
			L55.1,13.9c-1-0.4-2-0.4-3,0l-41,14.9c-1.8,0.7-1.8,3.2,0,3.9l12.5,4.6c0.2,0.1,0.3,0.2,0.3,0.4v23c0,1.1,0.7,2.2,1.8,2.6
			c5.6,2.1,23.8,8,44.2,3.6c-0.8,0.2-1.5,0.3-2.3,0.4c1.5-0.3,3-0.6,4.5-1c2.3-0.6,4.6-1.3,6.9-2.1c0.8-0.3,1.5-0.6,2.3-0.9
			c0.1-0.1,0.3-0.1,0.4-0.2c0.8-0.5,1.3-1.4,1.3-2.3V38c0-0.2,0.1-0.3,0.3-0.4l9.2-3.3c0.1,0,0.1,0,0.2,0l0.5,0
			c0.2,0,0.4,0.2,0.4,0.4l0.2,9.7c0,0.1-0.1,0.3-0.2,0.3c-0.7,0.5-1.2,1.4-1.2,2.4c0,1.1,0.6,2,1.4,2.5c0.2,0.1,0.2,0.3,0.2,0.5
			c-0.6,1.7-1.2,3.6-1.7,5.5c-1.2,4.3-1.9,8.5-1.7,10.3c0,0.5,0.3,0.9,0.7,1.2c0.6,0.5,1.3,0.9,3.2,1c0.3,0,0.6,0,0.9,0
			c1.4,0,2.3-0.1,2.9-0.4l0,0c0.5-0.2,0.9-0.4,1.2-0.7c0.4-0.3,0.6-0.7,0.7-1.2C100.3,63.3,98.9,55.4,96.7,49.8z"/>
	</g>
	
		<linearGradient id="SVGID_00000080927465523675299980000000442276178157363586_" gradientUnits="userSpaceOnUse" x1="18.703" y1="16.7961" x2="96.9174" y2="68.5333">
		<stop  offset="0" style="stop-color:#FCB316"/>
		<stop  offset="1" style="stop-color:#F26921"/>
	</linearGradient>
	<path style="fill:url(#SVGID_00000080927465523675299980000000442276178157363586_);" d="M51.6,46.8c0.6,0,1.2-0.1,1.8-0.3
		l38.1-13.9l0.2,5.1c0,0.7,0.6,1.3,1.3,1.3c0,0,0,0,0,0c0.7,0,1.3-0.6,1.3-1.4l-0.2-5.9l1.4-0.5c1.2-0.4,2-1.5,2-2.8
		c0-1.3-0.8-2.4-2-2.8L53.3,9.9c-1.2-0.4-2.5-0.4-3.6,0L7.5,25.2c-1.2,0.4-2,1.5-2,2.8c0,1.3,0.8,2.4,2,2.8l42.3,15.6
		C50.3,46.6,51,46.8,51.6,46.8z M8.2,28c0-0.2,0.1-0.3,0.2-0.3l42.2-15.3c0.3-0.1,0.6-0.2,0.9-0.2c0.3,0,0.6,0.1,0.9,0.2l42.3,15.6
		c0.2,0.1,0.2,0.2,0.2,0.3c0,0.2-0.1,0.3-0.2,0.3l-1.4,0.5c-0.1,0-0.2-0.1-0.4-0.1l-41-2.9c-0.7,0-1.4,0.5-1.4,1.2
		c-0.1,0.7,0.5,1.4,1.2,1.4l35.7,2.5L52.5,43.9c-0.6,0.2-1.2,0.2-1.8,0L8.4,28.3C8.2,28.3,8.2,28.2,8.2,28z M96.2,47.5
		c0.8-0.8,1.3-1.9,1.3-3.1c0-2.4-1.9-4.3-4.3-4.3s-4.3,1.9-4.3,4.3c0,1.3,0.5,2.4,1.4,3.2c-2,5.5-3.5,12.9-3.3,15.7
		c0.1,0.8,0.5,1.5,1.2,2.1c1,0.9,2.2,1.4,4.9,1.4c2.7,0,3.9-0.5,4.9-1.4c0.7-0.5,1.1-1.3,1.2-2.1C99.5,60.6,98.2,53.2,96.2,47.5z
		 M93.2,42.8c0.9,0,1.6,0.7,1.6,1.6S94.1,46,93.2,46c-0.2,0-0.4,0-0.6-0.1c-0.1,0-0.1-0.1-0.2-0.1c0,0-0.1,0-0.1,0
		c-0.5-0.3-0.8-0.8-0.8-1.4C91.6,43.5,92.3,42.8,93.2,42.8z M96.6,63c0,0.1-0.1,0.2-0.2,0.3C96,63.6,95.5,64,93.2,64
		c-2.3,0-2.8-0.4-3.3-0.8c-0.1-0.1-0.2-0.2-0.2-0.3c-0.2-2.1,1.2-9,3.1-14.3c0.1,0,0.3,0,0.4,0c0.2,0,0.4,0,0.6,0
		C95.7,54.1,96.8,60.9,96.6,63z M82.3,39.6v18.7c0,1.5-0.9,2.8-2.3,3.4c-9.6,4-19.1,5.4-27.6,5.4c-14,0-25.3-3.7-29.7-5.4
		c-1.4-0.5-2.3-1.9-2.3-3.4V39.6c0-0.7,0.6-1.3,1.3-1.3c0.7,0,1.3,0.6,1.3,1.3v18.6c0,0.4,0.3,0.8,0.6,0.9c6.8,2.6,30.8,10.3,55.3,0
		c0.4-0.2,0.6-0.5,0.6-0.9V39.6c0-0.7,0.6-1.3,1.3-1.3S82.3,38.9,82.3,39.6z"/>
</g>
</svg>
