<?xml version="1.0" encoding="utf-8"?>
<!-- Generator: Adobe Illustrator 26.0.2, SVG Export Plug-In . SVG Version: 6.00 Build 0)  -->
<svg version="1.1" id="Layer_1" xmlns="http://www.w3.org/2000/svg" xmlns:xlink="http://www.w3.org/1999/xlink" x="0px" y="0px"
	 viewBox="0 0 106 78" style="enable-background:new 0 0 106 78;" xml:space="preserve">
<style type="text/css">
	.st0{opacity:0.2;}
	.st1{fill:url(#SVGID_1_);}
	.st2{fill:url(#SVGID_00000157295750901503384760000010768126924642821779_);}
	.st3{opacity:0.4;fill:url(#SVGID_00000090282793131951117320000017542184752115054508_);}
	.st4{opacity:0.2;fill:url(#SVGID_00000178905703600145774490000017794310120876800184_);}
	.st5{opacity:0.2;fill:url(#SVGID_00000096749320633235500590000006302203232864900783_);}
	.st6{fill:#91D8F2;}
	.st7{fill:#C3E8F4;}
	.st8{fill:#B4008D;}
	.st9{fill:none;stroke:#00AEEF;stroke-width:2.2;stroke-miterlimit:10;}
	.st10{fill:none;stroke:#00AEEF;stroke-width:2.2;stroke-linecap:round;stroke-miterlimit:10;}
	.st11{fill:none;stroke:#00AEEF;stroke-width:2.2;stroke-linecap:round;stroke-linejoin:round;stroke-miterlimit:10;}
	.st12{fill:#00AEEF;}
	.st13{fill:none;stroke:#CECAC8;stroke-linecap:round;}
	.st14{fill:none;stroke:#CECAC8;stroke-linecap:round;stroke-dasharray:3.0176,4.0234;}
	.st15{fill:#CECAC8;}
	.st16{fill:none;stroke:#CECAC8;stroke-linecap:round;stroke-dasharray:3,4;}
	
		.st17{fill-rule:evenodd;clip-rule:evenodd;fill:none;stroke:#00AEEF;stroke-width:2.2;stroke-linecap:round;stroke-linejoin:round;stroke-miterlimit:10;}
	.st18{fill-rule:evenodd;clip-rule:evenodd;fill:#00AEEF;}
	.st19{fill:#FFFFFF;}
	.st20{fill:none;stroke:#FFFFFF;stroke-width:2.2;stroke-linecap:round;stroke-linejoin:round;stroke-miterlimit:10;}
	
		.st21{fill-rule:evenodd;clip-rule:evenodd;fill:none;stroke:#FFFFFF;stroke-width:2.2;stroke-linecap:round;stroke-linejoin:round;stroke-miterlimit:10;}
	.st22{fill-rule:evenodd;clip-rule:evenodd;fill:#FFFFFF;}
	.st23{fill:none;stroke:#FFFFFF;stroke-width:2;stroke-linecap:round;stroke-linejoin:round;stroke-miterlimit:10;}
	.st24{fill:none;stroke:#FFFFFF;stroke-miterlimit:10;}
	.st25{fill:none;stroke:#FFFFFF;stroke-linecap:round;stroke-linejoin:round;stroke-miterlimit:10;}
	.st26{fill:none;stroke:#00AEEF;stroke-width:1.2;stroke-linecap:round;stroke-linejoin:round;stroke-miterlimit:10;}
	.st27{opacity:0.2;fill:url(#SVGID_00000060718502514465432970000009658604859977048485_);}
	.st28{opacity:0.2;fill:url(#SVGID_00000093151817063862952670000005872929939996067748_);}
	.st29{opacity:0.21;fill:url(#SVGID_00000114757084505136577540000014286632580479251633_);}
	.st30{opacity:0.2;fill:url(#SVGID_00000093882462174669408410000016286910765552768897_);}
	.st31{fill:url(#SVGID_00000100371986820169485600000009411261107387122096_);}
	.st32{fill:url(#SVGID_00000008830849676361073240000014764617004275383212_);}
	.st33{opacity:0.2;fill:url(#SVGID_00000153694518827791512960000002623087420879127736_);}
	.st34{fill:url(#SVGID_00000073718256806073559630000013429061646531472039_);}
	.st35{opacity:0.2;fill:url(#SVGID_00000103252261713433318140000011570385579890530692_);}
	.st36{fill:url(#SVGID_00000055689280878651450300000003494512924085735612_);}
	.st37{opacity:0.2;fill:url(#SVGID_00000011723174365887053060000010317245070497486994_);}
	.st38{fill:url(#SVGID_00000159443643390615290020000009305130253253780374_);}
	.st39{opacity:0.2;fill:url(#SVGID_00000130618988216448095960000002551115467239798163_);}
	.st40{fill:url(#SVGID_00000011024577269186188020000001780686857293869216_);}
	.st41{fill:url(#SVGID_00000114764496151130313110000005053961717702843059_);}
	.st42{opacity:0.2;fill:url(#SVGID_00000081620786492187740590000000812180703688729772_);}
	.st43{fill:url(#SVGID_00000018197837472730052210000018408484587974387852_);}
	.st44{fill:#36215B;}
	.st45{fill:#764199;}
	.st46{fill:none;stroke:#FFFFFF;stroke-width:1.5;stroke-linecap:round;stroke-linejoin:round;stroke-miterlimit:10;}
	.st47{opacity:0.2;fill:url(#SVGID_00000103951711676611732480000003064449011831888260_);}
	.st48{fill:url(#SVGID_00000180351911392503484800000015119579624706600579_);}
	.st49{fill:url(#SVGID_00000098931619741120807580000005168743409682644373_);}
	.st50{fill:url(#SVGID_00000084524953592209848340000000503631080526701964_);}
	.st51{fill:url(#SVGID_00000149353912207027004630000013328337489838477488_);}
	.st52{fill:url(#SVGID_00000038383964024326621350000009803913208729159859_);}
	.st53{fill:url(#SVGID_00000070100755492929402420000014751386186582133904_);}
	.st54{fill:url(#SVGID_00000147216426632549043390000006170329215775540661_);}
	.st55{fill:url(#SVGID_00000113350012038660788290000018289785500168472474_);}
	.st56{opacity:0.2;fill:url(#SVGID_00000061469308306241646660000012479594764329226155_);}
	.st57{fill:#852065;}
	.st58{fill:#037481;}
	.st59{fill:#7C9AC0;}
	.st60{fill:#FAA51D;}
	.st61{fill:#FBCD7B;}
	.st62{fill:#E07F28;}
	.st63{fill:#375D80;}
	.st64{fill:#B6CFE4;}
	.st65{fill:#3A5DAB;}
	.st66{fill:#B1C6E7;}
	.st67{fill:#1D4486;}
	.st68{fill:#2F1951;}
	.st69{fill:#53144D;}
	.st70{fill:#E0B9D7;}
	.st71{fill:#ACDADD;}
	.st72{fill:#044C4F;}
	.st73{fill:url(#SVGID_00000075849541167132230330000014911800056774668961_);}
	.st74{fill:url(#SVGID_00000008130018203559466820000008297635907072019367_);}
	.st75{fill:none;stroke:#00AEEF;stroke-width:2.5;stroke-linecap:round;stroke-linejoin:round;stroke-miterlimit:10;}
	.st76{fill:url(#SVGID_00000037656087409307675500000004500330025635677058_);}
	.st77{fill:url(#SVGID_00000062901653969376937380000000806566168737120182_);}
	.st78{fill:url(#SVGID_00000022528819696221398130000011010044749925503643_);}
	.st79{fill:url(#SVGID_00000178895687828477409420000010539455218478796198_);}
	.st80{fill:url(#SVGID_00000097488416117304300860000001308260011804828071_);}
	.st81{opacity:0.2;fill:url(#SVGID_00000034075327250082369170000011028178889095288742_);}
	.st82{opacity:0.3;fill:url(#SVGID_00000047035742806543779840000012055177816468559266_);}
	.st83{opacity:0.2;fill:url(#SVGID_00000029046117122217991030000006329350993719381387_);}
	.st84{opacity:0.3;}
	.st85{fill:url(#SVGID_00000086656765411461927200000008178976178107753396_);}
	.st86{fill:url(#SVGID_00000121980076808988232950000004540556997856294293_);}
	.st87{fill:url(#SVGID_00000085954029087348139180000001930842743216627854_);}
	.st88{fill:url(#SVGID_00000038403913646565928850000012411251071168814510_);}
	.st89{fill:url(#SVGID_00000145032028166367751570000015633996438379433111_);}
	.st90{fill:url(#SVGID_00000035518583580798348760000016444006962654603937_);}
	.st91{fill:url(#SVGID_00000070101450512433970560000007795551105581370284_);}
	.st92{fill:url(#SVGID_00000085221245259099782500000004830471971658014143_);}
	.st93{fill:url(#SVGID_00000051348668542309690030000011972095572712031157_);}
	.st94{fill:url(#SVGID_00000120559339722411079570000005149583239824381612_);}
	.st95{fill:url(#SVGID_00000063591652394228652150000010081600084694626714_);}
	.st96{fill:url(#SVGID_00000119096225678198936590000016361406768361479597_);}
	.st97{fill:url(#SVGID_00000080904049249389407780000003905045816990733741_);}
	.st98{fill:url(#SVGID_00000017479261321142718100000002619243894816506243_);}
	.st99{fill:url(#SVGID_00000012457379655122692570000010035907716131888828_);}
	.st100{fill:url(#SVGID_00000000939050573453822620000001775476951141585058_);}
	.st101{fill:url(#SVGID_00000057118728556441869190000007693202087252275077_);}
	.st102{fill:url(#SVGID_00000044898430998354147240000017048183088994624641_);}
	.st103{fill:url(#SVGID_00000070814909917930046670000010329231837835451821_);}
	.st104{fill:url(#SVGID_00000125601990111799521320000011046669480382920349_);}
	.st105{fill:url(#SVGID_00000057129583478187570680000000481493277066240142_);}
	.st106{fill:url(#SVGID_00000124119538193643017690000016121199404381627536_);}
	.st107{fill:url(#SVGID_00000065051567369132045460000017150983434785014451_);}
	.st108{opacity:0.2;fill:url(#SVGID_00000109024763345170878930000018176490049113889154_);}
	.st109{fill:url(#SVGID_00000153704049040735468870000014966200705412337055_);}
	.st110{fill:#A51D2F;}
	.st111{fill:#981A2E;}
	.st112{fill:url(#SVGID_00000080183552005657961270000004988286479661660586_);}
	.st113{fill:url(#SVGID_00000167385945850466867880000000479121535498195127_);}
	.st114{fill:url(#SVGID_00000082353770420755628610000012881030856402426504_);}
	.st115{fill:url(#SVGID_00000045585070074686390450000017953851513482669973_);}
	.st116{opacity:0.2;fill:url(#SVGID_00000176027756436890411170000004938212403882716347_);}
	.st117{opacity:0.4;fill:url(#SVGID_00000169531079069546265770000013143477069000979365_);}
	.st118{opacity:0.2;fill:url(#SVGID_00000010308706056636349620000008207632431125444261_);}
	.st119{fill:url(#SVGID_00000000221996216126685400000000333626399919928205_);}
	.st120{opacity:0.2;fill:url(#SVGID_00000106849552870248859620000010777908530369327517_);}
	.st121{fill:url(#SVGID_00000052083667802749217690000014516168531654002326_);}
</style>
<g>
	<linearGradient id="SVGID_1_" gradientUnits="userSpaceOnUse" x1="44.9363" y1="29.2093" x2="69.9023" y2="45.4224">
		<stop  offset="0" style="stop-color:#ED1065"/>
		<stop  offset="0.9994" style="stop-color:#BE1A8D"/>
	</linearGradient>
	<path style="opacity:0.4;fill:url(#SVGID_1_);" d="M86.8,17.3L35.4,44l3.8,20.4c0.2,0.9,1.1,1.3,1.9,0.9l14.3-8.7l0-0.1L45.4,50
		l42.4-32C87.6,17.5,87.2,17.3,86.8,17.3z"/>
	
		<linearGradient id="SVGID_00000020378393063068704690000012376975631540450976_" gradientUnits="userSpaceOnUse" x1="32.199" y1="12.5955" x2="83.3586" y2="45.8189">
		<stop  offset="0" style="stop-color:#ED1065"/>
		<stop  offset="0.9994" style="stop-color:#BE1A8D"/>
	</linearGradient>
	<path style="opacity:0.2;fill:url(#SVGID_00000020378393063068704690000012376975631540450976_);" d="M35.4,44l-16.3-9.1
		c-0.9-0.5-0.7-1.8,0.3-2l67.2-15.6c0.1,0,0.2,0,0.3,0L35.4,44z M45.4,50l9.9,6.5l0,0.1l0.1-0.1l14,8.9c0.6,0.4,1.3,0.1,1.6-0.5
		l16.8-46.1c0.1-0.3,0.1-0.5,0-0.8L45.4,50z"/>
	
		<linearGradient id="SVGID_00000085945093543683928330000008355308554587354553_" gradientUnits="userSpaceOnUse" x1="35.8773" y1="23.1709" x2="78.9879" y2="51.1673">
		<stop  offset="0" style="stop-color:#ED1065"/>
		<stop  offset="0.9994" style="stop-color:#BE1A8D"/>
	</linearGradient>
	<path style="fill:url(#SVGID_00000085945093543683928330000008355308554587354553_);" d="M87.7,15.5C87.7,15.5,87.7,15.5,87.7,15.5
		c0-0.1,0-0.1,0-0.1c0-0.1,0-0.1,0-0.2c0,0,0-0.1,0-0.1c0,0,0,0,0,0c0,0,0-0.1-0.1-0.1c0,0,0,0,0,0c0,0,0-0.1,0-0.1c0,0,0,0,0,0
		c0,0,0-0.1-0.1-0.1c0,0-0.1-0.1-0.1-0.1c0,0-0.1-0.1-0.1-0.1c0,0,0,0,0,0c0,0,0,0,0,0c0,0,0,0-0.1,0c0,0-0.1-0.1-0.1-0.1
		c0,0-0.1-0.1-0.1-0.1c0,0-0.1,0-0.1,0c0,0-0.1,0-0.1,0c-0.1,0-0.1,0-0.2,0c0,0-0.1,0-0.1,0c0,0-0.1,0-0.1,0L14.4,31
		c-0.5,0.1-0.9,0.5-1,1c-0.1,0.5,0.2,1,0.6,1.3l18.2,10.1l4,21.6c0,0,0,0,0,0c0,0.1,0,0.1,0.1,0.2c0,0,0,0.1,0.1,0.1
		c0,0.1,0.1,0.1,0.1,0.2c0,0,0.1,0.1,0.1,0.1c0,0,0,0,0,0c0,0,0.1,0,0.1,0.1c0.1,0,0.1,0.1,0.2,0.1c0.1,0,0.1,0,0.2,0
		c0.1,0,0.1,0,0.2,0c0,0,0.1,0,0.1,0c0,0,0,0,0,0h0c0,0,0,0,0,0c0,0,0,0,0,0c0.1,0,0.2,0,0.4-0.1c0,0,0.1,0,0.1-0.1
		c0.1,0,0.1,0,0.2-0.1l15.3-9.3l14.5,9.2c0.2,0.1,0.4,0.2,0.7,0.2c0.1,0,0.3,0,0.4-0.1c0.4-0.1,0.6-0.4,0.8-0.8l17.9-49.2
		c0,0,0-0.1,0-0.1c0-0.1,0-0.1,0-0.2C87.7,15.6,87.7,15.5,87.7,15.5z M42.4,47.7c0,0-0.1,0.1-0.1,0.1c0,0,0,0-0.1,0.1c0,0,0,0,0,0
		c0,0,0,0.1-0.1,0.1c0,0,0,0.1-0.1,0.1c0,0,0,0,0,0.1L37.9,60l-3.1-16.7l24.9-12.7l15.1-7.7L42.4,47.7
		C42.4,47.6,42.4,47.6,42.4,47.7z M76.8,19L40,37.8l-6.6,3.4l-15.3-8.5L76.8,19z M39.8,61.9l4-11.4l7.2,4.6L39.8,61.9z M67.9,62.8
		L54.1,54c0,0,0,0,0,0l-8.7-5.5l14-10.7l24.4-18.7L67.9,62.8z"/>
</g>
</svg>
