<?xml version="1.0" encoding="utf-8"?>
<!-- Generator: Adobe Illustrator 27.0.1, SVG Export Plug-In . SVG Version: 6.00 Build 0)  -->
<svg version="1.1" id="Layer_1" xmlns="http://www.w3.org/2000/svg" xmlns:xlink="http://www.w3.org/1999/xlink" x="0px" y="0px"
	 viewBox="0 0 2000 1560" style="enable-background:new 0 0 2000 1560;" xml:space="preserve">
<style type="text/css">
	.st0{opacity:0.2;fill:#FFFFFF;enable-background:new    ;}
</style>
<path class="st0" d="M1240,1444.2c-2.3-3.9-5.6-6.3-9.7-7.1c-0.8-0.1-1.5-0.2-2.3-0.3c2-1.5,3.9-3,5-3.8c2.2-1.7,3.7-4.9,4-8.4
	c0.3-4.2-1.1-8.2-4-11.3c-0.7-0.7-1.4-1.4-2.1-2c-2.4-2-5.4-3.1-8.5-3.1c0.5-1,0.9-2,1.1-3c0.5-2.7,0.3-7-3.2-11.7s-7.5-6.6-11-7
	c3-2.5,6.3-6.3,6.8-10.9c0.4-3.3-0.8-6.5-3.3-9.6c-3.5-4.2-7.7-6.5-12.5-6.9c-6.2-0.5-11.1,2.6-11.9,3.3c-0.2,0.2-1,0.8-2.3,1.8
	c-2.9-2.3-10.1-7.4-17.2-7c-6.2,0.5-10.4,4.8-12.3,7c-0.7-1.1-1.4-1.9-1.8-2.3c-3.8-3.6-10-3.5-15.7,0.1c-4.1,2.6-5.9,5.6-5.7,9.5
	c-5.8-3.2-12-2.5-17.8,2.1c-2.4,1.9-3.7,4.3-4,7.2c-0.2,1.5,0,3.1,0.4,4.7c-3.3-0.9-7.2-0.2-10.5,2c-3.9,2.7-9.9,9-7,15.8
	c0.2,0.5,0.5,1.1,1,1.8c-2.6-0.6-5.7-0.1-8.9,2.6c-2.9,2.5-6.3,10.3-2.2,15.6c2.2,2.8,8.3,10.1,13.5,15.9c-1.2,4.6-2.1,8.7-2.5,12.2
	c-1.1,8.9-13.2,18-13.3,18.1c-0.9,0.7-1.1,2-0.4,2.9c0.4,0.5,1,0.8,1.7,0.8c0.4,0,0.8-0.1,1.2-0.4c0.6-0.4,13.7-10.2,15-20.9
	c0.3-2.7,0.9-5.8,1.7-9.1c1,1,1.8,1.9,2.6,2.6c2.9,2.8,6,3.9,8.9,3.9c3.2,0,6.1-1.3,8.3-3.3c3.2-2.9,3.8-6.4,3.5-9.3
	c0.9,0.3,1.9,0.4,2.8,0.4c4.4,0,8.4-2.7,10.3-4.8c0.2-0.2,3.6-4,4.1-8.4c1.6,0.7,3.1,1.1,4.7,1.3c0.3,0,0.7,0,1,0
	c3.2,0,6.2-1.2,8.5-3.5c0.1,0,4.4-3.4,3.6-9.8c1.9,1,3.9,1.6,5.8,1.6c1.5,0,2.9-0.3,4.2-1c4.2-2.2,7.4-8.4,3.6-19.2
	c-0.6-1.8-3-6.5-5.9-11.8c0.7,0.9,2,1,2.8,0.3c2.1-1.6,20.2-15.5,21.2-16.4c0.1-0.1,10-7.1,18.6,3.1c1.8,2.2,2.6,4.3,2.4,6.5
	c-0.4,3.7-3.5,6.8-6.1,8.8l-20.6,16.1c-0.9,0.7-1.1,2-0.4,2.9s2,1.1,2.9,0.4c7.2-5.4,15.4-11.5,16.4-12.1c0.7-0.4,7-3.1,12.9,4.7
	c2.1,2.8,3,5.7,2.5,8.5c-0.3,1.6-1.3,3.2-2.9,4.4l-2.4,1.8c-0.2,0.2-0.5,0.3-0.7,0.5l-12.2,9.2c-0.9,0.7-1.1,2-0.4,2.9
	s2,1.1,2.9,0.4l12.8-9.6c3.7-2.4,8.5-2.2,11.7,0.5c0.6,0.5,1.2,1.1,1.7,1.7c2.8,3,3,6.4,2.9,8.2c-0.2,2.3-1.1,4.4-2.4,5.4
	c-3.2,2.5-12.1,9.2-14.3,10.9c-0.2,0.1-0.4,0.3-0.5,0.4c-0.9,0.7-1,2-0.4,2.9c0.7,0.9,2,1.1,2.9,0.4c0,0,0.2-0.1,0.5-0.4
	c2.6-1.9,6.8-3.6,10.9-2.8c2.9,0.6,5.2,2.3,6.9,5.1c4.2,7.1,0.7,14-31.3,37.9c-31.2,23.3-52.9,25.8-61.1,26.8
	c-11.2,1.3-18,11.5-18.3,11.9c-0.6,0.9-0.4,2.2,0.6,2.8c0.3,0.2,0.7,0.3,1.1,0.3c0.7,0,1.3-0.3,1.7-0.9c0.1-0.1,6.1-9,15.4-10.1
	c4.4-0.5,12.7-1.5,24.2-5.7c3.6,1.9,11.6,6.5,14.2,10.3c0.4,0.6,1,0.9,1.7,0.9c0.4,0,0.8-0.1,1.2-0.4c0.9-0.6,1.2-1.9,0.5-2.9
	c-2.6-3.7-8.6-7.6-12.6-9.9c9.6-4,20.9-10.2,33.9-19.9c6.7-5,12.4-9.4,17.1-13.4c0.4,3.1,1.6,7.4,5.2,11.6c0.4,0.5,1,0.7,1.6,0.7
	c0.5,0,0.9-0.2,1.3-0.5c0.9-0.7,1-2,0.2-2.9c-4.5-5.3-4.5-10.6-4.4-12.3C1241.4,1459.4,1244.7,1452.1,1240,1444.2z M1118,1443
	c-2.6,2.4-7.2,3.7-11.6-0.5c-5-4.8-15.9-17.7-19-21.6c-2.5-3.2-0.1-8.6,1.6-10c4.2-3.6,7.4-1.5,10.9,1.5c0.3,0.3,0.6,0.5,0.9,0.7
	c5.7,7.4,13.6,16.6,18.5,20.9C1119.9,1435.1,1121.9,1439.5,1118,1443z M1134.5,1429.6c-0.6,0.7-6.4,6.4-12.2,1.5
	c-7.5-6.3-22.5-25.2-24.2-29.4c-2.3-5.4,5.5-10.7,5.6-10.8c3.4-2.3,7.8-2.2,9.9,0.2c0.1,0.1,0.2,0.2,0.4,0.3
	c3.1,6.5,8.6,13.3,13.1,18.7c1.3,1.6,2.5,3.1,3.5,4.4c2.2,2.8,4.4,5.1,6.7,6.8C1138.4,1424.3,1135.6,1428.3,1134.5,1429.6z
	 M1153.1,1418.7c-1.9,1.8-4.1,2.7-6.5,2.5c-4.1-0.3-8.5-3.5-12.8-9.1c-1-1.3-2.2-2.8-3.6-4.5c-6.1-7.6-15.4-19-14.6-26.3
	c0.2-1.8,1-3.2,2.5-4.4c4-3.2,10.3-5.6,17.2,1.2c4.5,9.8,13.3,22.2,17.2,27.5l0,0C1158.3,1414.2,1153.8,1418.1,1153.1,1418.7z
	 M1167.4,1408.9c-2.7,1.4-7.5,0.2-11.7-5.7l0,0l0,0l0,0c-3.8-5.3-12.6-17.8-17-27.3c-2.7-5.9-1.4-8,2.4-10.4
	c2.2-1.4,4.5-2.1,6.5-2.1c1.7,0,3.2,0.5,4.2,1.5c2.8,2.6,15.5,25.2,17.1,29.8C1171.4,1401.6,1170.8,1407.2,1167.4,1408.9z
	 M1167.2,1378.6c-0.8,0.6-1,1.6-0.6,2.5c-2.5-4.6-5.4-9.5-7.7-13.2l0.1-0.1c0-0.1,4-6,10.1-6.5c5.1-0.5,10.7,3.3,13.6,5.5
	C1178.2,1370.2,1172,1375,1167.2,1378.6z M1665.3,830c-1-2.6-2.9-4.4-5.5-5.5c-6.4-2.6-11.7-2-15,1.6c-1.7-3.2-4.9-4.8-9.1-6.1
	c-6.2-1.8-11.8-0.2-14.3,4c-1.8,3-4.4,12.7-5.3,16.5c-4.6,0.5-7.7,3.3-9,5.3l-0.4,0.6c-10.3,16.4-15.8,27-16.2,31.6
	c-0.7,7.3,10.6,37.6,18.4,47.2c6.8,8.3,3.8,27.1,3.8,27.3c-0.2,1.1,0.6,2.2,1.7,2.4c0.1,0,0.2,0,0.3,0c1,0,1.9-0.7,2-1.7
	c0.1-0.8,3.3-20.8-4.7-30.6c-7.5-9.1-18-38.4-17.5-44.2c0.2-1.8,2-8.3,15.6-29.8l0.4-0.6c1.2-1.9,5.1-5,11.3-2.7
	c7.1,2.6,21.1,6.4,24.1,7.2c0.3,0.1,1,0.7,1.3,1.8c0.3,1.5-0.4,3.1-2.1,4.5c-5.7,4.8-13.6,5-23.4,0.7c-1-0.5-2.3,0-2.7,1
	c-0.5,1,0,2.3,1,2.7c2.4,1.1,4.7,1.9,6.8,2.4l-5.6,15.9c-0.4,1.1,0.2,2.2,1.3,2.6c0.2,0.1,0.5,0.1,0.7,0.1c0.8,0,1.6-0.5,1.9-1.4
	l1.6-4.7c5.9,3.2,23.1,15.1,15.3,44.9c-0.3,1.1,0.4,2.2,1.5,2.5c0.2,0,0.4,0.1,0.5,0.1c0.9,0,1.7-0.6,2-1.5
	c8.7-32.9-11.6-46.5-17.9-49.8l1.9-5.5c0.1,0.9,0.4,1.9,0.9,2.8c1.3,2.6,3.8,4.5,7.2,5.6c2,0.7,3.8,1,5.5,1c2,0,3.8-0.5,5.5-1.6
	c1.6,3.8,5.6,6.3,5.8,6.4c1.7,1,4.5,2.1,7.5,2.1c1.8,0,3.7-0.4,5.4-1.4c0.5,2.7,2,5.6,5.6,7.4c1.7,0.8,3.5,1.3,5.4,1.3
	c3.7,0,7.5-1.8,10.1-6.3c1.8-3,4.5-8.6,6.9-13.9c4,35-9.5,60.1-14.9,63.6c-7.6,4.9-5.6,16.8-5.5,17.3c0.2,1,1,1.7,2,1.7
	c0.1,0,0.2,0,0.4,0c1.1-0.2,1.9-1.3,1.7-2.4c0-0.1-1.6-9.7,3.7-13.1c7.1-4.6,22.5-34.3,15.8-73.9c0.7-1.7,1.4-3.1,1.7-4.1
	c2.4-5.9-2.7-12.2-6-13.7c-3.5-1.6-6.3-1.3-8.6-0.2c0.2-0.6,0.3-1.2,0.3-1.6c0.8-6.9-6.2-11.1-10.5-12.5c-3.5-1.2-7.1-0.8-9.9,0.8
	C1666,832.7,1665.8,831.3,1665.3,830z M1620.2,840.7c1.4-5.4,3.5-12.5,4.7-14.5c1.5-2.6,5.3-3.4,9.7-2.2c5.1,1.5,6.9,3.1,7.4,6.8
	c-2.6,6-4.2,11.9-5,15c-4.8-1.4-10.3-3-13.9-4.3C1622.1,841.2,1621.1,840.9,1620.2,840.7z M1639.3,873.5c-5-1.6-5.6-4.8-5.5-6.8
	c6.3,0.1,10.8-2.2,13.8-4.7c2.9-2.4,4.1-5.5,3.4-8.5c-0.5-2.4-2.2-4.3-4.2-4.8c-0.9-0.2-3.1-0.8-6-1.6c0.8-3.2,2.6-10.1,5.6-16.4
	c2.4-4.9,7.6-4,11.6-2.3c1.6,0.7,2.7,1.7,3.3,3.3c2.6,6.3-2.9,18.9-6.4,27.3c-0.8,1.8-1.5,3.5-2.1,4.9
	C1648.3,875.5,1644.7,875.3,1639.3,873.5z M1683.7,855.6c2.4-3.5,4.7-6.2,9.3-4.1c1.8,0.8,5.3,5.1,3.9,8.4
	c-1.8,4.4-8.3,18.8-11.6,24.3c-2.8,4.8-7.2,4.8-10.2,3.4c-4.3-2.1-3.6-6.5-3.4-7.6c3.4-5.1,8.1-15.4,11.3-23.5
	C1683.3,856.2,1683.5,855.9,1683.7,855.6z M1674.7,837.3c0.1,0,8.3,2.8,7.7,8.1c-0.5,4.2-9.1,25-14.2,32.6
	c-3.9,5.8-10.5,2.1-11.2,1.7c-1.3-0.8-4.6-3.5-4.5-6.3c1.5-2,2.9-4.7,4.3-8.1c0.6-1.4,1.3-3.1,2-4.8c2.6-6.1,5.8-13.5,6.9-20.2
	c0.1-0.1,0.2-0.2,0.3-0.3C1667.3,837.3,1671.1,836.1,1674.7,837.3z M1937,1068.1l-45-144V924c-0.3-0.8-1-1.3-1.8-1.3l-39.4-3.4
	c-0.3,0-0.6,0-0.9,0.1c-0.1,0-0.2,0.1-0.3,0.1c-0.2,0.1-0.3,0.2-0.5,0.4l-0.1,0.1c0,0,0,0.1-0.1,0.2c0,0.1-0.1,0.1-0.2,0.2
	l-71.1,136.1c-3.4,5.7-5,9.6-5.1,9.7c-0.1,0.2-0.1,0.5-0.1,0.7c0,0,0,0,0,0.1c0,0.3,0.1,0.6,0.2,0.9v0.1c0,0.1,0.1,0.1,0.1,0.1
	c0.1,0.2,0.3,0.3,0.4,0.5c0.1,0.1,0.2,0.1,0.3,0.2c0.1,0,0.1,0.1,0.2,0.1c0.1,0.1,0.3,0,0.4,0.1c0.1,0,0.1,0.1,0.2,0.1l41.1,3.6l0,0
	l0,0c0.3,0,0.5,0,0.7-0.1c0,0,0,0,0.1,0c0.2-0.1,0.4-0.2,0.6-0.3c0.1,0,0.1-0.1,0.1-0.1c0.1-0.1,0.2-0.3,0.3-0.4l0.1-0.1l1.2-2.3
	c3.1-5.3,13.7-18.7,40.3-16.4c25.1,2.2,33.3,15.4,35.8,21.7l1.1,3.7l0.1,0.1c0.1,0.3,0.3,0.7,0.6,0.9c0,0,0,0,0.1,0
	c0.3,0.2,0.6,0.3,0.9,0.4c0,0,0.1,0,0.1,0.1l41.3,3.6c0.1,0,0.1,0,0.2,0l0,0l0,0l0,0l0,0c0.1,0,0.2,0,0.4,0c0.1,0,0.2-0.1,0.3-0.1
	c0.1,0,0.2-0.1,0.3-0.1c0.2-0.1,0.3-0.2,0.4-0.3c0.1-0.1,0.1-0.1,0.2-0.1c0,0,0,0,0-0.1c0.2-0.2,0.3-0.5,0.4-0.8c0-0.1,0-0.1,0-0.2
	c0-0.2,0-0.4,0-0.6C1940.9,1080.6,1939.9,1075.5,1937,1068.1z M1926.4,1047.9c-9.1-13.3-23.4-27-45.6-33.3l-12.7-42.4l21.5-42.1
	L1926.4,1047.9z M1876.1,1013.4c-4.3-1-8.9-1.7-13.8-2.1c-5-0.4-9.7-0.4-14.2-0.1l17.2-33.7L1876.1,1013.4z M1886.8,926.5
	l-20.5,40.1l-12.9-43L1886.8,926.5z M1850,926.7l13.6,45.1l-20.4,39.9c-23.2,2.9-39.9,14.3-51.2,25.9L1850,926.7z M1781.2,1058.4
	c8.1-13.4,26.7-37,59.8-42.2l-26.2,51.3c-0.2,0.3-0.4,0.6-0.5,0.9l-36.6-3.2L1781.2,1058.4z M1859.1,1048.7
	c-16.3-1.4-27.1,2.7-34.1,7.7l20.9-40.9c5-0.5,10.4-0.6,16.1-0.1c5.6,0.4,10.7,1.3,15.5,2.5l13.2,43.8
	C1884.7,1055.7,1875,1050,1859.1,1048.7z M1899.2,1075.7c-0.1-0.4-0.3-1-0.5-1.6l-16.5-54.9c29.9,9.4,44,32.8,50.3,48.1l3.6,11.5
	L1899.2,1075.7z M1958.9,1267.1l-2,112.1c0,0.6-0.3,1.3-0.9,1.6c-0.4,0.3-0.8,0.4-1.2,0.4c-0.2,0-0.4,0-0.6-0.1
	c-0.7-0.2-66.3-20.9-110.8-5.3c-0.6,0.2-1.4,0.1-1.9-0.3c-37.3-28.9-106.1-30.2-106.8-30.2c-0.6,0-1.3-0.3-1.6-0.8
	c-0.4-0.5-0.5-1.2-0.3-1.8l33.8-106.9c0.3-1.1,1.5-1.7,2.6-1.3c1.1,0.3,1.7,1.5,1.3,2.6l-33,104.3c13.4,0.5,71,4.2,105.6,30.4
	c41.2-13.8,96.9,1.1,109.8,4.9l2-109.4c0-1.1,1-2,2.1-2C1958,1265,1958.9,1266,1958.9,1267.1z M1864.4,1230.3
	c-24.5-19.3-64.1-21.6-65.8-21.7c-0.9-0.1-1.8,0.5-2.1,1.4l-36.8,116.3c-0.2,0.6-0.1,1.3,0.3,1.8s1,0.8,1.6,0.8
	c0.5,0,54.4,1,83.5,23.6h0.1c0.2,0.2,0.5,0.3,0.7,0.3c0,0,0.1,0,0.1,0.1l0,0c0.1,0,0.2,0,0.3,0c0.2,0,0.4,0,0.6-0.1h0.1
	c34.8-12.1,86.2,4,86.7,4.2c0.2,0.1,0.4,0.1,0.6,0.1c0.4,0,0.8-0.1,1.2-0.4c0.5-0.4,0.8-1,0.9-1.6l2.2-122c0-1-0.6-1.8-1.5-2
	C1899.2,1221.6,1870.3,1228.6,1864.4,1230.3z M1799.9,1212.8c7.6,0.6,41,4.4,61.8,20.7l-16.8,113.9c-26.9-18.9-69.2-21.9-80.4-22.4
	L1799.9,1212.8z M1932.4,1352.4c-7.6-2.2-30.4-8.2-54.2-8.2c-9.9,0-20,1.1-29.3,3.9l16.8-113.9c5.9-1.6,33.4-8,68.8,0.6
	L1932.4,1352.4z M1835.2,1314.2c-0.4,0.6-1.1,1-1.8,1c-0.4,0-0.7-0.1-1.1-0.3c-16.4-10.2-41.6-12.3-41.9-12.3
	c-1.1-0.1-2-1.1-1.9-2.2s1.2-2,2.2-1.9c1.1,0.1,26.4,2.2,43.7,12.9C1835.5,1312,1835.8,1313.2,1835.2,1314.2z M1840.4,1282.7
	c-0.4,0.6-1.1,1-1.8,1c-0.4,0-0.7-0.1-1.1-0.3c-15.1-9.3-38.2-11.3-38.5-11.3c-1.1-0.1-2-1.1-1.9-2.2s1.1-2,2.2-1.9
	c1,0.1,24.4,2.1,40.3,11.9C1840.7,1280.5,1841,1281.8,1840.4,1282.7z M1844.5,1255.8c-0.4,0-0.7-0.1-1.1-0.3
	c-13.7-8.5-34.8-10.3-35.1-10.3c-1.1-0.1-2-1.1-1.9-2.2s1.1-2,2.2-1.9c0.9,0.1,22.3,1.9,36.9,10.9c1,0.6,1.3,1.9,0.7,2.8
	C1845.9,1255.4,1845.2,1255.8,1844.5,1255.8z M1916.2,1321.2c-0.2,0.9-1.1,1.6-2,1.6c-0.2,0-0.3,0-0.5-0.1s-24.8-6-43.6-1.6
	c-1.1,0.3-2.2-0.4-2.5-1.5s0.4-2.2,1.5-2.5c19.8-4.7,44.5,1.4,45.6,1.6C1915.8,1318.9,1916.4,1320.1,1916.2,1321.2z M1917.8,1289.6
	c-0.2,0.9-1.1,1.6-2,1.6c-0.2,0-0.3,0-0.5-0.1s-22.8-5.6-40.1-1.5c-1.1,0.3-2.2-0.4-2.5-1.5s0.4-2.2,1.5-2.5c18.2-4.3,41,1.3,42,1.5
	C1917.4,1287.3,1918,1288.5,1917.8,1289.6z M1916,1258.6c1.1,0.3,1.8,1.4,1.5,2.5c-0.2,0.9-1.1,1.6-2,1.6c-0.2,0-0.3,0-0.5-0.1
	s-20.8-5.1-36.5-1.4c-1.1,0.3-2.2-0.4-2.5-1.5s0.4-2.2,1.5-2.5C1894.3,1253.3,1915.2,1258.4,1916,1258.6z M1836.9,326.2
	c1.9,2.6,3.4,3.3,4.5,3.3c0.3,0,0.6-0.1,0.8-0.1l30.2-9.8l-0.5,5.9c0,0.5,0.2,1,0.7,1.3c0.4,0.2,1,0.2,1.4-0.1l3.4-2.6l3,3.2
	c0.3,0.3,0.6,0.4,1,0.4c0.1,0,0.3,0,0.4-0.1c0.5-0.2,0.8-0.6,0.9-1.1l0.9-10.6l6.9,8.1c0.3,0.4,0.9,0.5,1.4,0.4s0.9-0.6,0.9-1.1
	l0.5-4.3l4.3,0.1c0.5,0,1-0.3,1.2-0.7c0.2-0.5,0.1-1-0.2-1.4l-3.8-4.4l29.6-9.6c1.1-0.4,2.5-1.7,2.5-5.7c0-2.7-0.7-6-1.8-9.4
	c-1.1-3.4-2.6-6.5-4.1-8.7c-2.4-3.3-4.2-3.5-5.4-3.2l-82.2,26.8c0,0-0.1,0-0.1,0.1c-0.1,0-0.2,0.1-0.3,0.2l-0.1,0.1
	c-2.9,1.7-2.2,8.7-0.2,14.9C1833.9,321,1835.4,324,1836.9,326.2z M1882.2,311.1c-2.5,0.8-5.3,0.2-7.3-1.6c-0.9-0.9-1.7-2-2.1-3.2
	c-1.3-3.9,0.9-8.1,4.8-9.4c0.8-0.2,1.5-0.4,2.3-0.4c1.2,0,2.3,0.3,3.4,0.8c1.8,0.9,3.1,2.4,3.7,4.3c0.4,1.3,0.5,2.7,0.2,4
	C1886.5,308.3,1884.7,310.3,1882.2,311.1z M1887.4,297.4c-2.6-2.9-6.7-4.2-10.6-2.9c-3.8,1.2-6.3,4.6-6.8,8.3
	c-13.1,2.5-24.6,1.5-30.8,0.5l72.9-23.8C1905,287.2,1896.7,293.2,1887.4,297.4z M1839.1,324.7c-1.4-2-2.8-4.8-3.8-7.9
	c-2.2-6.7-1.7-10.9-1.1-11.7c0.2,0.1,0.5,0.1,0.9,0.2c0.4,0.3,1,0.9,1.7,1.8c1.4,2,2.8,4.8,3.8,7.9c2.3,7.1,1.7,11.6,1,11.9
	C1841.4,327,1840.5,326.7,1839.1,324.7z M1844.6,325.9c0.1-0.6,0.2-1.4,0.2-2.2c0-2.7-0.6-6-1.8-9.4c-1-3.2-2.4-6.1-3.9-8.3
	c3.4,0.5,8.2,1,13.9,1c5,0,10.8-0.4,16.9-1.5c0.1,0.6,0.2,1.1,0.4,1.7c0.5,1.7,1.5,3.1,2.8,4.3c0,0,0.1,0,0.1,0.1v0.1l-0.4,5
	L1844.6,325.9z M1880.4,323.1l-1.8-1.9c-0.5-0.5-1.2-0.6-1.8-0.1l-2,1.6l0.4-4.9l0,0l0.4-4.7c1.3,0.6,2.8,1,4.2,1
	c0.4,0,0.9,0,1.3-0.1L1880.4,323.1z M1892.3,316.1c-0.8,0-1.3,0.5-1.3,1.1l-0.3,2.5l-6-7c1.7-0.9,3.1-2.2,4-3.9l6.2,7.2
	L1892.3,316.1z M1889.8,306.3c0,0-0.1,0-0.1-0.1c0.4-1.7,0.3-3.6-0.2-5.3c-0.2-0.5-0.4-0.9-0.6-1.4c9.2-4.2,17.4-10.1,24.5-17.6
	c0.1,2.7,0.7,5.8,1.7,8.8c1.1,3.4,2.6,6.5,4.1,8.7c0.5,0.7,1,1.3,1.4,1.7l-27.5,9L1889.8,306.3z M1919,280.3c1.4,2,2.8,4.8,3.8,7.9
	c1,3.2,1.6,6.2,1.6,8.6c0,2.5-0.6,3.2-0.7,3.2c-0.1,0.1-1-0.2-2.4-2.2s-2.8-4.8-3.8-7.9c-1.8-5.7-1.8-9.6-1.4-11.1
	c0.2-0.2,0.4-0.5,0.6-0.7C1917.1,278.2,1917.9,278.7,1919,280.3z M1427.2,861.7l-1.6,7.2l-22.4-4.9c-6.2-1.4-12.3,2.6-13.7,8.8
	l-0.1,0.7c-0.1,0.5,0,1.1,0.3,1.5s0.8,0.8,1.3,0.9l66.5,14.5c0.1,0,0.3,0,0.4,0c0.9,0,1.8-0.7,2-1.6l0.1-0.7
	c1.3-6.2-2.6-12.3-8.8-13.7l-21.7-4.7l1.6-7.2c4.7,0.9,9.6,1.4,14.4,1.4c7.7,0,15.4-1.1,22.7-3.4c1.1-0.3,1.7-1.5,1.4-2.6
	c-0.3-1.1-1.5-1.7-2.6-1.4c-11.9,3.7-24.7,4.2-37,1.6c-19-4.1-35.2-15.4-45.7-31.7s-14.1-35.8-9.9-54.7
	c4.5-20.8,17.9-38.5,36.6-48.6c1-0.5,1.4-1.8,0.8-2.8c-0.5-1-1.8-1.4-2.8-0.8c-19.8,10.7-33.9,29.4-38.7,51.3
	C1361.5,811.6,1386.9,851.9,1427.2,861.7z M1456.2,886l-62.3-13.5c1.3-3.2,4.8-5.1,8.4-4.4l24.4,5.3l0,0l0,0l23.6,5.1
	C1453.9,879.3,1456.3,882.5,1456.2,886z M1428,728.9c-17.3,4.7-32.1,16.8-39.8,33.4c-0.1,0.1-0.1,0.2-0.1,0.3
	c-1.8,4-3.3,8.2-4.2,12.6c-1.5,7.1-1.7,14.3-0.8,21.3c0,0.2,0,0.4,0.1,0.5c1.2,8.6,4.3,16.9,9.1,24.5c1.5,2.4,3.2,4.6,5,6.7
	c0.1,0.3,0.3,0.5,0.6,0.7c8.6,9.8,20,16.6,33,19.5c4.4,1,8.8,1.4,13.2,1.4c5.3,0,10.6-0.7,15.8-2.1h0.1c0,0,0,0,0.1,0h0.1l0,0
	c6-1.6,11.7-4.1,17-7.6c13.8-8.9,23.4-22.6,26.9-38.6c2.6-11.9,1.6-24-2.7-35.1l0,0c-1.5-3.9-3.4-7.7-5.7-11.3
	c-8.9-13.8-22.6-23.4-38.7-26.9c-9.8-2.1-19.5-1.7-28.6,0.6c-0.1,0-0.1,0-0.2,0h-0.1C1428,728.9,1428,728.9,1428,728.9z
	 M1501.1,793.7c-5.8,6.9-12.2,12.5-18.9,17c1.2-7.5,1.2-16.3-0.9-26.4c6-3.7,11.7-8.2,17.2-13.5C1501,778.2,1501.8,786,1501.1,793.7
	z M1477.6,813.6c-7.3,4.3-14.8,7.3-22.1,9.4l-6.8-25.2c9.6-2.3,19.4-5.9,28.9-11.3C1479.6,797.1,1479.2,806.1,1477.6,813.6z
	 M1411.5,795.2c-2.8-11.4-3-21-1.7-29.1c7.3-0.3,16-1.2,25.2-3.3l8.6,32c-11.4,2.4-22.3,3-31.5,2.8
	C1411.9,796.7,1411.7,796,1411.5,795.2z M1427.4,734.3l6.5,24.4c-8.5,1.9-16.5,2.7-23.3,3.1C1414.3,746.6,1423.2,737.8,1427.4,734.3
	z M1415.2,801.6c8.8,0,18.9-0.8,29.5-3l6.8,25.4c-8,2-15.7,2.9-22.6,3.2c-6.1-6.1-11.7-14.4-15.5-25.7
	C1414,801.6,1414.6,801.6,1415.2,801.6z M1452.6,828l4,15c-4.7-1.1-14.2-4.2-23.5-11.9C1439.2,830.6,1445.8,829.7,1452.6,828z
	 M1460.6,842.2l-4.1-15.2c6.5-1.9,13-4.4,19.5-7.8C1471.9,831.6,1464.5,839,1460.6,842.2z M1447.6,793.8l-8.6-32
	c7.7-2,15.7-4.8,23.4-8.8c5.8,6.9,11,16.1,14,28.4c0.1,0.3,0.1,0.6,0.2,0.9C1467.2,787.8,1457.3,791.5,1447.6,793.8z M1438,757.7
	l-6.5-24.2c5.6,1.4,17.5,5.4,28.1,16.3C1452.5,753.3,1445.1,755.9,1438,757.7z M1419.5,736.4c-2.1,2.3-4.3,5.2-6.4,8.8
	c-2.5,4.3-5,9.9-6.6,16.8c-6,0.2-10.7-0.1-13.5-0.3C1398.9,750.5,1408.3,741.7,1419.5,736.4z M1387.8,776.1
	c0.8-3.6,1.9-7.1,3.4-10.4c2.2,0.2,6.3,0.5,12,0.5c0.8,0,1.7,0,2.6,0c-1.3,8.3-1.1,18.3,1.8,30c0.1,0.4,0.2,0.8,0.3,1.2
	c-10.3-0.5-18-1.9-20.9-2.5C1386.2,788.7,1386.4,782.4,1387.8,776.1z M1387.5,799.2c4,0.8,11.6,2,21.5,2.4
	c3.5,11,8.7,19.5,14.4,25.9c-12,0.1-20.8-1.6-23.2-2.1c-1.6-1.9-3.2-3.9-4.6-6.1C1391.6,813.1,1388.9,806.2,1387.5,799.2z
	 M1431.7,844.3c-10.2-2.2-19.3-7.1-26.8-14c4.3,0.6,10.5,1.2,17.9,1.2c1.5,0,3,0,4.5-0.1c8,7.5,16.5,11.6,22.7,13.8
	C1444,845.9,1437.8,845.7,1431.7,844.3z M1475,836.5c-2.1,1.3-4.2,2.5-6.4,3.5c2.1-2.3,4.3-5.2,6.3-8.7c2.3-3.9,4.6-9,6.1-15.1
	c6.5-4,12.9-8.9,18.8-15C1496.5,815.9,1487.7,828.4,1475,836.5z M1492.2,757.2c1.9,3,3.5,6.1,4.8,9.3c-5.3,5.3-10.9,9.8-16.7,13.5
	c-3.1-12.5-8.3-21.9-14.2-29.1c4.3-2.4,8.4-5.2,12.4-8.5C1483.8,746.5,1488.5,751.5,1492.2,757.2z M1456.1,732.2
	c6.8,1.5,13.2,4.2,18.9,7.9c-3.7,2.9-7.6,5.5-11.6,7.8c-8.8-9.3-18.6-14.2-25.5-16.6c2-0.2,4-0.4,6-0.4
	C1447.9,730.9,1452,731.3,1456.1,732.2z M1819.9,509.4c0.9,5.5,3.3,10.5,7.1,14.9c0.8,0.9,1.1,2.1,0.8,3.3c-0.8,3-2.3,7.3-5,10.3
	c-0.6,0.7-0.7,1.7-0.3,2.5c0.4,0.7,1.1,1.1,1.8,1.1c0.2,0,0.3,0,0.5-0.1c3.1-0.7,9.3-2.4,15.6-5.7c1-0.5,2.1-0.6,3.1-0.2
	c8.4,3.1,17.9,3.9,27.4,2.4c24.9-4.1,42.5-23.5,39.3-43.3c-3.3-19.8-26.2-32.5-51.1-28.4C1834.2,470.2,1816.6,489.7,1819.9,509.4z
	 M1859.7,469.4c23.1-3.8,44.3,7.7,47.2,25.6c2.9,17.9-13.4,35.6-36.5,39.5c-8.9,1.5-17.8,0.7-25.7-2.2c-1.9-0.7-4-0.5-5.8,0.4
	c-4.3,2.3-8.5,3.7-11.5,4.6c1.9-3,3-6.3,3.7-8.9c0.6-2.2,0-4.5-1.5-6.3c-3.4-3.9-5.5-8.4-6.3-13.2
	C1820.2,490.9,1836.6,473.2,1859.7,469.4z M1600.3,584l23.8-0.3l18.4,23.7l0.1,0.1l0.1,0.1h0.1c0.3,0.2,0.5,0.3,0.9,0.3
	c0.2,0,0.4-0.1,0.6-0.1l0,0l0,0c0.2-0.1,0.3-0.2,0.4-0.3l11.6-13.6l17.5,7.3c0.2,0.1,0.4,0.1,0.6,0.1s0.4,0,0.6-0.1
	c0.4-0.2,0.7-0.4,0.8-0.8l28.2-69.6c0-0.1,0.1-0.1,0.1-0.2l0,0c0-0.1,0-0.3,0-0.4c0-0.3-0.1-0.5-0.2-0.8c0-0.1-0.1-0.1-0.1-0.2
	c-0.2-0.3-0.5-0.4-0.8-0.5l0,0l0,0l0,0l0,0l0,0l0,0l0,0l0,0l0,0l0,0l0,0l0,0l0,0l0,0l0,0l0,0l0,0l0,0l0,0c-0.3-0.1-0.7,0-0.9,0.1
	l-102.4,52.3c-0.6,0.3-0.9,1-0.8,1.7C1599,583.6,1599.5,584,1600.3,584z M1644.5,603.3l-3.9-16l13,5.4L1644.5,603.3z M1673.8,597.9
	l-32.5-13.6l57.8-49L1673.8,597.9z M1637.5,583.6C1637.5,583.6,1637.5,583.7,1637.5,583.6c-0.2,0.2-0.3,0.4-0.4,0.5
	c0,0.1-0.1,0.1-0.1,0.2c0,0.2-0.1,0.3,0,0.5c0,0.1,0,0.1,0,0.1s0,0,0,0.1c0,0,0,0,0,0.1l3.6,15l-13.6-17.5l54.9-36.7L1637.5,583.6z
	 M1680.6,543.2l-56.2,37.5l-17.7,0.2L1680.6,543.2z M1407.4,1060.4c2.2,0,4.2-0.2,6.3-0.5c6.3-1,10.6-5.2,11.9-11.2
	c0.3,0,0.7,0.1,1,0.1c0.4,0,0.9,0,1.3-0.1l21.2-3.1c0.1,0,0.3-0.1,0.4-0.1l85.2-14.4c2.6-0.4,4.7-1.1,6.2-2.1
	c2.2-1.5,3.2-3.7,2.9-6.3c-0.7-4.6-5-7.1-10.6-6.3l-87.7,11.2c-0.1,0-0.2,0.1-0.3,0.1l-19.8,2.9c-1,0.1-2,0.5-2.9,1
	c-0.3-0.4-0.4-0.8-0.7-1.2c-2.3-3.1-5.1-5-8.5-5.7c-5.2-1-10.2,0.3-14.8,4.2c-1.6,1.3-3,2.9-4.3,4.3l-1.3,1.4
	c-3.1,3.3-6.2,5.6-9.6,7.1c-1.2,0.5-2.4,0.9-3.7,1.3l-1.2,0.4c-1.5,0.5-2.5,1.3-2.8,2.5c-0.4,1.2-0.1,2.4,0.9,3.7
	c1,1.4,2.3,2.3,4.1,3.5l0.6,0.3c0.6,0.4,1.5,0.9,2.4,1.3c4.1,2.1,8.7,3.7,13.4,4.7C1400.5,1060,1404,1060.4,1407.4,1060.4z
	 M1533.7,1020.5c1.6-0.2,3.1-0.1,4.2,0.4c1,0.5,1.6,1.2,1.8,2.4c0.1,0.7,0,1.5-1.1,2.3c-1,0.7-2.5,1.2-4.5,1.5l-83.5,14.2
	c-0.1-0.9-0.3-1.8-0.5-2.7c-0.3-1.7-0.7-3.3-1.1-4.9c-0.2-0.7-0.4-1.5-0.6-2.2L1533.7,1020.5z M1425.9,1034.7l18.3-2.6
	c1,3.1,1.7,6.4,2.2,9.9l-19.1,2.8c-0.3,0-0.6,0-0.9,0c0.1-3.4-0.5-6.7-1.7-9.7C1425.1,1034.8,1425.5,1034.7,1425.9,1034.7z
	 M1383.1,1049.7l-0.5-0.3c-1.4-1-2.3-1.6-2.9-2.3l1-0.3c1.4-0.4,2.7-0.9,4-1.4c4-1.7,7.6-4.3,11.1-8.1l1.3-1.4
	c1.3-1.4,2.4-2.8,3.8-3.9c3.7-3,7.4-4.1,11.4-3.3c2.4,0.5,4.4,1.9,6,4.1c3,4.1,4.1,8.8,3.5,14c-0.6,5.1-3.8,8.3-8.8,9.1
	c-4.7,0.8-9.7,0.5-15.3-0.7c-4.4-1-8.6-2.4-12.5-4.3C1384.4,1050.5,1383.7,1050,1383.1,1049.7z M1057.7,1150.5
	c-2.9-6.3-8.6-9.6-11.3-10.9c0.3-5.1-0.3-20.5-17.8-25.1c-4.4-18.3-19.8-17.9-23.7-17.5c-13.7-9.4-27.3,0-30.9,2.9
	c-17.1-5.6-27,7.6-29.2,10.9c-2.1,0.7-4.2,1.7-6.2,3.3c-9.7,7.5-7.9,18.8-6.9,22.8c-14.5,12.7-8.6,26.1-6.3,30.2
	c-3.8,6-5.1,11.7-4,17.1c1.2,5.8,4.9,9.5,6.8,11.1c-1.8,6-1.5,11.5,1,16.5c4.3,8.6,13.7,12.9,17,14.1c3.9,14.8,18.4,15.2,21.6,15
	c4.6,2.3,8.9,3.3,12.8,3.3c12,0,20.5-8.7,23.5-12.2c5.1,2.9,10,4.4,14.6,4.4c1.9,0,3.8-0.2,5.7-0.7c8.8-2.4,13.7-9.5,15-11.7
	c15.4-7.4,15.2-19.2,14.6-23.2c1.3-1.1,2.5-2.3,3.8-3.8c11.3-13.9,3-26.9,0.2-30.5C1060,1160.6,1059.9,1155.2,1057.7,1150.5z
	 M969.3,1237c-0.4-0.2-0.7-0.3-1.2-0.2c-0.6,0-15.1,1.3-18.1-12.9c-0.2-0.7-0.7-1.3-1.4-1.5c-0.1,0-11.3-3.7-15.7-12.4
	c-2.2-4.3-2.3-9.3-0.4-14.7c1.9-5.4,5.8-9.3,11.1-11c5.5-1.8,11.8-0.9,16.3,2.3c0.9,0.6,2.2,0.4,2.9-0.5s0.4-2.2-0.5-2.9
	c-3.9-2.8-8.9-4.1-13.9-3.9c0.2-2.4,0.8-6.2,3.1-8.8c1.6-1.8,3.8-2.8,6.6-3c1.1-0.1,2-1,1.9-2.2c-0.1-1.1-1-2.1-2.2-1.9
	c-4,0.2-7.1,1.7-9.5,4.3c-3.4,3.9-4.1,9.3-4.2,12.1c-0.6,0.1-1.2,0.3-1.8,0.5c-5.6,1.8-10,5.6-12.6,10.9c-1.6-1.6-3.7-4.2-4.4-7.9
	c-0.9-4.6,0.5-9.7,4.1-15.1c0.5-0.7,0.5-1.7-0.1-2.4c-0.4-0.6-10-13.8,5.8-26.7c0.7-0.6,0.9-1.5,0.6-2.3c-0.2-0.5-4.3-12.2,5.1-19.5
	c9.5-7.4,21.9,0.1,22,0.2c1,0.6,2.2,0.3,2.8-0.7s0.3-2.2-0.7-2.8c-0.4-0.3-6.9-4.2-14.6-4.1c3.7-4.1,11-9.7,22.1-6.1l4.5,19.8l0,0
	l3,12.9c-3.4-3.5-8-5.8-14-5.4c-19.1,1.1-19.6,21-19.6,21.2c0,1.1,0.9,2.1,2,2.1l0,0c1.1,0,2-0.9,2.1-2c0-0.7,0.4-16.2,15.7-17.1
	c10.2-0.5,14.8,8.4,16.8,14.7l10.5,45.9c-1.2-1-2.6-1.9-4.1-2.5c-9.6-3.7-20.3,3.5-20.8,3.8c-0.9,0.6-1.2,1.9-0.5,2.9
	c0.6,0.9,1.9,1.2,2.9,0.5c0.1-0.1,9.4-6.3,17-3.4c4.3,1.7,7.3,6.2,9,13.4l0,0l4.2,18.3C998.7,1232.3,986.5,1246.1,969.3,1237z
	 M1054.7,1194.4c-4.1,5-9.1,7.6-15,7.3c-7.4-0.3-13.8-5-16.9-9.5c-0.6-0.9-1.9-1.2-2.9-0.5c-0.9,0.6-1.2,1.9-0.5,2.9
	c4.4,6.4,12.5,11,20.1,11.3c0.3,0,0.6,0,0.9,0c2.8,0,6.3-0.6,9.8-2.5c0.1,4.1-1.5,11.8-13,17.1c-0.4,0.2-0.7,0.5-1,0.9
	c0,0.1-4.4,8.1-12.8,10.3c-5.4,1.5-11.5,0.2-18-3.6l-2.3-10.1c0-0.6-0.2-5.5,3-8.9c2.3-2.4,5.8-3.5,10.5-3.3c1.1-0.1,2.1-0.8,2.1-2
	c0-1.1-0.8-2.1-2-2.1c-5.9-0.2-10.6,1.3-13.7,4.6c-0.8,0.9-1.5,1.8-2,2.8l-12.4-53.8c-0.2-1.9-0.7-4.2-1.5-6.6l-5.9-25.6
	c0.4-1.8,2.4-9.5,7.4-9.7c1.1-0.1,2-1,1.9-2.2c-0.1-1.1-1-2-2.2-1.9c-4.4,0.2-7.1,3.3-8.8,6.5l-2.9-12.8c3.2-2.6,14.8-10.6,26.4-2.1
	c0.5,0.3,1,0.5,1.6,0.4s14.8-2.6,19.4,12.7c-8.2-0.1-20,4.9-24.6,16.5c-0.4,1.1,0.1,2.3,1.1,2.7c1.1,0.4,2.3-0.1,2.7-1.1
	c4.4-11.1,16.4-15.2,23.1-13.7c18.4,4,15.8,21.6,15.7,22.3c-0.2,1,0.4,1.9,1.3,2.3c0.1,0,7.4,2.8,10.5,9.5c1.8,4,1.8,8.7-0.1,13.9
	c-0.3,0.7-0.1,1.6,0.4,2.1C1054.7,1168.8,1065.7,1180.7,1054.7,1194.4z M1045.3,1178.6c0,1.1-0.9,2-2.1,2l0,0c-1.1,0-2-0.9-2-2.1
	c0-0.5,0-13.3-13.9-17.3c-15-4.3-23.1,10.4-23.2,10.6c-0.5,1-1.8,1.4-2.8,0.8c-1-0.5-1.4-1.8-0.8-2.8c0.1-0.1,4.2-7.6,12-11.4
	c-1.1-3.4-2.9-5.9-5.3-7.1c-4.5-2.3-9.8-0.1-9.8,0c-1,0.4-2.3,0-2.7-1.1c-0.4-1,0-2.3,1.1-2.7c0.3-0.1,7.1-3,13.3,0.1
	c3.4,1.7,5.8,4.9,7.2,9.3c3.5-0.9,7.5-1,12,0.3C1045.4,1162.1,1045.3,1178.4,1045.3,1178.6z M986.7,1217.8
	c-1.7,2.9-6.5,7.6-13.4,7.6c-1.2,0-2.6-0.1-3.9-0.5c-8.3-2-9.3-11-8.7-15.5c0.2-1.1,1.1-1.9,2.3-1.7c1.1,0.2,1.9,1.2,1.8,2.3
	c-0.1,0.4-1.2,9.3,5.6,10.9c8.3,2,12.7-4.9,12.9-5.2c0.6-1,1.9-1.3,2.8-0.7C987,1215.5,987.3,1216.8,986.7,1217.8z M1901.2,707.2
	L1901.2,707.2c-0.7-2.2-3.1-3.5-5.4-2.7l-3.9,1.3l-0.3-1.1c-0.1-0.4-0.4-0.7-0.7-0.9c-0.4-0.2-0.8-0.2-1.1-0.1l-88.1,28.7l0,0h-0.1
	c-0.1,0-0.1,0.1-0.2,0.1s-0.2,0.1-0.2,0.1l-12.2,9.5c-0.5,0.4-0.7,1-0.5,1.6s0.7,1,1.4,1l15.4,0.6c0,0,0,0,0.1,0
	c0.2,0,0.3,0,0.5-0.1l49.9-16.3l-3.9,7c-0.4,0.7-0.2,1.6,0.6,2c0.2,0.1,0.5,0.2,0.7,0.2c0.5,0,1-0.3,1.3-0.8l5.3-9.4l15.3,2.1
	c1.4,0.2,2.8,0.1,4.1-0.4l8.4-2.7c1.3-0.4,2.4-1.3,3-2.6c0.6-1.2,0.7-2.6,0.3-3.9l-0.9-2.7l4-1.3c0.8-0.3,1.2-1.1,1-1.9l-0.3-0.9
	l3.9-1.3C1900.7,711.9,1901.9,709.5,1901.2,707.2z M1801.1,736.4l2,6l-9.2-0.3L1801.1,736.4z M1887.9,721.6c0.2,0.6,0.1,1.1-0.1,1.7
	c-0.3,0.5-0.7,0.9-1.3,1.1l-8.4,2.7c-0.9,0.3-1.9,0.4-2.8,0.2l-9.9-1.4l21.6-7L1887.9,721.6z M1806.1,742.1l-2.4-7.3l85.4-27.8
	l1.3,4l0.8,2.4l0,0l0.3,0.9L1806.1,742.1z M1897.5,709.8l-3.9,1.3l-0.8-2.5l3.9-1.3c0.6-0.2,1.4,0.1,1.6,0.8
	C1898.5,708.8,1898.2,709.6,1897.5,709.8z M1602.2,1187.3c0.1,0,13.7-4.4,23.9-4.6c12.8-0.2,22.3,1.4,30.7,5.3
	c3.9,1.8,8.9,4.5,12.5,8.9c2,2.4,4.9,3.3,8,2.5c2.9-0.8,4.9-2.9,5.3-5.7c0.3-1.7,0-3.7-0.6-5.4c-1.8-5.1-3.8-10.2-5.7-15.4
	l-6.4-16.9c9.2-4,13.7-14.5,10-23.9c-3.6-9.3-13.8-14-23.1-11l-14.1-37.6l0,0c-1.5-3.9-5-6.1-8.7-5.5c-4,0.7-6.5,4-6.5,8.5
	c0,1.2,0,2.5-0.2,3.8c-1.2,6.6-3.9,13-8,19c-8.1,11.9-19.7,21-34.3,27.1c-10.4,4.4-21.2,8.3-31.6,12.2c-4.1,1.5-8.2,3-12.3,4.6
	c-2.6,1-4.6,2.5-6.3,4.7c-9.1,11.9-7,29.6,4.6,39.5c1,0.9,2,1.7,3.1,2.4c5.7,3.9,13.1,4.8,19.7,2.3l3.5-1.2l21.9,26.4
	c1,1.2,2.4,1.9,4,1.9c0.4,0,0.8,0,1.2-0.1l9-2c1.7-0.4,3.1-1.6,3.7-3.2s0.4-3.4-0.6-4.8l-18.4-25.7l5.9-2.3
	C1592.6,1190.9,1599.5,1188.2,1602.2,1187.3z M1668.5,1125.5c3.6,1.6,6.3,4.4,7.7,8.1c1.4,3.6,1.3,7.6-0.3,11.2
	c-1.5,3.3-4.1,5.9-7.4,7.4l-10.2-27.1C1661.7,1124,1665.2,1124.1,1668.5,1125.5z M1560.9,1198.3c-5.4,2-11.4,1.3-16-1.9
	c-0.9-0.6-1.9-1.4-2.8-2.1c-9.8-8.3-11.7-23.9-4-33.9c1.2-1.6,2.6-2.6,4.5-3.3c2.7-1,5.3-2,8-3c-1,6.9-0.2,22.2,17.1,41.8l-1.7,0.6
	l0,0L1560.9,1198.3z M1601.4,1221.4c0.3,0.4,0.2,0.8,0.1,1s-0.3,0.5-0.8,0.7l-9,2c-0.4,0.1-0.8-0.1-1.1-0.4l-20.9-25.2l12.5-4.6
	L1601.4,1221.4z M1582.4,1190.4l-10.6,3.9c-20-22-17.6-38.2-16.6-42c10.4-3.8,21.1-7.8,31.5-12.1c15.3-6.4,27.5-16,36.1-28.6
	c4.4-6.5,7.3-13.4,8.6-20.6c0.3-1.6,0.3-3.1,0.3-4.5c0-2.4,1.1-4.1,3.1-4.4c1.8-0.3,3.4,0.8,4.2,2.9l33.6,89.3
	c1.9,5.1,3.8,10.2,5.7,15.3c0.4,1.1,0.5,2.3,0.4,3.4c-0.2,1.5-1.4,2.1-2.3,2.3c-1.6,0.4-2.8,0.1-3.8-1.1c-4.2-5-9.6-8-13.9-10
	c-9-4.2-19-5.9-32.5-5.7c-10.8,0.2-24.5,4.6-25.1,4.8c-2.9,1-10,3.7-10.2,3.8L1582.4,1190.4z M1822,1496.2l-62.8-21.7
	c-4.2-1.5-8.8,0.8-10.3,5l-1,2.8l-15.1-5.2c6.8-23.1-5.7-47.9-28.7-55.8c-23.7-8.2-49.6,4.5-57.8,28.2c-8.2,23.7,4.5,49.6,28.2,57.8
	c4.9,1.7,9.9,2.5,14.8,2.5c18.2,0,35.3-11.1,42.3-28.7l15.1,5.2l-1,2.8c-1.5,4.2,0.8,8.8,5,10.3l62.8,21.6c0.9,0.3,1.8,0.4,2.6,0.4
	c1.2,0,2.4-0.3,3.6-0.8c1.9-1,3.4-2.6,4.1-4.6l3.2-9.4l0,0c0.7-2,0.6-4.2-0.4-6.2C1825.7,1498.4,1824,1496.9,1822,1496.2z
	 M1675.8,1503.4c-21.6-7.4-33-31-25.6-52.6c5.9-17.1,22-27.9,39.1-27.9c4.5,0,9,0.7,13.4,2.3c21.6,7.4,33,31,25.6,52.6
	C1721,1499.3,1697.4,1510.8,1675.8,1503.4z M1823.1,1505.2l-3.2,9.4c-0.3,1-1.1,1.8-2,2.3c-1,0.5-2.1,0.5-3,0.2l-62.8-21.6
	c-2.1-0.7-3.2-3-2.5-5.1l0.9-2.8l0.9,0.3c0.2,0.1,0.4,0.1,0.7,0.1c0.9,0,1.6-0.5,1.9-1.4c0.4-1.1-0.2-2.2-1.3-2.6l-0.9-0.3l1-2.8
	c0.6-1.7,2.1-2.7,3.8-2.7c0.4,0,0.9,0.1,1.3,0.2l62.8,21.7c1,0.3,1.8,1.1,2.3,2C1823.4,1503.1,1823.5,1504.2,1823.1,1505.2z
	 M1684.7,1494.9c-0.2,0.9-1.1,1.5-2,1.5c-0.2,0-0.3,0-0.5-0.1c-3.7-0.9-6.9-2.3-9.8-4.1c-11.8-7.2-17.9-20.7-15.6-34.3
	c0.7-4.2,2.3-8.3,4.6-12c0.6-1,1.9-1.3,2.8-0.7c1,0.6,1.3,1.9,0.7,2.8c-2,3.3-3.4,6.9-4,10.6c-2.1,11.9,3.3,23.8,13.7,30.1
	c2.6,1.6,5.4,2.7,8.7,3.6C1684.3,1492.6,1684.9,1493.8,1684.7,1494.9z M1505.4,1321.1c-29.2-1.4-39,18.6-41.9,27.4
	c-6.3-6.8-23.6-20.7-49.5-7.2c-11.6,6-19.2,14.6-22.6,25.5c-4.6,14.6-0.5,30.7,4.9,40.9c7.1,13.5,34.7,42,93.1,62.8
	c0.2,0.1,0.5,0.1,0.7,0.1c0.5,0,1.1-0.2,1.4-0.6c44.2-43.5,57.2-80.9,57.9-96.2c0.6-11.5-2.5-27.8-12.8-39.2
	C1529,1326.3,1518.5,1321.7,1505.4,1321.1z M1545.3,1373.7c-1.5,30.8-36.6,73.4-55.8,92.5c-56.4-20.4-83.3-48.4-89.6-60.4
	c-5-9.5-8.8-24.4-4.6-37.8c3.1-9.8,10-17.6,20.6-23.1c7.3-3.8,13.8-5.3,19.5-5.3c17.4,0,26.9,13.6,27.4,14.3c0.5,0.7,1.3,1,2.1,0.8
	c0.8-0.2,1.4-0.8,1.6-1.7c0.2-1.2,5.3-29.6,38.7-28c11.9,0.6,21.5,4.7,28.4,12.3C1543.1,1347.9,1545.9,1363,1545.3,1373.7z
	 M775.2,1294.5c0-3.9-2.8-7.2-6.5-7.9l-0.5-18.6l3.4-1.2c2.2-0.8,3.6-2.8,3.6-5.1c0-2.3-1.4-4.3-3.6-5.1l-86.3-31.9
	c-2.2-0.8-4.7-0.8-7,0l-86.1,31.3c-2.2,0.8-3.6,2.8-3.6,5.1c0,2.3,1.4,4.3,3.6,5.1l26.9,9.9v46.7c0,2.8,1.7,5.3,4.4,6.4
	c8.9,3.4,31.8,11,60.4,11c17.3,0,36.6-2.8,56.1-11c2.6-1.1,4.2-3.6,4.2-6.3v-46.2l20-7.3l0.4,17.4c-3.2,1.1-5.6,4.1-5.6,7.7
	c0,2.5,1.2,4.8,3,6.2c-4,11.1-7.3,26.6-6.8,32.2c0.1,1.4,0.9,2.8,2.1,3.8c2,1.7,4.3,2.6,9.7,2.6s7.7-1,9.7-2.6c1.2-1,2-2.3,2.1-3.8
	c0.5-5.4-2.2-20.7-6.4-32.3C774.1,1299.1,775.2,1297,775.2,1294.5z M592.8,1261.1c0-0.3,0.1-1,0.9-1.3l86.1-31.3
	c1.3-0.5,2.8-0.5,4.1,0l86.4,31.9c0.8,0.3,0.9,1,0.9,1.3s-0.1,1-0.9,1.3l-3.1,1.1c-0.2-0.1-0.5-0.2-0.8-0.2l-83.8-6
	c-1.1-0.1-2.1,0.8-2.2,1.9c-0.1,1.1,0.8,2.1,1.9,2.2l75.9,5.4l-73.9,26.9c-1.3,0.5-2.8,0.5-4.1,0l-86.4-31.9
	C592.8,1262.1,592.8,1261.4,592.8,1261.1z M740.1,1322.9c0,1.1-0.7,2.1-1.7,2.5c-50.2,21.1-99.5,5.3-113.4-0.1
	c-1-0.4-1.7-1.4-1.7-2.5v-45.2l55.3,20.4c1.1,0.4,2.3,0.6,3.5,0.6s2.3-0.2,3.5-0.6l54.5-19.8L740.1,1322.9L740.1,1322.9z
	 M767.1,1290.6c2.2,0,4,1.8,4,4s-1.8,4-4,4c-0.5,0-1-0.1-1.5-0.3c-0.1-0.1-0.2-0.2-0.3-0.2l0,0c-1.2-0.7-2.1-1.9-2.1-3.5
	C763.1,1292.4,764.9,1290.6,767.1,1290.6z M774.7,1332.6c0,0.4-0.4,0.8-0.6,1c-1,0.8-2.1,1.7-7.1,1.7s-6.1-0.9-7.1-1.7
	c-0.2-0.2-0.6-0.5-0.6-1c-0.4-4.6,2.4-18.9,6.5-30.1c0.4,0.1,0.9,0.1,1.3,0.1c0.5,0,1.1-0.1,1.6-0.2
	C772.8,1313.9,775.2,1328.3,774.7,1332.6z M962.7,1382c-0.5-7.8-5-14.8-11.9-18.5c-2.7-1.4-5-3.5-6.7-6.1
	c-4.3-6.5-11.8-10.4-19.5-10.1c-3.1,0.1-6.1-0.6-8.9-1.9c-7-3.5-15.4-3.1-21.9,1.1c-2.6,1.6-5.6,2.6-8.6,2.8
	c-7.8,0.5-14.8,5-18.5,11.9c-1.4,2.7-3.5,5-6.1,6.7c-6.5,4.3-10.3,11.8-10.1,19.5c0.1,3.1-0.6,6.1-1.9,8.8c-3.5,7-3.1,15.4,1.1,22
	c1.6,2.6,2.6,5.6,2.8,8.6c0.3,5.5,2.8,10.7,6.6,14.6l-36,48c-1.1,1.8-1.3,3.9-0.4,5.8c0.8,1.9,2.6,3.2,4.6,3.6c0.3,0,0.6,0,0.9,0
	l16.5-4.6l1.2,15.8c0,0.4,0.2,0.7,0.4,1c1.2,1.7,3.1,2.7,5.1,2.7h0.1c2.1,0,4-1.1,5.1-2.8l34.9-49.3c2.8,0,5.5,0.7,8,1.9
	c0.7,0.3,1.4,0.6,2.1,0.9l10.1,54.5c0.3,2.1,1.6,3.8,3.5,4.8c0.9,0.4,1.8,0.6,2.7,0.6c1.1,0,2.2-0.3,3.2-0.9
	c0.3-0.2,0.6-0.5,0.8-0.8l7.6-13.9l13.1,11c0.2,0.2,0.5,0.3,0.8,0.4c2,0.5,4.1,0,5.7-1.4c1.5-1.4,2.3-3.4,2-5.5l-8.7-58.1
	c2.6-2,4.8-4.4,6.4-7.4c1.4-2.7,3.5-5,6.1-6.7c6.5-4.3,10.3-11.8,10.1-19.5c-0.1-3.1,0.6-6.1,1.9-8.9c3.5-7,3.1-15.4-1.1-21.9
	C963.8,1388,962.9,1385,962.7,1382z M853,1508.5c-0.4,0.6-1,1-1.7,1c-0.6-0.1-1.1-0.2-1.5-0.5l-1.3-17.6c0-0.6-0.4-1.2-0.9-1.5
	c-0.5-0.4-1.1-0.5-1.7-0.3l-18.4,5.1c-0.5-0.2-0.9-0.6-1.2-1.1c-0.3-0.6-0.2-1.4,0.1-1.8l35.7-47.7c0.7,0.5,1.4,0.9,2.1,1.3
	c2.7,1.4,5,3.5,6.7,6.1c3.5,5.4,9.3,8.8,15.6,9.8L853,1508.5z M946.7,1513.7c0.1,0.7-0.2,1.4-0.7,1.9c-0.4,0.4-1,0.6-1.5,0.5
	l-14.6-12.3c-0.5-0.4-1.1-0.6-1.7-0.5c-0.6,0.1-1.1,0.5-1.4,1l-8.5,15.5c-0.5,0.2-1,0.1-1.6-0.1c-0.6-0.3-1.1-0.9-1.2-1.7l-9.7-52.7
	c1.2,0.2,2.4,0.3,3.6,0.3c4.2,0,8.3-1.1,11.9-3.4c2.6-1.6,5.6-2.6,8.6-2.8c2.9-0.2,5.7-0.9,8.3-2.2L946.7,1513.7z M962.8,1410.7
	c-1.7,3.3-2.5,7.1-2.4,10.8c0.2,6.3-2.9,12.5-8.2,16c-3.1,2.1-5.7,4.9-7.5,8.2c-3,5.6-8.8,9.3-15.1,9.7c-3.7,0.2-7.4,1.4-10.6,3.4
	c-5.4,3.4-12.3,3.7-17.9,0.9c-3.1-1.6-6.6-2.4-10-2.4c-0.3,0-0.5,0-0.8,0c-6.2,0.2-12.5-2.9-16-8.2c-2.1-3.1-4.9-5.7-8.2-7.5
	c-5.6-3-9.3-8.8-9.7-15.1c-0.2-3.7-1.4-7.4-3.4-10.6c-3.4-5.4-3.7-12.3-0.9-17.9c1.7-3.3,2.5-7.1,2.4-10.8c-0.2-6.3,2.9-12.5,8.2-16
	c3.1-2.1,5.7-4.9,7.5-8.2c3-5.6,8.8-9.3,15.1-9.7c3.7-0.2,7.4-1.4,10.6-3.4c5.4-3.4,12.2-3.7,17.9-0.9c3.3,1.7,7.1,2.4,10.8,2.4
	c6.4-0.2,12.5,2.9,16,8.2c2.1,3.1,4.9,5.7,8.2,7.5c5.6,3,9.3,8.8,9.7,15.1c0.2,3.7,1.4,7.4,3.4,10.6
	C965.3,1398.2,965.7,1405,962.8,1410.7z M916.5,1363.4c-10.6-2.3-21.4-0.3-30.5,5.5s-15.4,14.9-17.7,25.5
	c-4.7,21.8,9.2,43.4,31,48.2c2.9,0.6,5.8,0.9,8.6,0.9c18.6,0,35.5-13,39.6-31.9c2.3-10.6,0.3-21.4-5.5-30.5S927,1365.7,916.5,1363.4
	z M943.4,1410.7c-4.3,19.6-23.7,32.1-43.3,27.8c-19.6-4.3-32.1-23.7-27.8-43.3c2.1-9.5,7.7-17.6,15.9-22.9
	c5.9-3.8,12.7-5.8,19.6-5.8c2.6,0,5.2,0.3,7.8,0.8c9.5,2.1,17.6,7.7,22.9,15.9S945.5,1401.2,943.4,1410.7z M641.1,1440.5
	c-1-2.6-4-3.8-6.5-2.8l-9.3,3.8l0,0l0,0L512.7,1487l0,0l0,0c0,0-0.1,0-0.1,0.1c-0.2,0.1-0.4,0.2-0.6,0.4l-16.9,16.2
	c-0.6,0.6-0.8,1.5-0.5,2.3s1.1,1.3,1.9,1.3l0,0h7.2l0,0l0,0l16.2-0.1c0.1,0,0.1,0,0.2,0c0.2,0,0.4,0,0.6-0.1l0,0l0,0l121.9-49.3
	c2.6-1,3.8-4,2.8-6.5L641.1,1440.5z M505.2,1503.1l-1-2.4l9.2-8.8l4.4,4.7l0.1,6.4L505.2,1503.1z M521.9,1497.1l106.3-43l1.7,4.2
	L522,1502L521.9,1497.1z M624.9,1446l1.7,4.2l-106.3,43l-3.3-3.6L624.9,1446z M641.1,1453.8l-7.4,3l-2.5-6.1l0,0l0,0l-2.5-6.1l7.4-3
	c0.5-0.2,1,0,1.2,0.5l4.3,10.6C641.8,1453,641.6,1453.6,641.1,1453.8z M1209.5,1054.5l-10.4-1.9l-0.5-0.2c0,0-0.1,0-0.1-0.1
	c-5.1-1.7-7.7-6.2-6.8-11.6c0.1-0.5,0.2-1,0.3-1.5c0.2-1,0.4-1.8,0.5-2.7c0.3-2.4-0.5-4.2-2.4-5.3c-2-1.2-3.8-1.1-5.7,0.2l-0.4,0.3
	c-1.1,0.8-2.3,1.6-3.5,2.3c-4.7,2.9-10.5,1.7-13.7-2.7c-1.8-2.4-3.6-5-5.5-7.9c-3.3-4.9-2.2-10.7,2.6-14.1c0.5-0.4,1.1-0.7,1.6-1.1
	c0.8-0.5,1.5-1,2.2-1.6c1.8-1.4,2.3-3,1.8-5c-0.5-2.2-1.8-3.4-3.9-3.8c-0.7-0.1-1.4-0.3-2.1-0.4c-0.9-0.2-1.8-0.3-2.7-0.5
	c-2.9-0.6-5.3-2.3-6.8-4.7c-1.4-2.2-1.8-4.9-1.2-7.3c0.5-1.8,0.8-3.7,1.1-5.7c0.2-1,0.3-2,0.5-3c0.9-4.9,4.5-8,9.5-8.3
	c1.8-0.1,3.3,0.2,4.9,0.6c0.6,0.1,1.3,0.3,1.9,0.4c2.2,0.3,3.9-0.4,5.1-2.2c1.3-1.8,1.2-3.6,0-5.6c-0.4-0.6-0.8-1.2-1.2-1.8
	c-0.5-0.7-1-1.5-1.5-2.3c-2.9-4.7-1.8-10.4,2.6-13.6c2.7-1.9,5.5-3.8,8.3-5.6c4.7-3,10.6-1.9,14,2.7c0.4,0.5,0.8,1.1,1.2,1.6
	c0.5,0.7,1,1.4,1.5,2c1.4,1.8,3,2.4,5.2,1.9c2.2-0.5,3.4-1.8,3.9-4c0.3-1.2,0.5-2.2,0.6-3.3c0.7-5.2,3.8-8.6,8.9-9.6l0.4-0.1
	l14.4,2.6l0.3,0.2c4.4,2.8,6.1,7.1,4.9,12.3c-0.1,0.5-0.2,1.1-0.3,1.6c-0.1,0.4-0.1,0.8-0.2,1.2c-0.4,2.3,0.2,4,2.2,5.4
	c1.8,1.3,3.8,1.2,5.8-0.2c0.5-0.3,1-0.7,1.5-1.1c0.6-0.5,1.3-0.9,2-1.3c4.8-3.1,10.7-2.1,14,2.5c2.1,2.8,3.9,5.5,5.6,8.1
	c3.2,4.8,2.1,10.6-2.6,14c-0.6,0.5-1.3,0.9-1.9,1.3c-0.6,0.4-1.2,0.8-1.8,1.3c-1.8,1.3-2.4,2.9-1.9,5.1c0.5,2.2,1.8,3.4,3.9,3.9
	c0.8,0.1,1.5,0.3,2.3,0.4l1.1,0.2c5.7,1,8.1,3.5,9.1,9.2l0.1,0.3l-2.5,13.7l-0.2,0.3c-3.1,5-6.1,6.4-11.9,5.3l-1-0.2
	c-0.7-0.1-1.3-0.2-2-0.4c-2.4-0.4-4.3,0.4-5.4,2.2c-1.2,2-1.1,3.9,0.3,5.8c0.3,0.4,0.5,0.7,0.8,1c0.6,0.8,1.2,1.6,1.7,2.5
	c3.1,4.8,2.1,10.5-2.5,13.8c-2.4,1.8-5,3.6-8,5.5c-4.8,3.2-10.8,2.1-14.2-2.6c-0.4-0.5-0.7-1-1.1-1.6c-0.5-0.7-1-1.4-1.5-2.1
	c-1.3-1.7-3-2.3-5.1-1.8s-3.4,1.7-3.8,3.9c-0.1,0.7-0.3,1.5-0.4,2.2l-0.2,1.1c-1.2,6.5-4.5,9.5-11.1,9.8L1209.5,1054.5z
	 M1200.4,1048.8l9.4,1.7c4.5-0.2,6.3-1.8,7.1-6.5l0.2-1c0.1-0.7,0.3-1.5,0.4-2.2c0.7-3.8,3.2-6.3,6.9-7.1c3.7-0.8,6.9,0.4,9.1,3.3
	c0.6,0.8,1.1,1.5,1.6,2.3c0.3,0.5,0.7,1,1,1.5c2.2,3,5.7,3.7,8.8,1.6c2.9-1.9,5.4-3.7,7.8-5.4c2.9-2.1,3.5-5.4,1.5-8.4
	c-0.5-0.8-1-1.5-1.6-2.3c-0.3-0.4-0.5-0.7-0.8-1.1c-2.3-3.2-2.5-6.7-0.5-10.1c1.9-3.2,5.5-4.8,9.5-4.1c0.7,0.1,1.3,0.2,2,0.4l1,0.2
	c4.1,0.7,5.4,0.2,7.6-3.2l2.2-12.3c-0.7-3.7-1.9-4.8-5.8-5.6l-1.1-0.2c-0.8-0.1-1.6-0.3-2.4-0.4c-3.7-0.7-6.2-3.2-7-6.9
	c-0.9-3.7,0.4-7,3.5-9.2c0.6-0.5,1.3-0.9,2-1.3c0.6-0.4,1.2-0.8,1.8-1.2c2.9-2.1,3.6-5.5,1.6-8.5c-1.7-2.5-3.5-5.1-5.5-7.9
	c-2.1-2.8-5.6-3.4-8.6-1.5c-0.6,0.4-1.2,0.8-1.8,1.3c-0.5,0.4-1.1,0.8-1.6,1.1c-3.4,2.3-7.2,2.3-10.3,0.1c-3.2-2.3-4.6-5.5-3.8-9.4
	c0.1-0.4,0.1-0.8,0.2-1.1c0.1-0.6,0.2-1.3,0.4-1.9c0.8-3.4-0.1-5.9-2.9-7.8l-12.8-2.3c-3.2,0.8-4.9,2.7-5.4,6.1
	c-0.2,1.1-0.4,2.2-0.6,3.5c-0.8,3.7-3.2,6.2-6.8,7.1c-3.7,0.9-7-0.3-9.3-3.3c-0.6-0.7-1.1-1.5-1.6-2.2c-0.4-0.5-0.7-1-1.1-1.5
	c-2.1-2.9-5.6-3.6-8.6-1.7c-2.7,1.8-5.5,3.6-8.1,5.5c-2.8,2-3.4,5.3-1.6,8.2c0.4,0.7,0.9,1.4,1.4,2.1c0.4,0.6,0.9,1.3,1.3,1.9
	c2.2,3.3,2.2,6.9,0,10c-2.1,3.1-5.3,4.5-9,3.9c-0.7-0.1-1.4-0.2-2.1-0.4c-1.4-0.3-2.6-0.5-3.9-0.5c-3.1,0.2-5.2,1.9-5.7,5
	c-0.2,1-0.3,2-0.5,2.9c-0.3,2-0.7,4-1.1,6c-0.3,1.4-0.1,2.9,0.7,4.2c0.6,1,1.9,2.4,4.3,2.9c0.8,0.2,1.7,0.3,2.5,0.5
	c0.8,0.1,1.5,0.3,2.3,0.4c3.6,0.8,6,3.1,6.9,6.8c0.9,3.6-0.3,6.8-3.2,9.2c-0.8,0.6-1.6,1.2-2.4,1.7c-0.5,0.3-1,0.7-1.5,1
	c-3,2.2-3.6,5.5-1.6,8.6c1.9,2.9,3.7,5.4,5.4,7.8c2,2.8,5.5,3.4,8.4,1.6c1.1-0.7,2.1-1.4,3.2-2.2l0.4-0.3c3.1-2.2,6.7-2.3,10-0.3
	c3.3,1.9,4.8,5.2,4.3,9.2c-0.1,1-0.3,2-0.5,3c-0.1,0.5-0.2,0.9-0.3,1.4c-0.6,3.4,0.9,6,4.2,7.1
	C1200,1048.6,1200.2,1048.7,1200.4,1048.8z M1215.7,1018.8c-1.7,0-3.4-0.2-5.1-0.5c-14.8-2.7-24.3-16.5-21.7-31.3
	c1.3-7.1,5.4-13.5,11.2-17.5c5.8-4,13-5.5,20.2-4.2c7.3,1.3,13.5,5.4,17.5,11.3c4,5.9,5.5,13.2,4.1,20c-1,6.8-5.1,13.2-10.9,17.4
	C1226.5,1017.2,1221.2,1018.8,1215.7,1018.8z M1215.2,968.9c-4.6,0-9,1.3-12.8,3.9c-5,3.4-8.5,8.9-9.6,15
	c-2,11.1,4.4,24.1,18.5,26.6c8,1.5,13.9-1.2,17.4-3.7c4.9-3.5,8.4-9,9.2-14.8l0-0.1c1.2-5.6-0.1-12-3.5-17
	c-2.4-3.6-6.9-8.1-14.9-9.6C1218.1,969,1216.6,968.9,1215.2,968.9z M1323.2,1251.4c1.9-1,3-3.3,2.4-5.5v0c-0.6-2.3-2.8-3.7-5.1-3.5
	c2.1-1,3.2-3.3,2.6-5.6c-0.6-2.1-2.5-3.5-4.5-3.5c-0.1-1.3-0.2-2.5-0.2-3.4c0-11,3.5-19.8,6.9-28.3c4.1-10.2,7.9-19.9,4.3-31.2
	c-6.6-23.3-31.3-37.1-54.9-30.7c-24,6.5-39.3,31.6-33.3,54.8c3.4,12.7,12,19.5,20.3,26.2c7.5,6,15.3,12.2,20,23
	c-1.2,1.2-1.8,2.9-1.3,4.7c0.6,2.3,2.8,3.7,5.1,3.5c-2.1,1-3.2,3.3-2.6,5.6c0.6,2.2,2.6,3.6,4.8,3.5c-1.9,1-3,3.3-2.4,5.5
	c0.7,2.5,3.3,4,5.8,3.4l5.9-1.6c2.3,5,7.9,7.8,13.4,6.3c5.5-1.5,9-6.7,8.4-12.2l5.9-1.6c2.5-0.7,4-3.3,3.4-5.8
	C1327.4,1252.7,1325.4,1251.3,1323.2,1251.4z M1264.5,1217.3c-8.1-6.5-15.7-12.6-18.8-23.8c-5.4-20.9,8.4-43.5,30.1-49.3
	c3.5-1,7.1-1.4,10.6-1.4c17.6,0,33.9,11.5,38.9,29.1c3.1,9.9-0.3,18.4-4.2,28.2c-3.4,8.5-7.2,18.1-7.2,29.9c0,1.2,0.1,2.9,0.3,4.4
	l-28.4,7.7C1280.7,1230.2,1272.5,1223.6,1264.5,1217.3z"/>
</svg>
