<?xml version="1.0" encoding="utf-8"?>
<!-- Generator: Adobe Illustrator 26.0.2, SVG Export Plug-In . SVG Version: 6.00 Build 0)  -->
<svg version="1.1" id="Layer_1" xmlns="http://www.w3.org/2000/svg" xmlns:xlink="http://www.w3.org/1999/xlink" x="0px" y="0px"
	 viewBox="0 0 106 78" style="enable-background:new 0 0 106 78;" xml:space="preserve">
<style type="text/css">
	.st0{opacity:0.2;}
	.st1{fill:url(#SVGID_1_);}
	.st2{fill:url(#SVGID_00000092425238523736264110000013818154518820598934_);}
	.st3{opacity:0.4;fill:url(#SVGID_00000031209567656896583600000017326742068694454193_);}
	.st4{opacity:0.2;fill:url(#SVGID_00000138560754336928842100000014672113938179890098_);}
	.st5{opacity:0.2;fill:url(#SVGID_00000140695198576327408470000006464102303868205697_);}
	.st6{fill:#91D8F2;}
	.st7{fill:#C3E8F4;}
	.st8{fill:#B4008D;}
	.st9{fill:none;stroke:#00AEEF;stroke-width:2.2;stroke-miterlimit:10;}
	.st10{fill:none;stroke:#00AEEF;stroke-width:2.2;stroke-linecap:round;stroke-miterlimit:10;}
	.st11{fill:none;stroke:#00AEEF;stroke-width:2.2;stroke-linecap:round;stroke-linejoin:round;stroke-miterlimit:10;}
	.st12{fill:#00AEEF;}
	.st13{fill:none;stroke:#CECAC8;stroke-linecap:round;}
	.st14{fill:none;stroke:#CECAC8;stroke-linecap:round;stroke-dasharray:3.0176,4.0234;}
	.st15{fill:#CECAC8;}
	.st16{fill:none;stroke:#CECAC8;stroke-linecap:round;stroke-dasharray:3,4;}
	
		.st17{fill-rule:evenodd;clip-rule:evenodd;fill:none;stroke:#00AEEF;stroke-width:2.2;stroke-linecap:round;stroke-linejoin:round;stroke-miterlimit:10;}
	.st18{fill-rule:evenodd;clip-rule:evenodd;fill:#00AEEF;}
	.st19{fill:#FFFFFF;}
	.st20{fill:none;stroke:#FFFFFF;stroke-width:2.2;stroke-linecap:round;stroke-linejoin:round;stroke-miterlimit:10;}
	
		.st21{fill-rule:evenodd;clip-rule:evenodd;fill:none;stroke:#FFFFFF;stroke-width:2.2;stroke-linecap:round;stroke-linejoin:round;stroke-miterlimit:10;}
	.st22{fill-rule:evenodd;clip-rule:evenodd;fill:#FFFFFF;}
	.st23{fill:none;stroke:#FFFFFF;stroke-width:2;stroke-linecap:round;stroke-linejoin:round;stroke-miterlimit:10;}
	.st24{fill:none;stroke:#FFFFFF;stroke-miterlimit:10;}
	.st25{fill:none;stroke:#FFFFFF;stroke-linecap:round;stroke-linejoin:round;stroke-miterlimit:10;}
	.st26{fill:none;stroke:#00AEEF;stroke-width:1.2;stroke-linecap:round;stroke-linejoin:round;stroke-miterlimit:10;}
	.st27{opacity:0.2;fill:url(#SVGID_00000034801339705598626960000011534710416252498349_);}
	.st28{opacity:0.2;fill:url(#SVGID_00000077299444888734141590000018363397376613376658_);}
	.st29{opacity:0.21;fill:url(#SVGID_00000118390022666994746140000010115649159280780470_);}
	.st30{opacity:0.2;fill:url(#SVGID_00000122713370287601032560000001192861141438680712_);}
	.st31{fill:url(#SVGID_00000062884058046047284590000016549619190985214132_);}
	.st32{fill:url(#SVGID_00000041296967922333142910000003698365438789407901_);}
	.st33{opacity:0.2;fill:url(#SVGID_00000053513493846132948320000002310225560794299266_);}
	.st34{fill:url(#SVGID_00000126319149797048381100000006887810559845246650_);}
	.st35{opacity:0.2;fill:url(#SVGID_00000158014353047354918550000006095182578921923519_);}
	.st36{fill:url(#SVGID_00000166640688690173263150000009006582074390631589_);}
	.st37{opacity:0.2;fill:url(#SVGID_00000021830419245320557430000001451019792809113018_);}
	.st38{fill:url(#SVGID_00000142865741316398569170000016329423361947799427_);}
	.st39{opacity:0.2;fill:url(#SVGID_00000001645140288929135150000018032110364130132103_);}
	.st40{fill:url(#SVGID_00000005240901129760869690000006950531889432140209_);}
	.st41{fill:url(#SVGID_00000097502011622842749500000013801224091477028251_);}
	.st42{opacity:0.2;fill:url(#SVGID_00000105398432900714330070000003148458831594823356_);}
	.st43{fill:url(#SVGID_00000009550450932833911020000004614261242767283331_);}
	.st44{fill:#36215B;}
	.st45{fill:#764199;}
	.st46{fill:none;stroke:#FFFFFF;stroke-width:1.5;stroke-linecap:round;stroke-linejoin:round;stroke-miterlimit:10;}
	.st47{opacity:0.2;fill:url(#SVGID_00000021835455780000796070000009735554899157619636_);}
	.st48{fill:url(#SVGID_00000026875217155391594740000012112330827053451162_);}
	.st49{fill:url(#SVGID_00000162321196797608930580000014096506425264860056_);}
	.st50{fill:url(#SVGID_00000075153384246247327460000017083942652491920263_);}
	.st51{fill:url(#SVGID_00000183234395040002830770000000107530398443882124_);}
	.st52{fill:url(#SVGID_00000056423295953358269150000012308615122667033267_);}
	.st53{fill:url(#SVGID_00000028285663150236844400000006546232202803027589_);}
	.st54{fill:url(#SVGID_00000017485962744774306540000003250496491471181477_);}
	.st55{fill:url(#SVGID_00000116916890988044912680000008206961707985281692_);}
	.st56{opacity:0.2;fill:url(#SVGID_00000084494169696508160080000015070628377994636185_);}
	.st57{fill:#852065;}
	.st58{fill:#037481;}
	.st59{fill:#7C9AC0;}
	.st60{fill:#FAA51D;}
	.st61{fill:#FBCD7B;}
	.st62{fill:#E07F28;}
	.st63{fill:#375D80;}
	.st64{fill:#B6CFE4;}
	.st65{fill:#3A5DAB;}
	.st66{fill:#B1C6E7;}
	.st67{fill:#1D4486;}
	.st68{fill:#2F1951;}
	.st69{fill:#53144D;}
	.st70{fill:#E0B9D7;}
	.st71{fill:#ACDADD;}
	.st72{fill:#044C4F;}
	.st73{fill:url(#SVGID_00000021803862742599247570000003638315195375047605_);}
	.st74{fill:url(#SVGID_00000164502313410452321530000014642102272300755849_);}
	.st75{fill:none;stroke:#00AEEF;stroke-width:2.5;stroke-linecap:round;stroke-linejoin:round;stroke-miterlimit:10;}
	.st76{fill:url(#SVGID_00000160895504817175729740000011482867055875819908_);}
	.st77{fill:url(#SVGID_00000070806136173550800730000014182507810460976030_);}
	.st78{fill:url(#SVGID_00000178189572131324110930000010566863692124709292_);}
	.st79{fill:url(#SVGID_00000080182525356815755110000008259960060293898400_);}
	.st80{fill:url(#SVGID_00000063593956928497937740000015863626880544202145_);}
	.st81{opacity:0.2;fill:url(#SVGID_00000137132599438686630280000000748307407872012219_);}
	.st82{opacity:0.3;fill:url(#SVGID_00000167374037638584852780000005806628684466984070_);}
	.st83{opacity:0.2;fill:url(#SVGID_00000006678979766827354190000013882266907475445925_);}
	.st84{opacity:0.3;}
	.st85{fill:url(#SVGID_00000162343408331447586190000004989087598247044485_);}
	.st86{fill:url(#SVGID_00000109713648263505886190000006581451355549618870_);}
	.st87{fill:url(#SVGID_00000126322596146771615240000010921445615027596990_);}
	.st88{fill:url(#SVGID_00000159447044000943893850000000763587745694698418_);}
	.st89{fill:url(#SVGID_00000080896417577787901900000006595459806750833286_);}
	.st90{fill:url(#SVGID_00000133512646558508610660000014805209269276706203_);}
	.st91{fill:url(#SVGID_00000088099638786182206620000008693685971338020275_);}
	.st92{fill:url(#SVGID_00000107572704197860952850000009345943974655666090_);}
	.st93{fill:url(#SVGID_00000122684604699639407840000011089124104007879578_);}
	.st94{fill:url(#SVGID_00000037659818689182830260000006699126361013729415_);}
	.st95{fill:url(#SVGID_00000084524859008832788220000012995009129034652322_);}
	.st96{fill:url(#SVGID_00000055697061111640007870000008658551305974270647_);}
	.st97{fill:url(#SVGID_00000060726929832311516690000009843089083657321628_);}
	.st98{fill:url(#SVGID_00000118398736883698946830000009355665706594218416_);}
	.st99{fill:url(#SVGID_00000012464792760021369380000009169152323513785997_);}
	.st100{fill:url(#SVGID_00000093167616673899664100000001703540781574842264_);}
	.st101{fill:url(#SVGID_00000151536938774516844410000015335364710552034439_);}
	.st102{fill:url(#SVGID_00000093139559320216196050000004071882245976556672_);}
	.st103{fill:url(#SVGID_00000155852024183925530190000012249315528069829529_);}
	.st104{fill:url(#SVGID_00000085211460056354488630000004499409814168158883_);}
	.st105{fill:url(#SVGID_00000114061781348778357970000017132532105666234779_);}
	.st106{fill:url(#SVGID_00000149369994244601608580000016911191673781358757_);}
	.st107{fill:url(#SVGID_00000049913840416217136460000004309046186764228492_);}
	.st108{opacity:0.2;fill:url(#SVGID_00000032607502525815373280000018384629484762521506_);}
	.st109{fill:url(#SVGID_00000001643535345428795630000018294021766710252168_);}
	.st110{fill:#A51D2F;}
	.st111{fill:#981A2E;}
	.st112{fill:url(#SVGID_00000086655340437826889510000016182745361329039233_);}
	.st113{fill:url(#SVGID_00000040558912633829374760000015896475704888490897_);}
	.st114{fill:url(#SVGID_00000129187704467882476520000015729205612824331176_);}
	.st115{fill:url(#SVGID_00000052072706928420911050000006392071922672779418_);}
	.st116{opacity:0.2;fill:url(#SVGID_00000178927628684430991630000017177915390537257121_);}
	.st117{opacity:0.4;fill:url(#SVGID_00000076598694026708788420000007575105923991039890_);}
	.st118{opacity:0.2;fill:url(#SVGID_00000092436069566052652930000014253166009493785988_);}
	.st119{fill:url(#SVGID_00000101083643192014981300000001742126364128588434_);}
	.st120{opacity:0.2;fill:url(#SVGID_00000027594745939701247140000008199713411739017123_);}
	.st121{fill:url(#SVGID_00000149343551681069293730000007595261668632286862_);}
</style>
<g>
	<linearGradient id="SVGID_1_" gradientUnits="userSpaceOnUse" x1="44.4257" y1="32.0072" x2="71.8458" y2="59.8445">
		<stop  offset="0" style="stop-color:#A51D2F"/>
		<stop  offset="0.9993" style="stop-color:#6B3F93"/>
	</linearGradient>
	<path style="opacity:0.2;fill:url(#SVGID_1_);" d="M54.8,8.6c-10.9-0.2-19.9,8.6-19.9,19.5c0,13.9,10.7,30.5,16.3,38.2
		c-5.6,0.5-9.7,2-9.7,3.8c0,2.2,5.9,4,13.2,4s13.2-1.8,13.2-4c0-1.9-4.3-3.4-10.1-3.9C63.2,59,73.2,43.7,74,29.8
		C74.6,18.6,66,8.8,54.8,8.6z"/>
	
		<linearGradient id="SVGID_00000074413463363751528480000018442276119877377940_" gradientUnits="userSpaceOnUse" x1="39.4695" y1="28.865" x2="72.2116" y2="54.7225">
		<stop  offset="0" style="stop-color:#A51D2F"/>
		<stop  offset="0.9993" style="stop-color:#6B3F93"/>
	</linearGradient>
	<path style="fill:url(#SVGID_00000074413463363751528480000018442276119877377940_);" d="M67.9,10.7C64,6.5,58.8,4.2,53.2,4.1
		c-5.6-0.1-11,2-15,6c-4,4-6.2,9.2-6.2,14.9c0,15.2,12.4,33.4,17.7,40.6c0.8,1,1.9,1.6,3.2,1.6c0,0,0,0,0,0c1.2,0,2.4-0.6,3.2-1.6
		c5-6.6,16.8-23.5,17.6-38.9C74,20.8,71.9,15,67.9,10.7z M71.1,26.6C70.2,41.2,58.8,57.6,54,64c-0.3,0.3-0.6,0.5-1,0.5c0,0,0,0,0,0
		c-0.4,0-0.8-0.2-1.1-0.5C36.3,43.2,34.7,29.8,34.7,25c0-4.9,1.9-9.5,5.4-13c3.4-3.4,8-5.2,12.8-5.2c0.1,0,0.2,0,0.3,0
		c4.9,0.1,9.4,2.1,12.8,5.7C69.5,16.3,71.3,21.4,71.1,26.6z M63.9,35.6C63.9,35.5,63.9,35.5,63.9,35.6c0-0.1,0-0.1,0-0.1
		c0,0-0.2-0.6-0.6-1.5l-7-17c0,0,0,0,0,0c-0.1-0.2-0.2-0.3-0.4-0.4c0,0,0,0,0,0c0,0,0,0,0,0c0,0,0,0,0,0c0,0,0,0,0,0h0c0,0,0,0,0,0
		c0,0,0,0,0,0c-0.1,0-0.2-0.1-0.3-0.1h-4.8c0,0,0,0,0,0c-0.1,0-0.1,0-0.2,0c0,0,0,0-0.1,0c0,0-0.1,0-0.1,0c0,0,0,0-0.1,0
		c0,0-0.1,0-0.1,0.1c0,0,0,0,0,0c-0.1,0.1-0.1,0.2-0.2,0.3l-7.2,17.3c-0.4,0.7-0.5,1.2-0.5,1.3c0,0,0,0,0,0.1c0,0,0,0,0,0.1
		c0,0.1,0,0.1,0,0.2c0,0,0,0,0,0c0,0.1,0,0.1,0,0.2c0,0,0,0,0,0c0,0,0,0.1,0.1,0.1c0,0,0,0,0,0c0,0,0,0,0,0c0,0,0,0.1,0.1,0.1
		c0,0,0,0,0,0c0,0,0.1,0.1,0.1,0.1c0,0,0,0,0.1,0c0,0,0.1,0,0.1,0c0,0,0,0,0,0c0,0,0.1,0,0.1,0c0,0,0.1,0,0.1,0c0,0,0,0,0,0h5
		c0,0,0,0,0,0c0.1,0,0.2,0,0.2,0c0,0,0,0,0,0c0.1,0,0.1-0.1,0.2-0.1c0,0,0,0,0,0c0.1,0,0.1-0.1,0.1-0.1c0,0,0,0,0-0.1
		c0,0,0-0.1,0.1-0.1l0.1-0.3c0.3-0.6,1.3-2,4.2-2c2.8,0,3.8,1.3,4.1,1.9l0.2,0.4c0,0,0,0.1,0,0.1c0,0,0,0.1,0.1,0.1
		c0,0,0.1,0.1,0.1,0.1c0,0,0,0,0.1,0.1c0,0,0.1,0.1,0.1,0.1c0,0,0,0,0.1,0c0.1,0,0.2,0,0.2,0c0,0,0,0,0,0c0,0,0,0,0,0c0,0,0,0,0,0h5
		c0.1,0,0.1,0,0.2,0c0,0,0,0,0,0c0.1,0,0.1,0,0.2-0.1c0,0,0,0,0,0c0,0,0.1-0.1,0.1-0.1c0,0,0,0,0,0c0,0,0.1-0.1,0.1-0.1c0,0,0,0,0,0
		c0,0,0,0,0,0c0,0,0-0.1,0.1-0.1c0,0,0,0,0,0c0-0.1,0-0.1,0-0.2c0,0,0,0,0,0C63.9,35.6,63.9,35.6,63.9,35.6z M55.5,19.3l4.2,10.3
		c-1.1-0.8-2.4-1.5-4-1.8l-1.8-4.5L55.5,19.3z M50.7,19.3l1.5,3.9l-1.9,4.6c-1.6,0.4-2.9,1.1-4,1.9L50.7,19.3z M53.1,25.3l0.9,2.1
		c-0.2,0-0.5,0-0.8,0c0,0-0.1,0-0.1,0c-0.3,0-0.6,0-0.9,0L53.1,25.3z M54.3,18L53.1,21L51.9,18H54.3z M44.3,34.5
		c0.8-1.5,2.3-3.8,5.3-4.9l-2.1,5.2h-3.3L44.3,34.5z M53.1,32c-1.2,0-2.2,0.2-2.9,0.5l1.4-3.4c0.5-0.1,1-0.1,1.6-0.1
		c0,0,0.1,0,0.1,0c0.5,0,1,0,1.4,0.1l1.3,3.4C55.2,32.2,54.2,32,53.1,32z M58.6,34.8l-2.1-5.3c2.8,1,4.4,3.2,5.2,4.7l0.2,0.6H58.6z
		 M68,67.2c0,1.8-1.7,3.1-5,4.1c-2.7,0.8-6.3,1.2-10.1,1.2c-3.8,0-7.4-0.4-10.1-1.2c-3.3-1-5-2.3-5-4.1c0-2,2-3.4,6.1-4.4
		c0.7-0.2,1.4,0.3,1.6,1c0.2,0.7-0.3,1.4-1,1.6c-3,0.7-3.9,1.6-4,1.8c0.3,0.8,4.4,2.7,12.4,2.7c8,0,12-1.9,12.4-2.7
		c-0.1-0.2-1.1-1.1-4.1-1.8c-0.7-0.2-1.2-0.9-1-1.6c0.2-0.7,0.9-1.2,1.6-1C65.9,63.8,68,65.3,68,67.2z"/>
</g>
</svg>
