<?xml version="1.0" encoding="utf-8"?>
<!-- Generator: Adobe Illustrator 26.0.2, SVG Export Plug-In . SVG Version: 6.00 Build 0)  -->
<svg version="1.1" id="Layer_1" xmlns="http://www.w3.org/2000/svg" xmlns:xlink="http://www.w3.org/1999/xlink" x="0px" y="0px"
	 viewBox="0 0 106 78" style="enable-background:new 0 0 106 78;" xml:space="preserve">
<style type="text/css">
	.st0{opacity:0.2;}
	.st1{fill:url(#SVGID_1_);}
	.st2{fill:url(#SVGID_00000167371064394379191210000014099808209216037520_);}
	.st3{opacity:0.4;fill:url(#SVGID_00000183247608857360976000000013488378326410132127_);}
	.st4{opacity:0.2;fill:url(#SVGID_00000137118706585207843310000007120249573336560826_);}
	.st5{opacity:0.2;fill:url(#SVGID_00000121996868047123196920000015640714976798324626_);}
	.st6{fill:#91D8F2;}
	.st7{fill:#C3E8F4;}
	.st8{fill:#B4008D;}
	.st9{fill:none;stroke:#00AEEF;stroke-width:2.2;stroke-miterlimit:10;}
	.st10{fill:none;stroke:#00AEEF;stroke-width:2.2;stroke-linecap:round;stroke-miterlimit:10;}
	.st11{fill:none;stroke:#00AEEF;stroke-width:2.2;stroke-linecap:round;stroke-linejoin:round;stroke-miterlimit:10;}
	.st12{fill:#00AEEF;}
	.st13{fill:none;stroke:#CECAC8;stroke-linecap:round;}
	.st14{fill:none;stroke:#CECAC8;stroke-linecap:round;stroke-dasharray:3.0176,4.0234;}
	.st15{fill:#CECAC8;}
	.st16{fill:none;stroke:#CECAC8;stroke-linecap:round;stroke-dasharray:3,4;}
	
		.st17{fill-rule:evenodd;clip-rule:evenodd;fill:none;stroke:#00AEEF;stroke-width:2.2;stroke-linecap:round;stroke-linejoin:round;stroke-miterlimit:10;}
	.st18{fill-rule:evenodd;clip-rule:evenodd;fill:#00AEEF;}
	.st19{fill:#FFFFFF;}
	.st20{fill:none;stroke:#FFFFFF;stroke-width:2.2;stroke-linecap:round;stroke-linejoin:round;stroke-miterlimit:10;}
	
		.st21{fill-rule:evenodd;clip-rule:evenodd;fill:none;stroke:#FFFFFF;stroke-width:2.2;stroke-linecap:round;stroke-linejoin:round;stroke-miterlimit:10;}
	.st22{fill-rule:evenodd;clip-rule:evenodd;fill:#FFFFFF;}
	.st23{fill:none;stroke:#FFFFFF;stroke-width:2;stroke-linecap:round;stroke-linejoin:round;stroke-miterlimit:10;}
	.st24{fill:none;stroke:#FFFFFF;stroke-miterlimit:10;}
	.st25{fill:none;stroke:#FFFFFF;stroke-linecap:round;stroke-linejoin:round;stroke-miterlimit:10;}
	.st26{fill:none;stroke:#00AEEF;stroke-width:1.2;stroke-linecap:round;stroke-linejoin:round;stroke-miterlimit:10;}
	.st27{opacity:0.2;fill:url(#SVGID_00000121977627856803357230000004494036294265526679_);}
	.st28{opacity:0.2;fill:url(#SVGID_00000039854064225586619720000015357319752229402004_);}
	.st29{opacity:0.21;fill:url(#SVGID_00000092447130371493697500000016340695118168355980_);}
	.st30{opacity:0.2;fill:url(#SVGID_00000020371504207504688110000001120954726921093773_);}
	.st31{fill:url(#SVGID_00000124124472013008859140000005902518367191311533_);}
	.st32{fill:url(#SVGID_00000131343866230327103050000016880494551977871525_);}
	.st33{opacity:0.2;fill:url(#SVGID_00000082364834344427742840000009643234434163010724_);}
	.st34{fill:url(#SVGID_00000140705787869723671330000002084487394132297643_);}
	.st35{opacity:0.2;fill:url(#SVGID_00000166667551494112351250000012353549129610366095_);}
	.st36{fill:url(#SVGID_00000031206519049045623240000007572376786952621961_);}
	.st37{opacity:0.2;fill:url(#SVGID_00000090276475861688572740000006393914887295203515_);}
	.st38{fill:url(#SVGID_00000109002806678798450590000018095927597796132003_);}
	.st39{opacity:0.2;fill:url(#SVGID_00000183957365552949450560000007290718205296155053_);}
	.st40{fill:url(#SVGID_00000000210896025561942760000012129776054226513316_);}
	.st41{fill:url(#SVGID_00000153706573855946398030000017640997635079517342_);}
	.st42{opacity:0.2;fill:url(#SVGID_00000183967620637671545060000009141615373329187719_);}
	.st43{fill:url(#SVGID_00000047752738164632105690000013875523911041383578_);}
	.st44{fill:#36215B;}
	.st45{fill:#764199;}
	.st46{fill:none;stroke:#FFFFFF;stroke-width:1.5;stroke-linecap:round;stroke-linejoin:round;stroke-miterlimit:10;}
	.st47{opacity:0.2;fill:url(#SVGID_00000151524773252331437560000017514130361922564263_);}
	.st48{fill:url(#SVGID_00000112601289046508621920000004407113097160835995_);}
	.st49{fill:url(#SVGID_00000136369970981617110250000006423009998138475416_);}
	.st50{fill:url(#SVGID_00000101812180367143490250000017128921538809733017_);}
	.st51{fill:url(#SVGID_00000008143784559576514970000011673903629921090703_);}
	.st52{fill:url(#SVGID_00000091733911955909417160000002590056499161573804_);}
	.st53{fill:url(#SVGID_00000023245540235331017330000014435687159771938214_);}
	.st54{fill:url(#SVGID_00000031195601256712495650000003443392275944447133_);}
	.st55{fill:url(#SVGID_00000112617467370671404970000008747665321609571235_);}
	.st56{opacity:0.2;fill:url(#SVGID_00000103968344985683311350000010523497701084708482_);}
	.st57{fill:#852065;}
	.st58{fill:#037481;}
	.st59{fill:#7C9AC0;}
	.st60{fill:#FAA51D;}
	.st61{fill:#FBCD7B;}
	.st62{fill:#E07F28;}
	.st63{fill:#375D80;}
	.st64{fill:#B6CFE4;}
	.st65{fill:#3A5DAB;}
	.st66{fill:#B1C6E7;}
	.st67{fill:#1D4486;}
	.st68{fill:#2F1951;}
	.st69{fill:#53144D;}
	.st70{fill:#E0B9D7;}
	.st71{fill:#ACDADD;}
	.st72{fill:#044C4F;}
	.st73{fill:url(#SVGID_00000035502077255444457690000014124452130265811615_);}
	.st74{fill:url(#SVGID_00000134949320570847976760000003016273054263926206_);}
	.st75{fill:none;stroke:#00AEEF;stroke-width:2.5;stroke-linecap:round;stroke-linejoin:round;stroke-miterlimit:10;}
	.st76{fill:url(#SVGID_00000018233378555554357500000017215809117907270282_);}
	.st77{fill:url(#SVGID_00000160894438098896814210000012853984329102580384_);}
	.st78{fill:url(#SVGID_00000080208305205723237470000003755194495109903025_);}
	.st79{fill:url(#SVGID_00000084497788432580502610000001194863437755058818_);}
	.st80{fill:url(#SVGID_00000113346486943296060660000002988876190771280278_);}
	.st81{opacity:0.2;fill:url(#SVGID_00000023266365678129731600000013368315316575324545_);}
	.st82{opacity:0.3;fill:url(#SVGID_00000004534287673380549280000010801700027261964192_);}
	.st83{opacity:0.2;fill:url(#SVGID_00000075841189164678267650000013882871368069473425_);}
	.st84{opacity:0.3;}
	.st85{fill:url(#SVGID_00000030467336592084252950000013026133839808635793_);}
	.st86{fill:url(#SVGID_00000109720002422072997490000010644336982660583812_);}
	.st87{fill:url(#SVGID_00000118355253650771860100000005553592647229188227_);}
	.st88{fill:url(#SVGID_00000030485433285096121080000018415527830242226092_);}
	.st89{fill:url(#SVGID_00000006675043715877054610000007331362150153058180_);}
	.st90{fill:url(#SVGID_00000037651821881174027860000002669329646650143402_);}
	.st91{fill:url(#SVGID_00000125575308857977423990000007418424904092595897_);}
	.st92{fill:url(#SVGID_00000102538219028889387540000007902038351187470992_);}
	.st93{fill:url(#SVGID_00000135658003033344060690000008305801562115385495_);}
	.st94{fill:url(#SVGID_00000021831706026951154990000010112064831203811212_);}
	.st95{fill:url(#SVGID_00000002350318853993305260000015462017994941923213_);}
	.st96{fill:url(#SVGID_00000045580685846804151320000000997868578470167738_);}
	.st97{fill:url(#SVGID_00000169527850664472230050000005906051338630848661_);}
	.st98{fill:url(#SVGID_00000135652665879005184580000010561529135891556521_);}
	.st99{fill:url(#SVGID_00000160164226807859447820000016215882688476993982_);}
	.st100{fill:url(#SVGID_00000007390672610448482480000012586092500518858655_);}
	.st101{fill:url(#SVGID_00000161615893455833731590000017397761597748042157_);}
	.st102{fill:url(#SVGID_00000075161817671305054000000010311911005873188276_);}
	.st103{fill:url(#SVGID_00000055693064546049440410000003370902599234390949_);}
	.st104{fill:url(#SVGID_00000173881553509537237160000016529105298587004092_);}
	.st105{fill:url(#SVGID_00000120560473835179566180000010067519252305027720_);}
	.st106{fill:url(#SVGID_00000001643040707801628520000000847036087689775000_);}
	.st107{fill:url(#SVGID_00000136389303855979870220000017506027455569345972_);}
	.st108{opacity:0.2;fill:url(#SVGID_00000007418251084708451690000013870035439318011789_);}
	.st109{fill:url(#SVGID_00000011739405726668264830000011231989197954812348_);}
	.st110{fill:#A51D2F;}
	.st111{fill:#981A2E;}
	.st112{fill:url(#SVGID_00000164510450473539915740000008741700583814079894_);}
	.st113{fill:url(#SVGID_00000143595776471936117990000003818279917923907984_);}
	.st114{fill:url(#SVGID_00000124851815127628774520000016141759174369751702_);}
	.st115{fill:url(#SVGID_00000179647450624647227070000014413241388177177748_);}
	.st116{opacity:0.2;fill:url(#SVGID_00000168815425996148584820000017281803723833339536_);}
	.st117{opacity:0.4;fill:url(#SVGID_00000137846379553550138290000002942751836191570595_);}
	.st118{opacity:0.2;fill:url(#SVGID_00000165213115007101245740000007898070008566331776_);}
	.st119{fill:url(#SVGID_00000166665972051197155030000018293241071719463318_);}
	.st120{opacity:0.2;fill:url(#SVGID_00000106868518568568731710000008473024164652524982_);}
	.st121{fill:url(#SVGID_00000031899422261222129320000015126820901277282980_);}
</style>
<g>
	<linearGradient id="SVGID_1_" gradientUnits="userSpaceOnUse" x1="17.2235" y1="19.0212" x2="89.9641" y2="67.1376">
		<stop  offset="0" style="stop-color:#F26921"/>
		<stop  offset="1" style="stop-color:#ED1065"/>
	</linearGradient>
	<path class="st1" d="M91.2,22.3V42c0,2.9-2.4,5.3-5.3,5.3H61.1c-0.7,0-1.2-0.6-1.2-1.2s0.6-1.2,1.2-1.2h24.7c1.6,0,2.8-1.3,2.8-2.8
		V22.3c0-1.3-1.1-2.4-2.4-2.4H20.9c-1.3,0-2.4,1.1-2.4,2.4V42c0,1.6,1.3,2.8,2.8,2.8H46c0.7,0,1.2,0.6,1.2,1.2s-0.6,1.2-1.2,1.2
		H21.4c-2.9,0-5.3-2.4-5.3-5.3V22.3c0-2.7,2.2-4.9,4.9-4.9h65.4C89,17.4,91.2,19.6,91.2,22.3z M89.9,47.2c-0.7,0-1.2,0.6-1.2,1.2
		v15.4c0,1.3-1.1,2.4-2.4,2.4H20.9c-1.3,0-2.4-1.1-2.4-2.4V48.5c0-0.7-0.6-1.2-1.2-1.2S16,47.8,16,48.5v15.4c0,2.7,2.2,4.9,4.9,4.9
		h65.4c2.7,0,4.9-2.2,4.9-4.9V48.5C91.2,47.8,90.6,47.2,89.9,47.2z M43.6,16.4c0.7,0,1.2-0.6,1.2-1.3v-2.2c0-1.5,1.3-2.8,2.8-2.8h12
		c1.5,0,2.8,1.3,2.8,2.8v2.2c0,0.7,0.6,1.3,1.2,1.3s1.2-0.6,1.2-1.3v-2.2c0-2.9-2.4-5.3-5.3-5.3h-12c-2.9,0-5.3,2.4-5.3,5.3v2.2
		C42.3,15.8,42.9,16.4,43.6,16.4z M50.1,54.4c-0.7,0-1.2-0.6-1.2-1.2v-9.4c0-0.7,0.6-1.2,1.2-1.2h7c0.7,0,1.2,0.6,1.2,1.2v9.4
		c0,0.7-0.6,1.2-1.2,1.2H50.1z M51.3,51.9h4.5V45h-4.5V51.9z"/>
	
		<linearGradient id="SVGID_00000070077126561593172700000011140369009462466482_" gradientUnits="userSpaceOnUse" x1="20.2166" y1="21.1752" x2="91.4924" y2="67.4623">
		<stop  offset="0" style="stop-color:#F26921"/>
		<stop  offset="1" style="stop-color:#ED1065"/>
	</linearGradient>
	<path style="opacity:0.2;fill:url(#SVGID_00000070077126561593172700000011140369009462466482_);" d="M88.5,19.6H67.2v-5.1
		c0-2.9-2.4-5.3-5.3-5.3h-12c-2.9,0-5.3,2.4-5.3,5.3v5.1H23.2c-2,0-3.6,1.6-3.6,3.6v22.6v19.5c0,2,1.6,3.6,3.6,3.6h65.3
		c2,0,3.6-1.6,3.6-3.6V45.9V23.3C92.2,21.3,90.5,19.6,88.5,19.6z M47.1,14.5c0-1.5,1.3-2.8,2.8-2.8h12c1.5,0,2.8,1.3,2.8,2.8v5.1
		H47.1V14.5z"/>
</g>
</svg>
