<?xml version="1.0" encoding="utf-8"?>
<!-- Generator: Adobe Illustrator 26.0.2, SVG Export Plug-In . SVG Version: 6.00 Build 0)  -->
<svg version="1.1" id="Layer_1" xmlns="http://www.w3.org/2000/svg" xmlns:xlink="http://www.w3.org/1999/xlink" x="0px" y="0px"
	 viewBox="0 0 106 78" style="enable-background:new 0 0 106 78;" xml:space="preserve">
<style type="text/css">
	.st0{opacity:0.2;}
	.st1{fill:url(#SVGID_1_);}
	.st2{fill:url(#SVGID_00000178177268916892536950000011410872642139453118_);}
	.st3{opacity:0.4;fill:url(#SVGID_00000076584404904440466800000012503715101770017687_);}
	.st4{opacity:0.2;fill:url(#SVGID_00000041264562756269288470000004780046183842921890_);}
	.st5{opacity:0.2;fill:url(#SVGID_00000044869916983409310880000001144179791550004628_);}
	.st6{fill:#91D8F2;}
	.st7{fill:#C3E8F4;}
	.st8{fill:#B4008D;}
	.st9{fill:none;stroke:#00AEEF;stroke-width:2.2;stroke-miterlimit:10;}
	.st10{fill:none;stroke:#00AEEF;stroke-width:2.2;stroke-linecap:round;stroke-miterlimit:10;}
	.st11{fill:none;stroke:#00AEEF;stroke-width:2.2;stroke-linecap:round;stroke-linejoin:round;stroke-miterlimit:10;}
	.st12{fill:#00AEEF;}
	.st13{fill:none;stroke:#CECAC8;stroke-linecap:round;}
	.st14{fill:none;stroke:#CECAC8;stroke-linecap:round;stroke-dasharray:3.0176,4.0234;}
	.st15{fill:#CECAC8;}
	.st16{fill:none;stroke:#CECAC8;stroke-linecap:round;stroke-dasharray:3,4;}
	
		.st17{fill-rule:evenodd;clip-rule:evenodd;fill:none;stroke:#00AEEF;stroke-width:2.2;stroke-linecap:round;stroke-linejoin:round;stroke-miterlimit:10;}
	.st18{fill-rule:evenodd;clip-rule:evenodd;fill:#00AEEF;}
	.st19{fill:#FFFFFF;}
	.st20{fill:none;stroke:#FFFFFF;stroke-width:2.2;stroke-linecap:round;stroke-linejoin:round;stroke-miterlimit:10;}
	
		.st21{fill-rule:evenodd;clip-rule:evenodd;fill:none;stroke:#FFFFFF;stroke-width:2.2;stroke-linecap:round;stroke-linejoin:round;stroke-miterlimit:10;}
	.st22{fill-rule:evenodd;clip-rule:evenodd;fill:#FFFFFF;}
	.st23{fill:none;stroke:#FFFFFF;stroke-width:2;stroke-linecap:round;stroke-linejoin:round;stroke-miterlimit:10;}
	.st24{fill:none;stroke:#FFFFFF;stroke-miterlimit:10;}
	.st25{fill:none;stroke:#FFFFFF;stroke-linecap:round;stroke-linejoin:round;stroke-miterlimit:10;}
	.st26{fill:none;stroke:#00AEEF;stroke-width:1.2;stroke-linecap:round;stroke-linejoin:round;stroke-miterlimit:10;}
	.st27{opacity:0.2;fill:url(#SVGID_00000148646522916223269110000004683681613299300013_);}
	.st28{opacity:0.2;fill:url(#SVGID_00000008844852641417601690000011384475449715969960_);}
	.st29{opacity:0.21;fill:url(#SVGID_00000034806844184141953550000009365020918297980544_);}
	.st30{opacity:0.2;fill:url(#SVGID_00000042002434912103298320000013857424433386781828_);}
	.st31{fill:url(#SVGID_00000150824778014081896110000014905440532517042879_);}
	.st32{fill:url(#SVGID_00000057112372001659248990000003677864162700257968_);}
	.st33{opacity:0.2;fill:url(#SVGID_00000067923530537669793180000013029690221446842267_);}
	.st34{fill:url(#SVGID_00000067947933144592639050000010708812466529112214_);}
	.st35{opacity:0.2;fill:url(#SVGID_00000000208884777667990050000002031001389399709843_);}
	.st36{fill:url(#SVGID_00000019638309169270540450000003668849990760603524_);}
	.st37{opacity:0.2;fill:url(#SVGID_00000000183720460995751940000002093712438128012692_);}
	.st38{fill:url(#SVGID_00000044862121622696089860000008347113742053790090_);}
	.st39{opacity:0.2;fill:url(#SVGID_00000121959726758085225720000011688662084255431605_);}
	.st40{fill:url(#SVGID_00000116221349502581218500000002885520864185852071_);}
	.st41{fill:url(#SVGID_00000029031884222419781390000003828661815229106331_);}
	.st42{opacity:0.2;fill:url(#SVGID_00000142887589092436621950000006441667338671685019_);}
	.st43{fill:url(#SVGID_00000103247469144837914460000012310077316271861175_);}
	.st44{fill:#36215B;}
	.st45{fill:#764199;}
	.st46{fill:none;stroke:#FFFFFF;stroke-width:1.5;stroke-linecap:round;stroke-linejoin:round;stroke-miterlimit:10;}
	.st47{opacity:0.2;fill:url(#SVGID_00000101093359856978157970000005691509489219301268_);}
	.st48{fill:url(#SVGID_00000055701013104078159450000010939971556069027212_);}
	.st49{fill:url(#SVGID_00000081620049316888895130000015402903176154086066_);}
	.st50{fill:url(#SVGID_00000059298488824508143420000009516228231420340118_);}
	.st51{fill:url(#SVGID_00000093166612995215746520000012807124916676821643_);}
	.st52{fill:url(#SVGID_00000088117956291097411160000009769160896180079799_);}
	.st53{fill:url(#SVGID_00000141429452441521344100000008759163742474348455_);}
	.st54{fill:url(#SVGID_00000100349958393135655680000003659846180091986562_);}
	.st55{fill:url(#SVGID_00000173143272999226629870000000280553159948983949_);}
	.st56{opacity:0.2;fill:url(#SVGID_00000042016980958111677310000009930539246706763690_);}
	.st57{fill:#852065;}
	.st58{fill:#037481;}
	.st59{fill:#7C9AC0;}
	.st60{fill:#FAA51D;}
	.st61{fill:#FBCD7B;}
	.st62{fill:#E07F28;}
	.st63{fill:#375D80;}
	.st64{fill:#B6CFE4;}
	.st65{fill:#3A5DAB;}
	.st66{fill:#B1C6E7;}
	.st67{fill:#1D4486;}
	.st68{fill:#2F1951;}
	.st69{fill:#53144D;}
	.st70{fill:#E0B9D7;}
	.st71{fill:#ACDADD;}
	.st72{fill:#044C4F;}
	.st73{fill:url(#SVGID_00000019646498462199893650000013566187667132874676_);}
	.st74{fill:url(#SVGID_00000176764418523297052190000016010203519038121119_);}
	.st75{fill:none;stroke:#00AEEF;stroke-width:2.5;stroke-linecap:round;stroke-linejoin:round;stroke-miterlimit:10;}
	.st76{fill:url(#SVGID_00000114778715302889176630000000838444886029411991_);}
	.st77{fill:url(#SVGID_00000144332313140086710740000004750532348748413862_);}
	.st78{fill:url(#SVGID_00000094593465285582513180000014327296941455927704_);}
	.st79{fill:url(#SVGID_00000148625207014666997170000009202259006781163181_);}
	.st80{fill:url(#SVGID_00000011729399723977559390000010743104150763470001_);}
	.st81{opacity:0.2;fill:url(#SVGID_00000026144321928476684780000007582853836730271909_);}
	.st82{opacity:0.3;fill:url(#SVGID_00000047757483368359624940000010967901866608920200_);}
	.st83{opacity:0.2;fill:url(#SVGID_00000050654964520851575130000004529241914648795059_);}
	.st84{opacity:0.3;}
	.st85{fill:url(#SVGID_00000141425730917515260860000017644403890704304316_);}
	.st86{fill:url(#SVGID_00000106854727967361691380000010773573185088501122_);}
	.st87{fill:url(#SVGID_00000077319625312043493110000014179471004324444823_);}
	.st88{fill:url(#SVGID_00000131361873844255366220000013001541172099850114_);}
	.st89{fill:url(#SVGID_00000045594143131699966610000016834172791281620390_);}
	.st90{fill:url(#SVGID_00000058557184872529241910000003701578711664184748_);}
	.st91{fill:url(#SVGID_00000076595875335044942370000017778366931551671450_);}
	.st92{fill:url(#SVGID_00000071528747584471019730000016036421754298859186_);}
	.st93{fill:url(#SVGID_00000018946636486312041940000002787210813363975353_);}
	.st94{fill:url(#SVGID_00000137853566923249303780000016890387217453160606_);}
	.st95{fill:url(#SVGID_00000070117898390387081050000013129550541212726945_);}
	.st96{fill:url(#SVGID_00000083057513518577407070000008437020819439708055_);}
	.st97{fill:url(#SVGID_00000116928967543090528940000002649319293513014704_);}
	.st98{fill:url(#SVGID_00000035520389154990918220000002698391967539220884_);}
	.st99{fill:url(#SVGID_00000107552904015122868060000002340189838978344580_);}
	.st100{fill:url(#SVGID_00000121963114330512546870000004345193932985570461_);}
	.st101{fill:url(#SVGID_00000164511960546392867530000008457596993853089683_);}
	.st102{fill:url(#SVGID_00000129185559281075746430000002699612765485497992_);}
	.st103{fill:url(#SVGID_00000108293346565551118700000015417372812403211442_);}
	.st104{fill:url(#SVGID_00000063614244909421857870000017500036493307956156_);}
	.st105{fill:url(#SVGID_00000159454848355141620740000002037495477961731006_);}
	.st106{fill:url(#SVGID_00000130628657772499705050000004150254581555606198_);}
	.st107{fill:url(#SVGID_00000117677541942078077080000012049469461198212496_);}
	.st108{opacity:0.2;fill:url(#SVGID_00000028314870980514419270000017793613407785271690_);}
	.st109{fill:url(#SVGID_00000152980540827434280270000005688656589925078401_);}
	.st110{fill:#A51D2F;}
	.st111{fill:#981A2E;}
	.st112{fill:url(#SVGID_00000069359052221971111510000000165595135866705053_);}
	.st113{fill:url(#SVGID_00000129899928693299403700000010421353742481865616_);}
	.st114{fill:url(#SVGID_00000106842203543702350740000017126837896036976557_);}
	.st115{fill:url(#SVGID_00000004509927621783819150000014106912467388113286_);}
	.st116{opacity:0.2;fill:url(#SVGID_00000135688448180895466860000005851597556219901348_);}
	.st117{opacity:0.4;fill:url(#SVGID_00000083776527110636658520000004994449461790789033_);}
	.st118{opacity:0.2;fill:url(#SVGID_00000081620314527300415370000017770252112601828534_);}
	.st119{fill:url(#SVGID_00000093898750733871666290000001145365001599355561_);}
	.st120{opacity:0.2;fill:url(#SVGID_00000150812757412715833460000002712777731877905042_);}
	.st121{fill:url(#SVGID_00000139980081312568191880000008698678309801443969_);}
</style>
<g>
	<linearGradient id="SVGID_1_" gradientUnits="userSpaceOnUse" x1="75.008" y1="61.661" x2="36.2607" y2="20.311">
		<stop  offset="0" style="stop-color:#A41D2E"/>
		<stop  offset="1" style="stop-color:#BE1A8D"/>
	</linearGradient>
	<circle style="opacity:0.2;fill:url(#SVGID_1_);" cx="55.6" cy="41" r="28.3"/>
	
		<linearGradient id="SVGID_00000104665192819232869120000012596870250882464662_" gradientUnits="userSpaceOnUse" x1="32.7038" y1="17.997" x2="75.1035" y2="59.4368">
		<stop  offset="0" style="stop-color:#BE1A8D"/>
		<stop  offset="1" style="stop-color:#A41D2E"/>
	</linearGradient>
	<path style="fill:url(#SVGID_00000104665192819232869120000012596870250882464662_);" d="M53.5,8.7C37.2,8.7,23.9,22,23.9,38.3
		S37.2,68,53.5,68s29.7-13.3,29.7-29.7S69.9,8.7,53.5,8.7z M53.5,65.3c-14.9,0-27-12.1-27-27s12.1-27,27-27s27,12.1,27,27
		S68.4,65.3,53.5,65.3z M71.2,50.5c-1.1,1.6-2.4,3-3.9,4.3c-3,2.5-6.6,4.1-10.4,4.7c-0.1,0-0.1,0-0.2,0c-0.6,0-1.2-0.5-1.3-1.1
		c-0.1-0.7,0.4-1.4,1.1-1.5c3.3-0.5,6.5-2,9.1-4.1c1.3-1.1,2.5-2.4,3.4-3.8c0.4-0.6,1.2-0.8,1.8-0.3C71.4,49,71.6,49.9,71.2,50.5z
		 M74.9,38.3c0,1.6-0.2,3.2-0.5,4.7c-0.3,1.3-0.7,2.5-1.2,3.7c-0.2,0.5-0.7,0.8-1.2,0.8c-0.2,0-0.4,0-0.5-0.1
		c-0.7-0.3-1-1.1-0.7-1.7c0.4-1,0.8-2.1,1.1-3.3c0.3-1.4,0.5-2.7,0.5-4.1c0-0.7,0.6-1.3,1.3-1.3C74.3,37,74.9,37.6,74.9,38.3z
		 M69.6,28.6c-0.4-0.6-0.2-1.4,0.4-1.8c0.6-0.4,1.4-0.2,1.8,0.4c0.2,0.4,0.5,0.8,0.7,1.2c0.3,0.6,0.1,1.4-0.6,1.8
		c-0.2,0.1-0.4,0.2-0.6,0.2c-0.5,0-0.9-0.3-1.2-0.7C70,29.3,69.8,29,69.6,28.6z M48.3,57.8c-0.2,0.6-0.7,0.9-1.3,0.9
		c-0.1,0-0.3,0-0.4-0.1c-3.1-1-6-2.8-8.3-5.2c-4-4-6.3-9.4-6.3-15.1c0-11.8,9.6-21.4,21.4-21.4c3.6,0,7.1,0.9,10.2,2.6
		c0.6,0.3,0.9,1.2,0.5,1.8c-0.3,0.6-1.2,0.9-1.8,0.5c-2.7-1.5-5.8-2.3-8.9-2.3c-10.3,0-18.8,8.4-18.8,18.8c0,5,2,9.7,5.5,13.3
		c2,2,4.6,3.6,7.3,4.5C48.2,56.4,48.6,57.1,48.3,57.8z M59.2,44.5c0.5-0.8,0.7-1.6,0.7-2.5c0-1.2-0.3-2.2-0.8-3
		c-0.5-0.8-1.2-1.4-2-1.8c-0.7-0.4-1.5-0.7-2.5-1v-6.3c0.5,0.1,0.9,0.3,1.3,0.5c0.6,0.3,1.1,0.7,1.5,1.2c0.2,0.2,0.5,0.3,0.8,0.3
		c0.3,0,0.7-0.1,0.9-0.4c0.4-0.3,0.4-0.7,0.4-0.9c0-0.3-0.2-0.7-0.5-1.1c-0.5-0.6-1.3-1.2-2.2-1.5c-0.7-0.3-1.5-0.5-2.3-0.6v-1.6
		c0-0.4-0.1-0.7-0.4-0.9c-0.2-0.3-0.6-0.4-0.9-0.4c-0.4,0-0.7,0.1-0.9,0.4c-0.3,0.2-0.4,0.6-0.4,0.9v1.6c-1.5,0.2-2.7,0.7-3.6,1.6
		c-1,1-1.6,2.2-1.6,3.6c0,1.6,0.5,2.9,1.5,3.7c0.9,0.7,2.1,1.4,3.6,1.9v6.5c-1.4-0.2-2.6-0.9-3.6-2c-0.3-0.3-0.6-0.4-0.9-0.4
		c-0.4,0-0.7,0.1-0.9,0.4c-0.3,0.3-0.4,0.6-0.4,0.9c0,0.4,0.2,0.8,0.5,1c0.9,0.9,1.8,1.5,2.7,2c0.8,0.4,1.7,0.6,2.7,0.8v2.5
		c0,0.4,0.1,0.7,0.4,0.9c0.2,0.2,0.6,0.4,0.9,0.4c0.4,0,0.7-0.1,0.9-0.4c0.2-0.2,0.4-0.6,0.4-0.9v-2.5c0.9-0.1,1.7-0.4,2.5-0.8
		C58.1,45.9,58.7,45.2,59.2,44.5z M52.1,35.2c-0.7-0.3-1.3-0.7-1.7-1c-0.5-0.4-0.7-1-0.7-1.7c0-0.7,0.3-1.3,0.8-1.8
		c0.4-0.4,1-0.7,1.7-0.8V35.2z M54.7,44.5V39c0.7,0.3,1.3,0.7,1.7,1.1c0.5,0.5,0.7,1.1,0.8,1.8c0,0.7-0.3,1.3-0.8,1.8
		C56,44.1,55.4,44.4,54.7,44.5z"/>
</g>
</svg>
