<?xml version="1.0" encoding="utf-8"?>
<!-- Generator: Adobe Illustrator 26.0.3, SVG Export Plug-In . SVG Version: 6.00 Build 0)  -->
<svg version="1.1" id="Layer_1" xmlns="http://www.w3.org/2000/svg" xmlns:xlink="http://www.w3.org/1999/xlink" x="0px" y="0px"
	 viewBox="0 0 311.9 260.1" style="enable-background:new 0 0 311.9 260.1;" xml:space="preserve">
<style type="text/css">
	.st0{fill:#502D1E;}
	.st1{fill:#98002E;}
	.st2{fill:#FDB714;}
	.st3{fill:#AA6D29;}
</style>
<g>
	<g>
		<path class="st0" d="M48.3,179.4c-0.8-0.7-1.4-1.7-1.9-2.9l-10.3-28.4l-0.2,0.1c-0.8,0.3-1.5,0.6-2.1,0.8
			c-0.6,0.3-1.3,0.5-2.2,0.6l-0.4,0.1l0.2,0.3c0.2,0.2,0.3,0.5,0.4,0.8c0.1,0.4,0.2,0.6,0.2,0.7c0,0.1,0,0.3-0.1,0.4
			c-0.1,0.2-0.2,0.4-0.3,0.6l-8.5,20.9c-0.3,0.9-0.7,1.7-1,2.5c-0.3,0.8-0.7,1.5-1.2,2.1c-0.4,0.6-1,1.2-1.6,1.6
			c-0.6,0.5-1.5,0.8-2.4,1l-0.2,0v1.1l0.3,0c1-0.1,2-0.1,3-0.1c1.9-0.1,3.9-0.1,5.9,0c1,0,2,0.1,2.9,0.1l0.3,0v-1.1l-0.2,0
			c-0.4-0.1-0.8-0.2-1.3-0.3c-0.5-0.2-1-0.4-1.5-0.6c-0.5-0.3-0.9-0.6-1.2-1c-0.3-0.4-0.5-0.8-0.5-1.4c0-0.2,0-0.4,0.1-0.5
			c0.1-0.2,0.2-0.4,0.3-0.7l3.2-8.8h9.9l3.1,8.9c0.1,0.2,0.2,0.5,0.3,0.8c0.1,0.2,0.2,0.5,0.2,0.7c0,0.8-0.4,1.5-1.3,2
			c-0.9,0.5-2,0.9-3.4,1l-0.2,0v1.1l0.3,0c0.6,0,1.1-0.1,1.6-0.1c0.5,0,1-0.1,1.5-0.1c0.5,0,1.1,0,1.8,0h2.3c1.4,0,2.7,0,4,0
			c1.3,0,2.6,0.1,3.9,0.1l0.3,0v-1.1l-0.2,0C50.2,180.6,49,180.1,48.3,179.4z M28.6,165.4l4.5-11.5l4.1,11.5H28.6z"/>
		<path class="st0" d="M60.9,181.7c0.8,0,1.6,0,2.5,0h14.5c1.2,0,2.4,0,3.6,0c1.2,0,2.4,0.1,3.6,0.1l0.2,0l4-11.5h-1.2l-0.1,0.1
			c-1,1.6-2,3-2.9,4.2c-0.9,1.2-2,2.2-3.1,2.9c-1.1,0.8-2.4,1.4-3.8,1.7c-1.4,0.4-3.1,0.6-5,0.6c-0.8,0-1.7-0.1-2.5-0.2
			c-0.8-0.1-1.6-0.3-2.4-0.4v-23.4c0-1,0-1.8,0.1-2.5c0.1-0.6,0.3-1.1,0.7-1.5c0.4-0.4,1-0.8,1.8-1c0.9-0.3,2.1-0.6,3.7-0.8l0.2,0
			v-1.1l-0.3,0c-1.4,0.1-2.8,0.1-4.2,0.1c-2.6,0.1-5.4,0.1-8,0c-1.3,0-2.5-0.1-3.8-0.1l-0.3,0v1.1l0.2,0c1.1,0.1,2.1,0.3,2.7,0.5
			c0.6,0.2,1.1,0.6,1.4,1.1c0.3,0.5,0.5,1.2,0.6,2.1c0.1,0.9,0.1,2,0.1,3.4v19.5c0,0.6-0.1,1.2-0.2,1.7c-0.1,0.4-0.3,0.8-0.6,1.1
			c-0.3,0.3-0.8,0.6-1.4,0.8c-0.6,0.2-1.5,0.4-2.5,0.5l-0.2,0v1.1l0.3,0C59.2,181.8,60,181.7,60.9,181.7z"/>
		<path class="st0" d="M105.4,182l0.1,0.2h1.4l10.3-23.2c0.4-0.9,0.8-1.8,1.2-2.9c0.4-1,0.9-1.9,1.4-2.8c0.5-0.9,1.2-1.6,2-2.2
			c0.7-0.6,1.7-1,2.8-1.1l0.2,0v-1.1l-0.3,0c-0.9,0.1-1.8,0.1-2.7,0.1c-1.9,0.1-4,0.1-6,0c-1.1,0-2.2-0.1-3.3-0.1l-0.3,0v1.1l0.2,0
			c0.5,0.1,1,0.2,1.4,0.3c0.5,0.1,0.9,0.3,1.2,0.5c0.4,0.2,0.6,0.5,0.8,0.8c0.2,0.3,0.3,0.7,0.3,1.2c0,1.4-0.8,4.1-2.4,8l-6.2,14.6
			l-7.5-18.2c-1.2-2.9-1.4-4-1.4-4.3c0-0.6,0.1-1,0.4-1.3c0.3-0.3,0.6-0.6,1-0.8c0.4-0.2,0.9-0.4,1.4-0.4c0.5-0.1,1-0.2,1.5-0.2
			l0.2,0v-1.1l-0.3,0c-1.3,0.1-2.6,0.1-3.9,0.1c-2.4,0.1-5,0.1-7.4,0c-1.1,0-2.2-0.1-3.4-0.1l-0.3,0v1.1l0.2,0
			c1.5,0.1,2.6,0.6,3.5,1.5c0.8,0.9,1.6,2.1,2.1,3.5L105.4,182z"/>
		<path class="st0" d="M157.4,181.7c0.6,0,1.2,0.1,1.7,0.1l0.2,0l4.6-10.2l-0.9-0.7l-0.2,0.2c-1.2,1.6-2.3,2.9-3.5,4
			c-1.1,1.1-2.4,2-3.6,2.7c-1.3,0.7-2.7,1.2-4.2,1.6c-1.5,0.3-3.3,0.5-5.2,0.5c-0.5,0-0.9,0-1.5-0.1c-0.5,0-1-0.1-1.5-0.2
			c-0.5-0.1-0.9-0.1-1.4-0.2c-0.3-0.1-0.6-0.1-0.9-0.2v-14.8h2.9c1.3,0,2.4,0.1,3.4,0.2c0.9,0.2,1.7,0.5,2.3,0.9
			c0.6,0.4,1.1,1.1,1.5,1.9c0.4,0.9,0.8,2,1.1,3.3l0,0.2h1v-0.2c0-1.2,0-2.4,0-3.6c0-1.2,0-2.4,0-3.5c0-1.2,0-2.3,0-3.5
			c0-1.2,0-2.4,0-3.6v-0.2h-1.1l0,0.2c-0.3,2.3-1.1,3.9-2.3,4.8c-1.3,0.9-3,1.3-5.3,1.3c-0.7,0-1.3,0-1.9,0c-0.5,0-1.1,0-1.6,0V151
			c2.2-0.2,4.4-0.3,6.6-0.3c1.2,0,2.4,0.1,3.5,0.3c1.1,0.2,2.1,0.6,3,1.1c0.9,0.5,1.7,1.3,2.4,2.3c0.7,1,1.2,2.2,1.7,3.8l0.1,0.2
			l1.1-0.3l0-0.2c-0.1-0.9-0.1-1.7-0.2-2.4c-0.1-0.7-0.1-1.5-0.1-2.2v-2c0-0.3,0-0.7,0-1c0-0.4,0-0.7,0.1-1.1l0-0.3l-0.3,0
			c-2.4,0.1-4.7,0.1-7,0.1c-2.3,0-4.6,0-6.9,0H141c-1.2,0-2.3,0-3.4,0c-1.1,0-2.1,0-3.1-0.1c-1,0-2.1-0.1-3.2-0.1l-0.3,0v1.1l0.2,0
			c1.2,0.1,2.1,0.3,2.7,0.5c0.6,0.2,1.1,0.6,1.4,1.1c0.3,0.5,0.5,1.2,0.6,2.1c0.1,0.9,0.1,2,0.1,3.4v16.5c0,1.4,0,2.5-0.1,3.4
			c-0.1,0.9-0.3,1.6-0.6,2.1c-0.3,0.5-0.8,0.9-1.4,1.1c-0.6,0.3-1.5,0.4-2.7,0.5l-0.2,0v1.1l0.3,0c0.9-0.1,1.9-0.1,2.8-0.1
			c1,0,1.9,0,2.8,0h18.5C156.3,181.7,156.8,181.7,157.4,181.7z"/>
		<path class="st0" d="M185.7,181.9l0.3,0v-1.1l-0.2,0c-1.2-0.1-2.1-0.3-2.8-0.5c-0.6-0.2-1.1-0.6-1.4-1.1c-0.3-0.5-0.5-1.2-0.6-2.1
			c-0.1-0.9-0.1-2-0.1-3.4v-7.4c0.3,0.1,0.6,0.2,1,0.2c0.5,0.1,1,0.2,1.6,0.3c0.5,0.1,1.1,0.2,1.6,0.2c0.4,0.1,0.8,0.1,1.1,0.1
			c1.4,2.6,2.9,5.1,4.7,7.5c1.7,2.4,3.7,4.7,5.8,7l0.1,0.1h9.2v-1.1l-0.2,0c-1-0.1-2-0.4-3-0.9c-1-0.5-2-1.2-2.9-2
			c-1-0.8-1.9-1.7-2.7-2.7c-0.9-1-1.7-2-2.5-3c-0.8-1-1.5-2-2.1-3c-0.5-0.9-1-1.6-1.4-2.4c0.9-0.2,1.8-0.5,2.6-0.9
			c1-0.4,1.8-1,2.5-1.7c0.7-0.7,1.3-1.5,1.7-2.4c0.4-0.9,0.6-2,0.6-3.2c0-1.7-0.4-3.2-1.2-4.5c-0.8-1.2-1.8-2.3-3-3.1
			c-1.2-0.8-2.6-1.4-4.1-1.8c-1.5-0.4-3-0.5-4.4-0.5c-0.6,0-1.3,0-2.1,0.1c-0.8,0-1.6,0.1-2.3,0.2c-0.8,0.1-1.5,0.1-2.2,0.2
			c-0.7,0-1.3,0.1-1.7,0.1c-1.1,0-2.1,0-3.1,0c-1,0-2.1-0.1-3.1-0.1l-0.3,0v1.1l0.2,0c1.1,0.1,2.1,0.3,2.7,0.5
			c0.6,0.2,1.1,0.6,1.4,1.1c0.3,0.5,0.5,1.2,0.6,2.1c0.1,0.9,0.1,2,0.1,3.4v16.5c0,1.4,0,2.5-0.1,3.4c-0.1,0.9-0.3,1.6-0.6,2.1
			c-0.3,0.5-0.8,0.9-1.4,1.1c-0.6,0.3-1.5,0.4-2.7,0.5l-0.2,0v1.1l0.3,0c1.2-0.1,2.3-0.1,3.5-0.1c2.4-0.1,4.9-0.1,7.3,0
			C183.3,181.7,184.5,181.8,185.7,181.9z M180.8,160.9c0-1.9,0-3.6,0-5.2c0-1.6,0.1-3.1,0.1-4.6c0.7-0.2,1.4-0.3,2.1-0.4
			c0.8-0.1,1.6-0.1,2.4-0.1c1,0,1.9,0.2,2.8,0.5c0.9,0.3,1.7,0.8,2.4,1.4c0.7,0.6,1.2,1.4,1.6,2.2c0.4,0.8,0.6,1.8,0.6,2.8
			c0,2.6-0.7,4.4-2,5.6c-1.4,1.1-3.3,1.7-5.8,1.7c-1.5,0-2.9-0.3-4.3-0.8V160.9z"/>
		<path class="st0" d="M225.9,181.9l0.3,0v-1.1l-0.2,0c-1.5-0.2-2.7-0.4-3.6-0.7c-0.8-0.3-1.4-0.8-1.8-1.7c-0.4-0.9-0.7-2.2-0.8-3.8
			c-0.1-1.7-0.2-4-0.2-6.9V159c0-0.9,0-1.7,0-2.5c0-0.6,0-1.3,0.1-1.9c1.4,1.5,2.9,3.2,4.6,5c1.8,2,3.8,4.3,5.8,6.7c2,2.4,4,5,6,7.6
			c2,2.6,3.9,5.4,5.7,8.2l0.1,0.1h2.2v-26.4c0-1.9,0.4-3.3,1.1-4.2c0.7-0.9,2.1-1.5,4.1-1.7l0.2,0v-1.1l-0.3,0
			c-1,0.1-2.1,0.1-3.2,0.1c-2.2,0.1-4.5,0.1-6.7,0c-1.2,0-2.3-0.1-3.5-0.1l-0.3,0v1.1l0.2,0c1.3,0.1,2.3,0.4,3.1,0.9
			c0.8,0.5,1.4,1.3,1.8,2.3c0.4,1,0.7,2.3,0.9,3.8c0.1,1.5,0.2,3.4,0.2,5.5v5.7c0,1,0,2,0,2.9c0,0.8,0,1.5,0,2.3
			c-0.6-0.8-1.4-1.9-2.3-3c-1.1-1.4-2.4-3-3.7-4.6c-1.3-1.7-2.7-3.4-4.2-5.1c-1.4-1.7-2.8-3.4-4.1-4.9l-3.4-4.1
			c-1-1.2-1.7-2.1-2.1-2.7l-0.1-0.1l-0.1,0c-0.7,0.1-1.4,0.1-2.1,0.1c-0.7,0-1.4,0-2.1,0c-1.4,0-2.6,0-3.6,0c-1,0-2.1-0.1-3.3-0.1
			l-0.3,0v1.1l0.2,0c1.3,0.3,2.6,0.7,3.8,1.2c1.2,0.5,2.3,1.1,3.3,1.9l-0.6,22.5c0,1.1-0.2,2-0.4,2.6c-0.3,0.6-0.6,1.1-1.1,1.4
			c-0.5,0.3-1.2,0.6-2,0.7c-0.8,0.1-1.8,0.3-2.9,0.5l-0.2,0v1.1l0.3,0c0.9-0.1,1.9-0.1,2.8-0.1c2.5-0.1,5.2-0.1,7.7,0
			C222.6,181.7,224.2,181.8,225.9,181.9z"/>
		<path class="st0" d="M275.3,182.6c2.5,0,4.9-0.4,7.2-1.2c2.2-0.8,4.2-1.9,5.9-3.4c1.7-1.5,3-3.3,4-5.4c1-2.1,1.5-4.6,1.5-7.2
			c0-2.7-0.5-5.1-1.5-7.2c-1-2.1-2.3-3.9-4-5.4c-1.7-1.5-3.6-2.6-5.9-3.4c-2.2-0.8-4.6-1.2-7.2-1.2c-2.5,0-4.9,0.4-7.2,1.2
			c-2.2,0.8-4.2,1.9-5.9,3.4c-1.7,1.5-3,3.3-4,5.4c-1,2.1-1.5,4.6-1.5,7.2c0,2.7,0.5,5.1,1.5,7.2c1,2.1,2.3,4,4,5.4
			c1.7,1.5,3.6,2.6,5.9,3.4C270.4,182.3,272.8,182.6,275.3,182.6z M266,175.9c-1.1-1.4-1.9-3-2.5-4.8c-0.6-1.8-0.9-3.7-0.9-5.7
			c0-2,0.3-3.9,0.9-5.7c0.6-1.8,1.4-3.4,2.5-4.8c1.1-1.4,2.4-2.5,4-3.3c1.6-0.8,3.4-1.2,5.4-1.2c2,0,3.8,0.4,5.4,1.2
			c1.6,0.8,2.9,1.9,4,3.3c1.1,1.4,1.9,3,2.5,4.8c0.6,1.8,0.9,3.7,0.9,5.7c0,2-0.3,3.9-0.9,5.7c-0.6,1.8-1.4,3.4-2.5,4.8
			c-1.1,1.4-2.4,2.5-4,3.3c-1.6,0.8-3.4,1.2-5.4,1.2c-2,0-3.8-0.4-5.4-1.2C268.4,178.3,267.1,177.2,266,175.9z"/>
		<path class="st0" d="M43.8,212.3c-1.5,2.3-3.2,4.1-5.1,5.4c-1.9,1.3-4.1,2-6.7,2c-1.7,0-3.3-0.3-4.6-1c-1.3-0.7-2.4-1.6-3.3-2.7
			c-0.9-1.1-1.6-2.5-2-4c-0.4-1.5-0.7-3.2-0.7-4.8c0-1.7,0.2-3.3,0.5-4.8c0.3-1.5,0.9-2.9,1.7-4c0.8-1.1,1.7-2,2.9-2.7
			c1.2-0.7,2.7-1,4.4-1c1.3,0,2.6,0.2,3.6,0.6c1.1,0.4,2,1,2.8,1.8c0.8,0.8,1.5,1.7,2.1,2.8c0.6,1.1,1.1,2.2,1.5,3.5l0.1,0.2h1.1
			l0-0.3c-0.1-0.6-0.2-1.3-0.3-2.1c-0.1-0.8-0.2-1.6-0.3-2.5c-0.1-0.8-0.1-1.7-0.2-2.5c0-0.8-0.1-1.5-0.1-2.1v-0.2l-0.2,0
			c-0.8,0-1.5-0.1-2.3-0.3c-0.8-0.1-1.6-0.3-2.4-0.4c-0.8-0.1-1.7-0.3-2.6-0.4c-0.9-0.1-1.9-0.2-3-0.2c-1.9,0-3.8,0.4-5.5,1.1
			c-1.7,0.7-3.3,1.8-4.6,3.1c-1.3,1.3-2.4,2.9-3.1,4.8c-0.8,1.8-1.2,3.9-1.2,6.1c0,2.2,0.4,4.2,1.2,6.1c0.8,1.8,1.8,3.4,3.1,4.8
			c1.3,1.3,2.8,2.4,4.6,3.1c1.7,0.7,3.6,1.1,5.5,1.1c1.7,0,3.3-0.2,4.6-0.6c1.4-0.4,2.6-1,3.8-1.8c1.2-0.8,2.2-1.7,3.2-2.9
			c1-1.1,2-2.4,2.9-3.9l0.1-0.2L44,212L43.8,212.3z"/>
		<path class="st0" d="M84.6,196.5c-1.4-1.3-3.2-2.3-5.1-3c-2-0.7-4-1-6.2-1c-2.2,0-4.3,0.3-6.2,1c-2,0.7-3.7,1.7-5.1,3
			c-1.4,1.3-2.6,2.9-3.5,4.7c-0.9,1.9-1.3,4-1.3,6.3c0,2.3,0.4,4.5,1.3,6.3c0.9,1.9,2,3.4,3.5,4.7c1.4,1.3,3.2,2.3,5.1,3
			c1.9,0.7,4,1,6.2,1c2.2,0,4.3-0.3,6.2-1c2-0.7,3.7-1.7,5.1-3c1.4-1.3,2.6-2.9,3.5-4.7c0.9-1.9,1.3-4,1.3-6.3
			c0-2.3-0.4-4.5-1.3-6.3C87.2,199.3,86,197.8,84.6,196.5z M83.5,212.5c-0.5,1.6-1.2,3-2.2,4.1c-0.9,1.2-2.1,2.1-3.5,2.9
			c-1.4,0.7-2.9,1.1-4.6,1.1c-1.7,0-3.3-0.4-4.6-1.1c-1.4-0.7-2.5-1.7-3.5-2.9c-0.9-1.2-1.7-2.6-2.2-4.1c-0.5-1.6-0.8-3.2-0.8-4.9
			c0-1.7,0.3-3.4,0.8-4.9c0.5-1.6,1.2-3,2.2-4.1c0.9-1.2,2.1-2.1,3.5-2.9c1.4-0.7,2.9-1.1,4.6-1.1c1.7,0,3.3,0.4,4.6,1.1
			c1.4,0.7,2.5,1.7,3.5,2.9c0.9,1.2,1.7,2.6,2.2,4.1c0.5,1.6,0.8,3.2,0.8,4.9C84.3,209.2,84,210.9,83.5,212.5z"/>
		<path class="st0" d="M128.9,211.8l-0.1,0.1c-0.8,1.4-1.7,2.6-2.5,3.6c-0.8,1-1.7,1.9-2.7,2.5c-1,0.7-2.1,1.2-3.3,1.5
			c-1.2,0.3-2.7,0.5-4.4,0.5c-0.7,0-1.5-0.1-2.2-0.2c-0.7-0.1-1.3-0.2-2-0.3v-20.4c0-0.8,0-1.6,0.1-2.1c0.1-0.5,0.3-1,0.6-1.3
			c0.3-0.4,0.9-0.7,1.6-0.9c0.8-0.3,1.8-0.5,3.2-0.7l0.2,0v-1l-0.3,0c-1.2,0.1-2.4,0.1-3.6,0.1c-2.3,0.1-4.7,0.1-6.9,0
			c-1.1,0-2.2-0.1-3.3-0.1l-0.3,0v1l0.2,0c1,0.1,1.8,0.2,2.3,0.5c0.5,0.2,0.9,0.5,1.2,1c0.3,0.5,0.4,1.1,0.5,1.8
			c0.1,0.8,0.1,1.8,0.1,3v17c0,0.6,0,1-0.1,1.4c-0.1,0.4-0.3,0.7-0.6,1c-0.3,0.3-0.7,0.5-1.2,0.7c-0.5,0.2-1.3,0.3-2.2,0.4l-0.2,0v1
			l0.3,0c0.7-0.1,1.4-0.1,2.1-0.1c0.7,0,1.4,0,2.1,0h12.6c1,0,2.1,0,3.1,0c1,0,2.1,0.1,3.1,0.1l0.2,0l3.5-10.1H128.9z"/>
		<path class="st0" d="M165,221.9l3.5-10.1h-1.1l-0.1,0.1c-0.8,1.4-1.7,2.6-2.5,3.6c-0.8,1-1.7,1.9-2.7,2.5c-1,0.7-2.1,1.2-3.3,1.5
			c-1.2,0.3-2.7,0.5-4.4,0.5c-0.7,0-1.5-0.1-2.2-0.2c-0.7-0.1-1.3-0.2-2-0.3v-20.4c0-0.8,0-1.6,0.1-2.1c0.1-0.5,0.3-1,0.6-1.3
			c0.3-0.4,0.9-0.7,1.6-0.9c0.8-0.3,1.8-0.5,3.2-0.7l0.2,0v-1l-0.3,0c-1.2,0.1-2.4,0.1-3.6,0.1c-2.3,0.1-4.7,0.1-6.9,0
			c-1.1,0-2.2-0.1-3.3-0.1l-0.3,0v1l0.2,0c1,0.1,1.8,0.2,2.3,0.5c0.5,0.2,0.9,0.5,1.2,1c0.3,0.5,0.4,1.1,0.5,1.8
			c0.1,0.8,0.1,1.8,0.1,3v17c0,0.6,0,1-0.1,1.4c-0.1,0.4-0.3,0.7-0.6,1c-0.3,0.3-0.7,0.5-1.2,0.7c-0.5,0.2-1.3,0.3-2.2,0.4l-0.2,0v1
			l0.3,0c0.7-0.1,1.4-0.1,2.1-0.1c0.7,0,1.4,0,2.1,0h12.6c1,0,2.1,0,3.1,0c1,0,2.1,0.1,3.1,0.1L165,221.9z"/>
		<path class="st0" d="M185.2,221.7h16.1c0.5,0,1,0,1.5,0c0.5,0,1,0.1,1.5,0.1l0.2,0l4.1-9l-0.8-0.7l-0.2,0.2c-1,1.4-2,2.5-3,3.5
			c-1,1-2,1.8-3.1,2.4c-1.1,0.6-2.3,1.1-3.7,1.3c-1.3,0.3-2.9,0.4-4.6,0.4c-0.4,0-0.8,0-1.3-0.1c-0.5,0-0.9-0.1-1.3-0.1
			c-0.4-0.1-0.8-0.1-1.2-0.2c-0.3,0-0.5-0.1-0.7-0.1v-12.8h2.5c1.1,0,2.1,0.1,2.9,0.2c0.8,0.1,1.5,0.4,2,0.8c0.5,0.4,1,0.9,1.3,1.6
			c0.4,0.7,0.7,1.7,0.9,2.9l0,0.2h1v-0.2c0-1,0-2.1,0-3.1c0-1,0-2,0-3.1c0-1,0-2,0-3c0-1,0-2.1,0-3.1v-0.2h-1l0,0.2
			c-0.2,2-0.9,3.4-2,4.1c-1.1,0.8-2.6,1.1-4.6,1.1c-0.6,0-1.1,0-1.7,0c-0.4,0-0.9,0-1.4,0V195c1.9-0.2,3.8-0.2,5.8-0.2
			c1.1,0,2.1,0.1,3,0.3c0.9,0.2,1.8,0.5,2.6,1c0.8,0.5,1.5,1.1,2.1,2c0.6,0.8,1.1,2,1.4,3.3l0.1,0.2l1-0.3l0-0.2
			c-0.1-0.8-0.1-1.5-0.2-2.1c-0.1-0.6-0.1-1.3-0.1-1.9v-1.7c0-0.3,0-0.6,0-0.9c0-0.3,0-0.6,0.1-0.9l0-0.3l-0.3,0
			c-2,0.1-4.1,0.1-6.1,0.1c-2,0-4,0-6,0h-3.5c-1,0-2,0-3,0c-0.9,0-1.8,0-2.7-0.1c-0.9,0-1.8-0.1-2.8-0.1l-0.3,0v1l0.2,0
			c1,0.1,1.8,0.2,2.4,0.5c0.5,0.2,0.9,0.5,1.2,1c0.3,0.5,0.4,1.1,0.5,1.8c0.1,0.8,0.1,1.8,0.1,3v14.3c0,1.2,0,2.2-0.1,3
			c-0.1,0.7-0.2,1.4-0.5,1.8c-0.3,0.4-0.6,0.8-1.2,1c-0.5,0.2-1.3,0.4-2.3,0.5l-0.2,0v1l0.3,0c0.8-0.1,1.7-0.1,2.5-0.1
			C183.5,221.7,184.4,221.7,185.2,221.7z"/>
		<path class="st0" d="M247.8,219.8v-6.2c0-0.6,0.1-1.2,0.3-1.6c0.2-0.4,0.5-0.7,0.8-1c0.3-0.2,0.7-0.4,1.2-0.5
			c0.5-0.1,1-0.2,1.6-0.2l0.2,0v-1l-0.3,0c-1.1,0.1-2.1,0.1-3.2,0.1c-2.1,0.1-4.5,0.1-6.2,0c-0.9,0-1.9-0.1-3-0.1l-0.3,0v1l0.2,0
			c2.8,0.1,4.2,1,4.2,2.8v5.4c-1.1,0.8-2.3,1.3-3.5,1.5c-1.3,0.3-2.6,0.4-4,0.4c-1.6,0-3-0.4-4.2-1c-1.2-0.7-2.3-1.6-3.2-2.8
			c-0.9-1.2-1.6-2.6-2-4.1c-0.5-1.6-0.7-3.3-0.7-5.1c0-1.6,0.2-3.2,0.7-4.7c0.5-1.6,1.1-3,2-4.3c0.9-1.3,2-2.3,3.2-3.1
			c1.2-0.8,2.6-1.2,4.2-1.2c1.4,0,2.6,0.2,3.6,0.7c1,0.5,1.9,1.1,2.7,1.9c0.8,0.8,1.5,1.7,2.1,2.7c0.6,1,1.2,2.1,1.7,3.2l0.1,0.1h1
			l-0.1-0.3c-0.1-0.5-0.2-1.1-0.3-1.8c-0.1-0.8-0.2-1.5-0.3-2.4c-0.1-0.8-0.2-1.6-0.3-2.3c-0.1-0.7-0.1-1.3-0.1-1.8V194l-0.2,0
			c-0.6-0.1-1.2-0.3-1.8-0.5c-0.6-0.2-1.3-0.3-2.1-0.5c-0.8-0.2-1.6-0.3-2.6-0.4c-1-0.1-2-0.2-3.2-0.2c-1.9,0-3.9,0.4-5.7,1.2
			c-1.8,0.8-3.5,1.8-5,3.2c-1.5,1.3-2.6,2.9-3.5,4.8c-0.9,1.8-1.3,3.8-1.3,6c0,2.4,0.4,4.6,1.3,6.5c0.9,1.9,2.1,3.4,3.5,4.7
			c1.5,1.3,3.1,2.2,5,2.9c1.8,0.6,3.8,1,5.7,1c1.8,0,3.7-0.3,5.7-0.8c1.9-0.6,3.9-1.2,5.9-1.8L247.8,219.8z"/>
		<path class="st0" d="M291.6,212.5c-1,1.4-2,2.5-3,3.5c-1,1-2,1.8-3.1,2.4c-1.1,0.6-2.3,1.1-3.7,1.3c-1.3,0.3-2.9,0.4-4.6,0.4
			c-0.4,0-0.8,0-1.3-0.1c-0.5,0-0.9-0.1-1.3-0.1c-0.4-0.1-0.8-0.1-1.2-0.2c-0.3,0-0.5-0.1-0.7-0.1v-12.8h2.5c1.1,0,2.1,0.1,2.9,0.2
			c0.8,0.1,1.5,0.4,2,0.8s1,0.9,1.3,1.6c0.4,0.7,0.7,1.7,0.9,2.9l0,0.2h1v-0.2c0-1,0-2.1,0-3.1c0-1,0-2,0-3.1c0-1,0-2,0-3
			c0-1,0-2.1,0-3.1v-0.2h-1l0,0.2c-0.2,2-0.9,3.4-2,4.1c-1.1,0.8-2.6,1.1-4.6,1.1c-0.6,0-1.1,0-1.7,0c-0.4,0-0.9,0-1.4,0V195
			c1.9-0.2,3.8-0.2,5.8-0.2c1.1,0,2.1,0.1,3,0.3c0.9,0.2,1.8,0.5,2.6,1c0.8,0.5,1.5,1.1,2.1,2c0.6,0.8,1.1,2,1.4,3.3l0.1,0.2l1-0.3
			l0-0.2c-0.1-0.8-0.1-1.5-0.2-2.1c-0.1-0.6-0.1-1.3-0.1-1.9v-1.7c0-0.3,0-0.6,0-0.9c0-0.3,0-0.6,0.1-0.9l0-0.3l-0.3,0
			c-2,0.1-4.1,0.1-6.1,0.1c-2,0-4,0-6,0h-3.5c-1,0-2,0-3,0c-0.9,0-1.8,0-2.7-0.1c-0.9,0-1.8-0.1-2.8-0.1l-0.3,0v1l0.2,0
			c1,0.1,1.8,0.2,2.4,0.5c0.5,0.2,0.9,0.5,1.2,1c0.3,0.5,0.4,1.1,0.5,1.8c0.1,0.8,0.1,1.8,0.1,3v14.3c0,1.2,0,2.2-0.1,3
			c-0.1,0.7-0.2,1.4-0.5,1.8c-0.3,0.4-0.6,0.8-1.2,1c-0.5,0.2-1.3,0.4-2.3,0.5l-0.2,0v1l0.3,0c0.8-0.1,1.7-0.1,2.5-0.1
			c0.8,0,1.6,0,2.5,0h16.1c0.5,0,1,0,1.5,0c0.5,0,1,0.1,1.5,0.1l0.2,0l4.1-9l-0.8-0.7L291.6,212.5z"/>
		<polygon class="st0" points="21,239.7 25.7,239.7 25.7,238 21,238 21,235.5 26,235.5 26,233.9 19.2,233.9 19.2,244.2 26.3,244.2 
			26.3,242.5 21,242.5 		"/>
		<path class="st0" d="M39.4,236.6c0-0.9,0.8-1.3,1.7-1.3c0.7,0,1.4,0.3,1.8,0.8l1.3-1.4c-0.8-0.8-1.9-1.1-3-1.1
			c-1.9,0-3.8,1-3.8,3.1c0,3.7,4.9,2.4,4.9,4.6c0,0.9-1,1.4-1.8,1.4c-0.8,0-1.6-0.4-2-1.1l-1.4,1.3c0.8,1,2.1,1.4,3.4,1.4
			c2,0,3.8-1.1,3.8-3.3C44.3,237.5,39.4,238.6,39.4,236.6z"/>
		<polygon class="st0" points="55,235.5 58.1,235.5 58.1,244.2 60,244.2 60,235.5 63.1,235.5 63.1,233.9 55,233.9 		"/>
		<path class="st0" d="M76.2,233.9l-4.5,10.3h2.1l0.9-2.4h4.5l1,2.4h2.1l-4.4-10.3H76.2z M75.3,240.2l1.6-4.2l1.6,4.2H75.3z"/>
		<path class="st0" d="M98.6,238.7L98.6,238.7c1.1-0.3,1.8-1.1,1.8-2.3c0-1.9-1.6-2.6-3.2-2.6h-4v10.3h3.7c2,0,3.9-0.7,3.9-2.9
			C100.8,239.9,99.8,238.9,98.6,238.7z M95,235.4h1.5c1.4,0,2,0.4,2,1.3c0,0.8-0.6,1.3-1.8,1.3H95V235.4z M96.7,242.6H95v-3h1.8
			c1.5,0,2.2,0.4,2.2,1.5C98.9,242.4,97.6,242.6,96.7,242.6z"/>
		<polygon class="st0" points="114.2,233.9 112.4,233.9 112.4,244.2 118.6,244.2 118.6,242.5 114.2,242.5 		"/>
		<rect x="129.7" y="233.9" class="st0" width="1.8" height="10.3"/>
		<path class="st0" d="M145.2,236.6c0-0.9,0.8-1.3,1.7-1.3c0.7,0,1.4,0.3,1.8,0.8l1.3-1.4c-0.8-0.8-1.9-1.1-3-1.1
			c-1.9,0-3.8,1-3.8,3.1c0,3.7,4.9,2.4,4.9,4.6c0,0.9-1,1.4-1.8,1.4c-0.8,0-1.6-0.4-2-1.1l-1.4,1.3c0.8,1,2.1,1.4,3.4,1.4
			c2,0,3.8-1.1,3.8-3.3C150.1,237.5,145.2,238.6,145.2,236.6z"/>
		<polygon class="st0" points="168.4,238 163.6,238 163.6,233.9 161.8,233.9 161.8,244.2 163.6,244.2 163.6,239.6 168.4,239.6 
			168.4,244.2 170.3,244.2 170.3,233.9 168.4,233.9 		"/>
		<polygon class="st0" points="184.2,239.7 188.9,239.7 188.9,238 184.2,238 184.2,235.5 189.2,235.5 189.2,233.9 182.4,233.9 
			182.4,244.2 189.5,244.2 189.5,242.5 184.2,242.5 		"/>
		<path class="st0" d="M205.1,233.9h-4.1v10.3h3.8c2.5,0,5.5-1.6,5.5-5.2C210.4,235.5,207.8,233.9,205.1,233.9z M204.3,242.5h-1.4
			v-7h1.7c2.2,0,3.9,1,3.9,3.5C208.4,241.5,206.6,242.5,204.3,242.5z"/>
		<polygon class="st0" points="229.7,236.4 230.7,237.7 232.7,235.9 232.7,244.2 234.4,244.2 234.4,233.9 232.8,233.9 		"/>
		<path class="st0" d="M251.4,238.7L251.4,238.7c1-0.3,1.6-1.3,1.6-2.3c0-1.7-1.4-2.7-3.2-2.7c-1.7,0-3.2,1-3.2,2.7
			c0,1.1,0.5,2,1.6,2.3v0c-1,0.2-1.9,1.2-1.9,2.5c0,2,1.6,3.1,3.5,3.1c1.9,0,3.5-1.1,3.5-3.1C253.2,240,252.3,238.9,251.4,238.7z
			 M249.8,235.2c0.8,0,1.4,0.6,1.4,1.4c0,0.8-0.6,1.4-1.4,1.4c-0.9,0-1.4-0.6-1.4-1.4C248.3,235.8,248.9,235.2,249.8,235.2z
			 M249.8,242.7c-1,0-1.7-0.7-1.7-1.7c0-0.9,0.8-1.6,1.7-1.6s1.7,0.7,1.7,1.6C251.5,242,250.8,242.7,249.8,242.7z"/>
		<path class="st0" d="M269.8,238.7L269.8,238.7c1-0.3,1.6-1.3,1.6-2.3c0-1.7-1.4-2.7-3.2-2.7c-1.7,0-3.2,1-3.2,2.7
			c0,1.1,0.5,2,1.6,2.3v0c-1,0.2-1.9,1.2-1.9,2.5c0,2,1.6,3.1,3.5,3.1c1.9,0,3.5-1.1,3.5-3.1C271.7,240,270.8,238.9,269.8,238.7z
			 M268.2,235.2c0.8,0,1.4,0.6,1.4,1.4c0,0.8-0.6,1.4-1.4,1.4c-0.9,0-1.4-0.6-1.4-1.4C266.8,235.8,267.3,235.2,268.2,235.2z
			 M268.2,242.7c-1,0-1.7-0.7-1.7-1.7c0-0.9,0.8-1.6,1.7-1.6c0.9,0,1.7,0.7,1.7,1.6C269.9,242,269.2,242.7,268.2,242.7z"/>
		<polygon class="st0" points="282.9,235.5 287.9,235.5 283.7,244.2 285.8,244.2 289.9,235.5 289.9,233.9 282.9,233.9 		"/>
	</g>
	<g>
		<polygon class="st0" points="140,10.3 171.2,10.3 155.6,49.4 		"/>
		<path class="st1" d="M140,10.3l15.6,39l-13.8,34.3c0,0-30.6,5.1-46.2,36.9L140,10.3z"/>
		<path class="st0" d="M141.8,83.6c0,0-30.6,5.1-46.2,36.9c-1.1,2.2-3.6,9-3.6,9l31.4,0L141.8,83.6z"/>
		<path class="st2" d="M171.2,10.3l-15.6,39l13.8,34.3c0,0,30.6,5.1,46.2,36.9L171.2,10.3z"/>
		<path class="st0" d="M169.4,83.6c0,0,30.6,5.1,46.2,36.9c1.1,2.2,3.6,9,3.6,9l-31.4,0L169.4,83.6z"/>
		<path class="st3" d="M123.3,129.5l18.5-45.9c0,0,12.7-3,27.6,0l18.5,45.9c0,0-9.9-17.9-32.3-17.9S123.3,129.5,123.3,129.5z"/>
	</g>
</g>
</svg>
