<?xml version="1.0" encoding="utf-8"?>
<!-- Generator: Adobe Illustrator 26.0.3, SVG Export Plug-In . SVG Version: 6.00 Build 0)  -->
<svg version="1.1" id="Layer_1" xmlns="http://www.w3.org/2000/svg" xmlns:xlink="http://www.w3.org/1999/xlink" x="0px" y="0px"
	 viewBox="0 0 645.3 185.3" style="enable-background:new 0 0 645.3 185.3;" xml:space="preserve">
<style type="text/css">
	.st0{fill:#572700;}
	.st1{fill:#98002E;}
	.st2{fill:#FDB714;}
	.st3{fill:#B2740E;}
</style>
<g>
	<g>
		<path class="st0" d="M245.5,65.9c-1.2-1.1-2.2-2.6-2.9-4.5l-15.9-43.8l-0.4,0.1c-1.2,0.5-2.2,0.9-3.2,1.3c-0.9,0.4-2.1,0.7-3.3,1
			l-0.5,0.1l0.3,0.5c0.2,0.4,0.4,0.8,0.6,1.3c0.2,0.6,0.2,0.9,0.2,1c0,0.2-0.1,0.4-0.2,0.7c-0.1,0.3-0.3,0.6-0.4,1l-13.1,32.3
			c-0.5,1.3-1,2.6-1.5,3.8c-0.5,1.2-1.1,2.3-1.8,3.3c-0.7,1-1.5,1.8-2.5,2.5c-1,0.7-2.3,1.2-3.8,1.6l-0.3,0.1v1.6l0.4,0
			c1.6-0.1,3.1-0.2,4.6-0.2c2.9-0.1,6.1-0.1,9,0c1.5,0,3,0.1,4.5,0.2l0.4,0V68l-0.3-0.1c-0.5-0.1-1.2-0.3-2-0.5
			c-0.8-0.2-1.5-0.6-2.3-1c-0.7-0.4-1.3-0.9-1.8-1.5c-0.5-0.6-0.7-1.3-0.7-2.1c0-0.3,0.1-0.6,0.2-0.8c0.1-0.3,0.3-0.7,0.4-1.1
			l4.9-13.5h15.3l4.8,13.7c0.1,0.4,0.3,0.8,0.4,1.2c0.2,0.4,0.2,0.7,0.2,1.1c0,1.3-0.6,2.3-2,3.1c-1.4,0.8-3.1,1.3-5.2,1.6l-0.3,0
			v1.6l0.4,0c0.9-0.1,1.7-0.1,2.4-0.2c0.7-0.1,1.5-0.1,2.3-0.1c0.8,0,1.7,0,2.7,0h3.6c2.1,0,4.2,0,6.1,0.1c1.9,0,3.9,0.1,5.9,0.2
			l0.4,0V68l-0.3,0C248.5,67.7,246.7,67,245.5,65.9z M228.3,44.4h-13.2l6.9-17.8L228.3,44.4z"/>
		<path class="st0" d="M264.9,69.4c1.2-0.1,2.5-0.1,3.8-0.1H291c1.8,0,3.7,0,5.5,0.1c1.8,0,3.7,0.1,5.5,0.2l0.3,0l6.1-17.8h-1.9
			l-0.1,0.2c-1.5,2.5-3,4.6-4.5,6.4c-1.5,1.8-3.1,3.3-4.8,4.5c-1.7,1.2-3.7,2.1-5.9,2.7c-2.2,0.6-4.8,0.9-7.7,0.9
			c-1.3,0-2.6-0.1-3.9-0.3c-1.2-0.2-2.4-0.4-3.7-0.6V29.6c0-1.5,0.1-2.8,0.2-3.8c0.1-1,0.5-1.8,1.1-2.4c0.6-0.6,1.5-1.2,2.8-1.6
			c1.3-0.4,3.2-0.8,5.6-1.2l0.3,0v-1.6l-0.4,0c-2.1,0.1-4.3,0.2-6.4,0.2c-4.1,0.1-8.3,0.1-12.3,0c-1.9,0-3.9-0.1-5.9-0.2l-0.4,0v1.6
			l0.3,0c1.8,0.1,3.2,0.4,4.1,0.8c0.9,0.4,1.6,1,2.1,1.7c0.5,0.8,0.8,1.9,0.9,3.2c0.1,1.4,0.2,3.2,0.2,5.2v30.1c0,1-0.1,1.8-0.3,2.6
			c-0.2,0.7-0.5,1.3-1,1.8c-0.5,0.5-1.3,0.9-2.2,1.2c-1,0.3-2.3,0.6-3.9,0.7l-0.3,0v1.7l0.4,0C262.4,69.5,263.6,69.4,264.9,69.4z"/>
		<path class="st0" d="M333.5,70.1h2.2l15.9-35.7c0.6-1.4,1.2-2.8,1.9-4.4c0.6-1.5,1.4-3,2.2-4.3c0.8-1.3,1.9-2.5,3-3.4
			c1.2-0.9,2.6-1.5,4.3-1.7l0.3,0v-1.6l-0.4,0c-1.4,0.1-2.7,0.2-4.1,0.2c-3,0.1-6.1,0.1-9.2,0c-1.7,0-3.4-0.1-5.1-0.2l-0.4,0v1.6
			l0.3,0c0.7,0.1,1.5,0.2,2.2,0.4c0.7,0.2,1.3,0.4,1.9,0.7c0.5,0.3,1,0.7,1.3,1.2c0.3,0.5,0.5,1.1,0.5,1.9c0,2.2-1.3,6.3-3.8,12.4
			L337,59.6l-11.6-28c-1.8-4.5-2.2-6.1-2.2-6.7c0-0.9,0.2-1.6,0.6-2c0.4-0.5,1-0.9,1.6-1.2c0.7-0.3,1.4-0.5,2.2-0.7
			c0.8-0.1,1.6-0.3,2.3-0.4l0.3,0v-1.6l-0.4,0c-2,0.1-4.1,0.2-6.1,0.2c-3.7,0.1-7.7,0.1-11.4,0c-1.7,0-3.5-0.1-5.2-0.2l-0.4,0v1.6
			l0.3,0c2.3,0.2,4.1,1,5.3,2.3c1.3,1.4,2.4,3.2,3.3,5.3l17.7,41.6L333.5,70.1z"/>
		<path class="st0" d="M413.6,69.4c0.9,0,1.8,0.1,2.6,0.2l0.3,0l7.1-15.8l-1.4-1.1l-0.2,0.3c-1.8,2.4-3.6,4.5-5.3,6.2
			c-1.7,1.7-3.6,3.1-5.6,4.2c-2,1.1-4.1,1.9-6.5,2.4c-2.4,0.5-5.1,0.8-8.1,0.8c-0.7,0-1.4,0-2.2-0.1c-0.8-0.1-1.6-0.2-2.3-0.3
			c-0.8-0.1-1.5-0.2-2.1-0.3c-0.5-0.1-1-0.2-1.4-0.2V42.9h4.5c2,0,3.7,0.1,5.2,0.4c1.4,0.2,2.6,0.7,3.5,1.4c0.9,0.7,1.7,1.7,2.3,2.9
			c0.6,1.3,1.2,3,1.6,5.1l0.1,0.3h1.6v-0.4c0-1.8,0-3.6-0.1-5.5c-0.1-1.8-0.1-3.6-0.1-5.5c0-1.8,0-3.6,0.1-5.4
			c0.1-1.8,0.1-3.7,0.1-5.5v-0.4h-1.6l0,0.3c-0.4,3.6-1.6,6-3.6,7.4c-2,1.3-4.7,2-8.1,2c-1,0-2,0-2.9,0.1c-0.8,0-1.6,0.1-2.5,0.1
			V22.1c3.4-0.3,6.8-0.4,10.3-0.4c1.9,0,3.7,0.2,5.4,0.4c1.7,0.3,3.2,0.9,4.6,1.7c1.4,0.8,2.6,2,3.7,3.5c1.1,1.5,1.9,3.5,2.6,5.8
			l0.1,0.4l1.6-0.5l0-0.3c-0.1-1.4-0.2-2.6-0.3-3.8c-0.1-1.1-0.2-2.2-0.2-3.3v-3c0-0.5,0-1,0-1.6c0-0.6,0.1-1.1,0.1-1.7l0-0.4
			l-0.4,0c-3.6,0.1-7.2,0.2-10.8,0.2c-3.5,0.1-7.1,0.1-10.6,0.1h-6.3c-1.8,0-3.6,0-5.2,0c-1.6,0-3.2-0.1-4.8-0.1
			c-1.5,0-3.2-0.1-4.9-0.2l-0.4,0v1.6l0.3,0c1.8,0.1,3.2,0.4,4.2,0.8c1,0.4,1.7,1,2.2,1.7c0.5,0.8,0.8,1.9,0.9,3.2
			c0.1,1.4,0.2,3.1,0.2,5.2V57c0,2.1-0.1,3.9-0.2,5.2c-0.1,1.3-0.4,2.4-0.9,3.2c-0.5,0.8-1.2,1.4-2.1,1.7c-1,0.4-2.4,0.7-4.1,0.8
			l-0.3,0v1.6l0.4,0c1.5-0.1,2.9-0.2,4.4-0.2c1.4-0.1,2.9-0.1,4.4-0.1H411C411.8,69.3,412.7,69.3,413.6,69.4z"/>
		<path class="st0" d="M457.2,69.6l0.4,0V68l-0.3,0c-1.8-0.1-3.3-0.4-4.3-0.8c-1-0.4-1.7-0.9-2.2-1.7c-0.5-0.8-0.8-1.9-0.9-3.2
			c-0.1-1.4-0.2-3.1-0.2-5.2V45.6c0.4,0.1,0.9,0.2,1.5,0.4c0.8,0.2,1.6,0.3,2.5,0.5c0.8,0.1,1.7,0.2,2.4,0.3
			c0.7,0.1,1.3,0.1,1.8,0.2c2.1,4,4.5,7.9,7.2,11.5c2.7,3.7,5.7,7.3,8.9,10.8l0.1,0.1h14.2v-1.6l-0.3,0c-1.6-0.1-3.1-0.6-4.6-1.4
			c-1.5-0.8-3.1-1.9-4.5-3.1c-1.5-1.2-2.9-2.6-4.2-4.1c-1.3-1.5-2.6-3.1-3.8-4.6c-1.2-1.6-2.3-3.1-3.2-4.6c-0.8-1.3-1.6-2.5-2.2-3.6
			c1.4-0.3,2.8-0.8,4.1-1.4c1.5-0.7,2.8-1.5,3.9-2.6c1.1-1,2-2.3,2.6-3.7c0.7-1.4,1-3,1-4.9c0-2.6-0.6-5-1.8-6.9
			c-1.2-1.9-2.7-3.5-4.6-4.7c-1.8-1.2-4-2.1-6.3-2.7c-2.3-0.6-4.6-0.8-6.8-0.8c-1,0-2.1,0-3.3,0.1c-1.2,0.1-2.4,0.2-3.6,0.3
			c-1.2,0.1-2.3,0.2-3.4,0.3c-1.1,0.1-1.9,0.1-2.6,0.1c-1.6,0-3.2,0-4.8-0.1c-1.6,0-3.2-0.1-4.8-0.2l-0.4,0v1.6l0.3,0
			c1.8,0.1,3.2,0.4,4.1,0.8c0.9,0.4,1.7,1,2.1,1.7c0.5,0.8,0.8,1.9,0.9,3.2c0.1,1.4,0.2,3.1,0.2,5.2V57c0,2.1-0.1,3.9-0.2,5.2
			c-0.1,1.3-0.4,2.4-0.9,3.2c-0.5,0.8-1.2,1.4-2.1,1.7c-1,0.4-2.4,0.7-4.1,0.8l-0.3,0v1.6l0.4,0c1.8-0.1,3.6-0.2,5.5-0.2
			c3.6-0.1,7.6-0.1,11.3,0C453.4,69.4,455.3,69.5,457.2,69.6z M449.6,42.3v-4.9c0-2.9,0-5.6,0.1-8c0-2.3,0.1-4.7,0.2-7.1
			c1.1-0.3,2.1-0.5,3.2-0.6c1.2-0.1,2.4-0.2,3.7-0.2c1.5,0,3,0.3,4.4,0.8c1.4,0.5,2.6,1.3,3.7,2.2c1.1,0.9,1.9,2.1,2.5,3.4
			c0.6,1.3,0.9,2.8,0.9,4.4c0,4-1.1,6.9-3.1,8.6c-2.1,1.8-5.1,2.6-8.9,2.6C454,43.5,451.8,43.1,449.6,42.3z"/>
		<path class="st0" d="M519,69.6l0.4,0V68l-0.3,0c-2.3-0.2-4.2-0.6-5.5-1.1c-1.3-0.4-2.2-1.3-2.8-2.6c-0.7-1.3-1.1-3.3-1.3-5.9
			c-0.2-2.6-0.3-6.2-0.3-10.6V34.5c0-1.3,0-2.6,0-3.9c0-1,0-2,0.1-3c2.1,2.3,4.5,4.9,7.1,7.8c2.8,3.1,5.8,6.6,8.9,10.3
			c3.1,3.7,6.2,7.6,9.2,11.7c3.1,4.1,6.1,8.3,8.8,12.6l0.1,0.2h3.4V29.6c0-2.9,0.6-5,1.7-6.4c1.1-1.4,3.2-2.2,6.3-2.6l0.3,0v-1.6
			l-0.4,0c-1.6,0.1-3.3,0.2-4.9,0.2c-3.5,0.1-6.8,0.1-10.3,0c-1.8,0-3.6-0.1-5.3-0.2l-0.4,0v1.6l0.3,0c1.9,0.1,3.5,0.6,4.7,1.5
			c1.2,0.8,2.1,2,2.8,3.6c0.7,1.6,1.1,3.6,1.3,5.9c0.2,2.4,0.3,5.2,0.3,8.4v8.8c0,1.5,0,3,0,4.5c0,1.2,0,2.4,0,3.6
			c-1-1.3-2.2-2.9-3.6-4.7c-1.7-2.2-3.7-4.6-5.7-7.1c-2.1-2.6-4.2-5.2-6.5-7.9c-2.2-2.7-4.3-5.2-6.3-7.6l-5.2-6.3
			c-1.5-1.9-2.6-3.2-3.2-4.1l-0.1-0.2l-0.2,0c-1.1,0.1-2.2,0.2-3.2,0.2c-1.1,0-2.1,0.1-3.2,0.1c-2.1,0-4,0-5.6-0.1
			c-1.6,0-3.3-0.1-5-0.2l-0.4,0v1.6l0.3,0.1c2,0.5,4,1.1,5.9,1.9c1.8,0.7,3.5,1.7,5.1,2.9l-0.9,34.6c0,1.7-0.3,3.1-0.7,4
			c-0.4,0.9-1,1.6-1.8,2.1c-0.8,0.5-1.8,0.9-3.1,1.1c-1.3,0.2-2.8,0.5-4.5,0.7l-0.3,0v1.6l0.4,0c1.5-0.1,2.9-0.2,4.3-0.2
			c1.4-0.1,2.8-0.1,4.3-0.1c2.6,0,5.1,0,7.5,0.1C513.9,69.4,516.4,69.5,519,69.6z"/>
		<path class="st0" d="M595.2,70.8c3.9,0,7.6-0.6,11-1.8c3.4-1.2,6.5-3,9-5.2c2.6-2.3,4.6-5.1,6.1-8.4c1.5-3.3,2.3-7,2.3-11.2
			c0-4.1-0.8-7.9-2.3-11.2c-1.5-3.3-3.6-6.1-6.1-8.4c-2.6-2.3-5.6-4-9-5.2c-3.4-1.2-7.1-1.8-11-1.8c-3.9,0-7.6,0.6-11,1.8
			c-3.4,1.2-6.5,3-9,5.2c-2.6,2.3-4.6,5.1-6.1,8.4c-1.5,3.3-2.3,7-2.3,11.2c0,4.1,0.8,7.9,2.3,11.2c1.5,3.3,3.6,6.1,6.1,8.4
			c2.6,2.3,5.6,4,9,5.2C587.6,70.2,591.4,70.8,595.2,70.8z M595.2,21.2c3.1,0,5.8,0.6,8.3,1.9c2.4,1.3,4.5,3,6.2,5.1
			c1.7,2.1,3,4.6,3.9,7.4c0.9,2.8,1.3,5.7,1.3,8.8c0,3-0.5,6-1.3,8.8c-0.9,2.8-2.2,5.3-3.9,7.4c-1.7,2.1-3.8,3.8-6.2,5.1
			c-2.4,1.3-5.2,1.9-8.3,1.9c-3.1,0-5.8-0.6-8.3-1.9c-2.4-1.3-4.5-3-6.2-5.1c-1.7-2.1-3-4.6-3.9-7.4c-0.9-2.8-1.3-5.7-1.3-8.8
			c0-3,0.5-6,1.3-8.8c0.9-2.8,2.2-5.3,3.9-7.4c1.7-2.1,3.8-3.8,6.2-5.1C589.4,21.8,592.2,21.2,595.2,21.2z"/>
		<path class="st0" d="M238.6,116.5c-2.3,3.5-4.9,6.3-7.8,8.4c-2.9,2-6.4,3-10.4,3c-2.7,0-5-0.5-7.1-1.6c-2-1-3.7-2.5-5.1-4.2
			c-1.4-1.8-2.4-3.8-3.1-6.2c-0.7-2.4-1-4.9-1-7.5c0-2.6,0.3-5.1,0.8-7.4c0.5-2.3,1.4-4.4,2.6-6.2c1.2-1.7,2.7-3.2,4.5-4.2
			c1.8-1,4.1-1.5,6.8-1.5c2.1,0,3.9,0.3,5.6,1c1.6,0.7,3.1,1.6,4.4,2.8c1.3,1.2,2.4,2.6,3.3,4.3c0.9,1.6,1.7,3.5,2.2,5.4l0.1,0.3
			h1.6l-0.1-0.4c-0.1-0.9-0.3-2-0.4-3.3c-0.1-1.3-0.3-2.5-0.4-3.8c-0.1-1.3-0.2-2.6-0.3-3.8c-0.1-1.2-0.1-2.3-0.1-3.2V88l-0.4,0
			c-1.2,0-2.4-0.2-3.5-0.4c-1.2-0.2-2.5-0.4-3.8-0.7c-1.3-0.2-2.7-0.4-4.1-0.6c-1.4-0.2-3-0.3-4.6-0.3c-3,0-5.9,0.6-8.5,1.7
			c-2.7,1.1-5,2.7-7.1,4.8c-2,2-3.6,4.5-4.8,7.3c-1.2,2.8-1.8,6-1.8,9.4s0.6,6.5,1.8,9.4c1.2,2.8,2.8,5.3,4.8,7.3
			c2,2,4.4,3.6,7.1,4.8c2.7,1.1,5.5,1.7,8.5,1.7c2.6,0,5-0.3,7.1-0.9c2.1-0.6,4.1-1.6,5.8-2.8c1.8-1.2,3.4-2.7,5-4.4
			c1.5-1.7,3-3.7,4.5-6l0.2-0.3l-2.2-1.8L238.6,116.5z"/>
		<path class="st0" d="M301.4,92.1c-2.2-2-4.9-3.5-7.9-4.6c-3-1-6.2-1.6-9.6-1.6s-6.6,0.5-9.6,1.6c-3,1-5.7,2.6-7.9,4.6
			c-2.2,2-4,4.4-5.3,7.3c-1.3,2.9-2,6.1-2,9.7c0,3.6,0.7,6.9,2,9.7c1.3,2.9,3.1,5.3,5.3,7.3c2.2,2,4.9,3.5,7.9,4.6
			c3,1,6.2,1.6,9.6,1.6s6.6-0.5,9.6-1.6c3-1,5.7-2.6,7.9-4.6c2.2-2,4-4.4,5.3-7.3c1.3-2.9,2-6.1,2-9.7c0-3.6-0.7-6.9-2-9.7
			C305.4,96.6,303.6,94.1,301.4,92.1z M283.9,129.2c-2.7,0-5.1-0.6-7.2-1.6c-2.1-1.1-3.9-2.6-5.4-4.4c-1.5-1.8-2.6-4-3.4-6.4
			c-0.8-2.4-1.2-5-1.2-7.6c0-2.6,0.4-5.2,1.2-7.6c0.8-2.4,1.9-4.6,3.4-6.4c1.5-1.8,3.3-3.3,5.4-4.4c2.1-1.1,4.5-1.6,7.2-1.6
			c2.7,0,5.1,0.6,7.2,1.6c2.1,1.1,3.9,2.6,5.4,4.4c1.5,1.8,2.6,4,3.4,6.4c0.8,2.4,1.2,5,1.2,7.6c0,2.6-0.4,5.2-1.2,7.6
			c-0.8,2.4-1.9,4.6-3.4,6.4c-1.5,1.8-3.3,3.3-5.4,4.4C289,128.7,286.6,129.2,283.9,129.2z"/>
		<path class="st0" d="M369.6,115.9c-1.3,2.1-2.6,4-3.9,5.6c-1.3,1.6-2.7,2.9-4.2,3.9c-1.5,1-3.2,1.8-5.1,2.3
			c-1.9,0.5-4.2,0.8-6.7,0.8c-1.1,0-2.2-0.1-3.3-0.3c-1-0.2-2.1-0.3-3.2-0.5V96.4c0-1.3,0.1-2.4,0.2-3.3c0.1-0.8,0.4-1.5,0.9-2
			c0.5-0.5,1.3-1,2.5-1.4c1.2-0.4,2.8-0.7,4.9-1l0.3,0V87l-0.4,0c-1.9,0.1-3.7,0.2-5.6,0.2c-3.6,0.1-7.2,0.1-10.7,0
			c-1.7,0-3.4-0.1-5.1-0.2l-0.4,0v1.5l0.3,0c1.5,0.1,2.7,0.4,3.6,0.7c0.8,0.3,1.4,0.8,1.8,1.5c0.4,0.7,0.7,1.6,0.8,2.8
			c0.1,1.2,0.2,2.7,0.2,4.6v26.2c0,0.8-0.1,1.6-0.2,2.2c-0.1,0.6-0.4,1.1-0.9,1.5c-0.4,0.4-1.1,0.8-1.9,1.1c-0.8,0.3-2,0.5-3.4,0.6
			l-0.3,0v1.5l0.4,0c1.1-0.1,2.2-0.2,3.3-0.2c1.1,0,2.2-0.1,3.3-0.1h19.4c1.6,0,3.2,0,4.8,0.1c1.6,0,3.2,0.1,4.8,0.2l0.3,0l5.3-15.6
			h-1.7L369.6,115.9z"/>
		<path class="st0" d="M428.8,115.9c-1.3,2.1-2.6,4-3.9,5.6c-1.3,1.6-2.7,2.9-4.2,3.9c-1.5,1-3.2,1.8-5.1,2.3
			c-1.9,0.5-4.2,0.8-6.7,0.8c-1.1,0-2.2-0.1-3.3-0.3c-1-0.2-2.1-0.3-3.2-0.5V96.4c0-1.3,0.1-2.4,0.2-3.3c0.1-0.8,0.4-1.5,0.9-2
			c0.5-0.5,1.3-1,2.5-1.4c1.2-0.4,2.8-0.7,4.9-1l0.3,0V87l-0.4,0c-1.9,0.1-3.7,0.2-5.6,0.2c-3.6,0.1-7.2,0.1-10.7,0
			c-1.7,0-3.4-0.1-5.1-0.2l-0.4,0v1.5l0.3,0c1.5,0.1,2.7,0.4,3.6,0.7c0.8,0.3,1.4,0.8,1.8,1.5c0.4,0.7,0.7,1.6,0.8,2.8
			c0.1,1.2,0.2,2.7,0.2,4.6v26.2c0,0.8-0.1,1.6-0.2,2.2c-0.1,0.6-0.4,1.1-0.9,1.5c-0.4,0.4-1.1,0.8-1.9,1.1c-0.8,0.3-2,0.5-3.4,0.6
			l-0.3,0v1.5l0.4,0c1.1-0.1,2.2-0.2,3.3-0.2c1.1,0,2.2-0.1,3.3-0.1h19.4c1.6,0,3.2,0,4.8,0.1c1.6,0,3.2,0.1,4.8,0.2l0.3,0l5.3-15.6
			h-1.7L428.8,115.9z"/>
		<path class="st0" d="M490.9,116.8c-1.6,2.1-3.1,3.9-4.7,5.4c-1.5,1.5-3.1,2.7-4.8,3.6c-1.7,0.9-3.6,1.6-5.6,2.1
			c-2.1,0.4-4.4,0.7-7,0.7c-0.6,0-1.3,0-1.9-0.1c-0.7-0.1-1.4-0.1-2-0.2c-0.7-0.1-1.3-0.2-1.8-0.3c-0.4-0.1-0.8-0.1-1.1-0.2V108h3.9
			c1.7,0,3.2,0.1,4.5,0.3c1.2,0.2,2.2,0.6,3.1,1.2c0.8,0.6,1.5,1.4,2,2.5c0.6,1.1,1,2.6,1.4,4.4l0.1,0.3h1.5v-0.4
			c0-1.6,0-3.2-0.1-4.8c0-1.5-0.1-3.1-0.1-4.7c0-1.6,0-3.2,0.1-4.7c0-1.5,0.1-3.2,0.1-4.8v-0.4h-1.5l0,0.3c-0.4,3.1-1.4,5.2-3.1,6.4
			c-1.7,1.2-4.1,1.8-7,1.8c-0.9,0-1.7,0-2.6,0.1c-0.7,0-1.4,0.1-2.2,0.1V89.9c3-0.2,5.9-0.4,8.9-0.4c1.6,0,3.2,0.1,4.7,0.4
			c1.4,0.3,2.8,0.8,4,1.5c1.2,0.7,2.3,1.7,3.2,3c0.9,1.3,1.7,3,2.2,5.1l0.1,0.4l1.5-0.5l0-0.3c-0.1-1.2-0.2-2.3-0.3-3.3
			c-0.1-1-0.1-2-0.1-2.9v-2.6c0-0.4,0-0.9,0-1.4c0-0.5,0.1-1,0.1-1.4l0-0.4l-0.4,0c-3.2,0.1-6.3,0.2-9.4,0.2c-3.1,0-6.2,0.1-9.2,0.1
			h-5.5c-1.6,0-3.1,0-4.6,0c-1.4,0-2.8-0.1-4.2-0.1c-1.3,0-2.8-0.1-4.3-0.1l-0.4,0v1.5l0.3,0c1.5,0.1,2.8,0.4,3.7,0.7
			c0.8,0.3,1.5,0.8,1.9,1.5c0.4,0.7,0.7,1.6,0.8,2.8c0.1,1.2,0.2,2.7,0.2,4.6v22.1c0,1.8-0.1,3.4-0.2,4.6c-0.1,1.2-0.4,2.1-0.8,2.8
			c-0.4,0.7-1,1.2-1.8,1.5c-0.8,0.3-2.1,0.6-3.6,0.7l-0.3,0v1.5l0.4,0c1.3-0.1,2.6-0.2,3.8-0.2c1.3,0,2.5-0.1,3.8-0.1h24.8
			c0.7,0,1.5,0,2.3,0.1c0.8,0,1.5,0.1,2.3,0.2l0.3,0l6.2-13.8l-1.2-1L490.9,116.8z"/>
		<path class="st0" d="M553.8,112.2c-3.3,0.1-6.9,0.1-9.6,0c-1.4-0.1-3-0.1-4.6-0.2l-0.4,0v1.5l0.4,0c4.3,0.1,6.4,1.5,6.4,4.3v8.3
			c-1.7,1.2-3.5,2-5.4,2.4c-2,0.4-4.1,0.6-6.1,0.6c-2.4,0-4.6-0.5-6.5-1.6c-1.9-1.1-3.6-2.5-4.9-4.3c-1.4-1.8-2.4-4-3.1-6.4
			c-0.7-2.4-1.1-5.1-1.1-7.8c0-2.4,0.4-4.9,1.1-7.3c0.7-2.4,1.8-4.6,3.1-6.6c1.4-1.9,3-3.5,4.9-4.7c1.9-1.2,4.1-1.8,6.5-1.8
			c2.1,0,3.9,0.4,5.5,1.1c1.6,0.7,3,1.7,4.2,2.9c1.2,1.2,2.3,2.6,3.2,4.2c0.9,1.6,1.8,3.2,2.7,4.9l0.1,0.2h1.5l-0.1-0.4
			c-0.1-0.7-0.3-1.6-0.5-2.8c-0.2-1.2-0.4-2.4-0.5-3.6c-0.2-1.3-0.3-2.5-0.4-3.6c-0.1-1.1-0.2-2.1-0.2-2.8v-0.3l-0.3-0.1
			c-0.9-0.2-1.8-0.5-2.8-0.7c-1-0.3-2.1-0.5-3.3-0.8c-1.2-0.2-2.5-0.4-4-0.6c-1.5-0.2-3.1-0.2-4.9-0.2c-3,0-5.9,0.6-8.8,1.8
			c-2.8,1.2-5.4,2.8-7.7,4.9c-2.2,2-4.1,4.5-5.4,7.3c-1.4,2.8-2.1,5.9-2.1,9.2c0,3.7,0.7,7.1,2.1,9.9c1.4,2.9,3.2,5.3,5.4,7.3
			c2.2,2,4.8,3.5,7.7,4.5c2.8,1,5.8,1.5,8.8,1.5c2.8,0,5.7-0.4,8.7-1.3c3-0.9,6-1.8,9-2.8l0.3-0.1v-9.5c0-1,0.2-1.8,0.5-2.4
			c0.3-0.6,0.7-1.1,1.2-1.5c0.5-0.4,1.1-0.6,1.9-0.8c0.8-0.2,1.6-0.3,2.5-0.3l0.4,0V112l-0.4,0C557.1,112.1,555.5,112.2,553.8,112.2
			z"/>
		<path class="st0" d="M620.3,116.8c-1.6,2.1-3.1,3.9-4.7,5.4c-1.5,1.5-3.1,2.7-4.8,3.6c-1.7,0.9-3.6,1.6-5.6,2.1
			c-2.1,0.4-4.4,0.7-7,0.7c-0.6,0-1.3,0-1.9-0.1c-0.7-0.1-1.4-0.1-2-0.2c-0.7-0.1-1.3-0.2-1.8-0.3c-0.4-0.1-0.8-0.1-1.1-0.2V108h3.9
			c1.7,0,3.2,0.1,4.5,0.3c1.2,0.2,2.2,0.6,3.1,1.2c0.8,0.6,1.5,1.4,2,2.5c0.6,1.1,1,2.6,1.4,4.4l0.1,0.3h1.5v-0.4
			c0-1.5,0-3.2-0.1-4.8c0-1.6-0.1-3.2-0.1-4.7c0-1.5,0-3.1,0.1-4.7c0-1.6,0.1-3.2,0.1-4.8v-0.4h-1.5l0,0.3c-0.4,3.1-1.4,5.2-3.1,6.4
			c-1.7,1.2-4.1,1.8-7,1.8c-0.9,0-1.7,0-2.6,0.1c-0.7,0-1.4,0.1-2.2,0.1V89.9c2.9-0.2,5.9-0.4,8.9-0.4c1.6,0,3.2,0.1,4.7,0.4
			c1.4,0.3,2.8,0.8,4,1.5c1.2,0.7,2.3,1.7,3.2,3c0.9,1.3,1.7,3,2.2,5.1l0.1,0.4l1.5-0.5l0-0.3c-0.1-1.2-0.2-2.3-0.3-3.3
			c-0.1-1-0.1-1.9-0.1-2.9v-2.6c0-0.4,0-0.9,0-1.4c0-0.5,0.1-1,0.1-1.4l0-0.4l-0.4,0c-3.2,0.1-6.3,0.2-9.4,0.2
			c-3.1,0-6.2,0.1-9.2,0.1H591c-1.6,0-3.1,0-4.6,0c-1.4,0-2.8-0.1-4.2-0.1c-1.3,0-2.8-0.1-4.3-0.1l-0.4,0v1.5l0.3,0
			c1.5,0.1,2.8,0.4,3.7,0.7c0.9,0.3,1.5,0.8,1.9,1.5c0.4,0.7,0.7,1.6,0.8,2.8c0.1,1.2,0.2,2.8,0.2,4.6v22.1c0,1.8-0.1,3.3-0.2,4.6
			c-0.1,1.2-0.4,2.1-0.8,2.8c-0.4,0.7-1,1.2-1.8,1.5c-0.8,0.3-2,0.6-3.6,0.7l-0.3,0v1.5l0.4,0c1.3-0.1,2.6-0.2,3.8-0.2
			c1.3,0,2.5-0.1,3.8-0.1h24.8c0.7,0,1.5,0,2.3,0.1c0.8,0,1.5,0.1,2.3,0.2l0.3,0l6.2-13.8l-1.2-1L620.3,116.8z"/>
	</g>
	<g>
		<path class="st0" d="M200.7,149.7h10.5v2.6h-7.7v3.9h7.3v2.6h-7.3v4.3h8.1v2.6h-10.9V149.7z"/>
		<path class="st0" d="M237.2,153.1c-0.6-0.9-1.7-1.3-2.8-1.3c-1.3,0-2.6,0.6-2.6,2c0,3.2,7.5,1.4,7.5,7c0,3.4-2.7,5.1-5.8,5.1
			c-2,0-3.9-0.6-5.2-2.2l2.1-2.1c0.7,1.1,1.9,1.7,3.1,1.7c1.3,0,2.8-0.7,2.8-2.2c0-3.5-7.5-1.5-7.5-7.2c0-3.3,2.9-4.8,5.9-4.8
			c1.7,0,3.3,0.5,4.6,1.6L237.2,153.1z"/>
		<path class="st0" d="M260.7,152.3h-4.9v-2.6h12.6v2.6h-4.9v13.3h-2.8V152.3z"/>
		<path class="st0" d="M288.5,149.7h2.4l6.8,15.9h-3.2l-1.5-3.6h-6.9l-1.4,3.6h-3.2L288.5,149.7z M292.1,159.5l-2.4-6.5l-2.5,6.5
			H292.1z"/>
		<path class="st0" d="M314.6,149.7h6.2c2.4,0,4.9,1.1,4.9,4c0,1.8-1.1,3-2.8,3.5v0c2,0.2,3.4,1.8,3.4,3.8c0,3.5-3,4.5-6,4.5h-5.7
			V149.7z M317.5,156.2h2.6c1.9,0,2.8-0.8,2.8-2c0-1.4-0.9-2-3.1-2h-2.3V156.2z M317.5,163.2h2.6c1.5,0,3.5-0.2,3.5-2.3
			c0-1.7-1.1-2.2-3.4-2.2h-2.7V163.2z"/>
		<path class="st0" d="M344.3,149.7h2.8V163h6.7v2.6h-9.6V149.7z"/>
		<path class="st0" d="M370.9,149.7h2.8v15.9h-2.8V149.7z"/>
		<path class="st0" d="M400.1,153.1c-0.6-0.9-1.7-1.3-2.8-1.3c-1.3,0-2.6,0.6-2.6,2c0,3.2,7.5,1.4,7.5,7c0,3.4-2.7,5.1-5.8,5.1
			c-2,0-3.9-0.6-5.2-2.2l2.1-2.1c0.7,1.1,1.9,1.7,3.1,1.7c1.3,0,2.8-0.7,2.8-2.2c0-3.5-7.5-1.5-7.5-7.2c0-3.3,2.9-4.8,5.9-4.8
			c1.7,0,3.3,0.5,4.6,1.6L400.1,153.1z"/>
		<path class="st0" d="M420.3,149.7h2.8v6.3h7.4v-6.3h2.8v15.9h-2.8v-7h-7.4v7h-2.8V149.7z"/>
		<path class="st0" d="M452,149.7h10.5v2.6h-7.7v3.9h7.3v2.6h-7.3v4.3h8.1v2.6H452V149.7z"/>
		<path class="st0" d="M480.8,149.7h6.3c4.2,0,8.1,2.6,8.1,7.9c0,5.4-4.6,7.9-8.4,7.9h-5.9V149.7z M485.8,163c3.5,0,6.4-1.5,6.4-5.4
			c0-3.9-2.5-5.4-6-5.4h-2.6V163H485.8z"/>
		<path class="st0" d="M529.5,152.8l-3,2.8l-1.6-1.9l4.8-4h2.4v15.9h-2.7V152.8z"/>
		<path class="st0" d="M560.7,153.6c0,1.7-0.8,3.1-2.4,3.6v0c1.5,0.3,2.9,1.9,2.9,3.9c0,3.1-2.4,4.8-5.4,4.8c-3,0-5.4-1.6-5.4-4.8
			c0-2,1.4-3.5,2.9-3.9v0c-1.6-0.5-2.4-1.9-2.4-3.6c0-2.7,2.2-4.2,4.9-4.2C558.5,149.5,560.7,151,560.7,153.6z M553.1,160.8
			c0,1.5,1.1,2.6,2.7,2.6c1.5,0,2.7-1.1,2.7-2.6c0-1.5-1.2-2.5-2.7-2.5C554.4,158.3,553.1,159.3,553.1,160.8z M553.6,153.9
			c0,1.3,0.9,2.2,2.2,2.2c1.2,0,2.2-1,2.2-2.2c0-1.2-0.9-2.2-2.2-2.2C554.4,151.7,553.6,152.7,553.6,153.9z"/>
		<path class="st0" d="M589.1,153.6c0,1.7-0.8,3.1-2.4,3.6v0c1.5,0.3,2.9,1.9,2.9,3.9c0,3.1-2.4,4.8-5.4,4.8c-3,0-5.4-1.6-5.4-4.8
			c0-2,1.4-3.5,2.9-3.9v0c-1.6-0.5-2.4-1.9-2.4-3.6c0-2.7,2.2-4.2,4.9-4.2S589.1,151,589.1,153.6z M581.5,160.8
			c0,1.5,1.1,2.6,2.7,2.6c1.5,0,2.7-1.1,2.7-2.6c0-1.5-1.2-2.5-2.7-2.5C582.7,158.3,581.5,159.3,581.5,160.8z M582,153.9
			c0,1.3,0.9,2.2,2.2,2.2c1.2,0,2.2-1,2.2-2.2c0-1.2-0.9-2.2-2.2-2.2C582.8,151.7,582,152.7,582,153.9z"/>
		<path class="st0" d="M606.9,149.7h10.8v2.5l-6.3,13.4h-3.2l6.5-13.3h-7.8V149.7z"/>
	</g>
	<g>
		<polygon class="st1" points="61.1,165.5 101.7,64.8 82.1,15.8 21.7,165.5 		"/>
		<path class="st0" d="M84.3,107.8c0,0-46,7.6-62.6,57.7l39.4,0L84.3,107.8z"/>
		<polygon class="st2" points="142.3,165.5 101.7,64.8 121.3,15.8 181.6,165.5 		"/>
		<polyline class="st0" points="101.6,64.7 82.1,15.8 121.3,15.8 101.7,64.8 		"/>
		<path class="st0" d="M119,107.8c0,0,46,7.5,62.6,57.7h-39.4L119,107.8z"/>
		<path class="st3" d="M61.1,165.5l23.2-57.7c0,0,16.5-3.6,34.7,0l23.2,57.7c0,0-12.6-22.5-40.6-22.5
			C73.7,143,61.1,165.5,61.1,165.5z"/>
	</g>
</g>
</svg>
