<?xml version="1.0" encoding="utf-8"?>
<!-- Generator: Adobe Illustrator 26.3.1, SVG Export Plug-In . SVG Version: 6.00 Build 0)  -->
<svg version="1.1" id="Layer_1" xmlns="http://www.w3.org/2000/svg" xmlns:xlink="http://www.w3.org/1999/xlink" x="0px" y="0px"
	 viewBox="0 0 110 85.9" style="enable-background:new 0 0 110 85.9;" xml:space="preserve">
<style type="text/css">
	.st0{fill:#E4185B;}
</style>
<path class="st0" d="M30.5,49.6c0.7-0.2,1.4-0.7,1.9,0s0,1.4-0.4,1.9c-2.7,6.7-7,12.2-12.6,16.9c-2.8,2.5-6.3,4.4-9.5,6.5
	c-2.5,1.6-3,4.4-1.6,6.8c1.2,2.3,3.9,3,6.5,1.9c1.1-0.5,2.1-1.1,3-1.6c7.9-4.7,14.8-10.7,20.7-17.7c11.3-13.5,14.9-28.8,9.9-45.8
	C45,7,33.3,0,21.7,1.8C9.8,3.8,1.4,13.6,1.4,25.7C1.5,41.3,15,52.4,30.5,49.6z M88.4,49.6c0.7-0.2,1.4-0.7,1.9,0s0,1.4-0.4,1.9
	c-2.7,6.7-7,12.2-12.6,16.9c-2.8,2.5-6.3,4.4-9.5,6.5c-2.5,1.6-3,4.4-1.6,6.8c1.2,2.3,3.9,3,6.5,1.9c1.1-0.5,2.1-1.1,3-1.6
	c8-4.7,14.8-10.7,20.8-17.7c11.3-13.5,14.9-28.8,9.8-45.8C102.9,7,91.2,0,79.6,1.8C67.7,3.7,59.3,13.6,59.3,25.7
	C59.6,41.3,73.1,52.4,88.4,49.6z"/>
</svg>
